<svg clip-rule="evenodd" fill-rule="evenodd" stroke-linecap="round" stroke-linejoin="round" stroke-miterlimit="10" viewBox="0 0 1194 584" xmlns="http://www.w3.org/2000/svg" xmlns:xlink="http://www.w3.org/1999/xlink"><linearGradient id="a" gradientTransform="matrix(.530911 -.847428 -.847428 -.530911 .351898 .635718)" gradientUnits="userSpaceOnUse" x1="0" x2="1" y1="0" y2="0"><stop offset="0" stop-color="#d67369"/><stop offset="1" stop-color="#ee7f70"/></linearGradient><clipPath id="b"><path clip-rule="nonzero" d="m-43.532-2.536c-1.543 4.114.541 8.696 4.653 10.237l28.199 10.575c3.348 1.254 5.546 4.475 5.495 8.049l-.236 16.912c-.055 3.861 3.033 7.036 6.893 7.088l2.816.041c3.36.047 6.116-2.649 6.143-6.01l.194-23.676c.054-6.826-4.161-12.961-10.552-15.358l-4.936-1.85-28.432-10.661c-.919-.344-1.862-.508-2.79-.508-3.22 0-6.25 1.969-7.447 5.161z"/></clipPath><clipPath id="c"><path clip-rule="nonzero" d="m7.298-66.562h-90.42c-2.579 0-4.682 2.098-4.643 4.678.306 21.259 18.605 66.56 26.623 66.56h46.46c8.02 0 26.318-45.301 26.625-66.56.037-2.58-2.065-4.678-4.645-4.678z"/></clipPath><clipPath id="d"><path clip-rule="nonzero" d="m-23.314 4.404c-14.972 0-27.105 12.136-27.105 27.105v24.459c0 14.97 12.133 27.106 27.105 27.106h31.274c14.969 0 27.105-12.136 27.105-27.106v-24.459c0-14.969-12.136-27.105-27.105-27.105z"/></clipPath><clipPath id="e"><path clip-rule="nonzero" d="m-36.897-2.218c-2.014 3.903-.483 8.698 3.42 10.711l26.764 13.809c3.176 1.64 4.982 5.097 4.512 8.641l-2.221 16.768c-.506 3.827 2.186 7.341 6.014 7.847l2.791.372c3.332.439 6.385-1.915 6.807-5.248l2.971-23.489c.856-6.774-2.609-13.36-8.676-16.491l-4.684-2.418-26.984-13.923c-1.167-.602-2.412-.886-3.64-.886-2.881 0-5.662 1.571-7.074 4.307z"/></clipPath><path d="m0-2.375c2.894-4.852 8.377-7.902 14.386-7.404 8.405.698 14.653 8.076 13.955 16.48l-.57 6.871-48.968-4.062 2.112-25.457 24.945 4.812 4.061 1.641" fill="#27464f" fill-rule="nonzero" transform="matrix(1.33333 0 0 1.33333 372.89361459 505.8926944)"/><path d="m0 8.666-39.721-3.295c-2.189-.182-3.815-2.102-3.633-4.291l.109-1.322 48.968 4.062c-.242 2.919-2.805 5.088-5.723 4.846" fill="#243e44" fill-rule="nonzero" transform="matrix(1.33333 0 0 1.33333 402.21887461 518.4126631)"/><path d="m0-3.596c10.935-6.934 22.057.281 23.617 10.53-4.764-8.747-12.455-12.562-23.617-10.53" fill="#243e44" fill-rule="nonzero" transform="matrix(1.33333 0 0 1.33333 378.93759948 501.0527065)"/><path d="m0 20.647-17.509-.806c-5.547-.256-9.837-4.959-9.582-10.506.249-5.407 4.834-9.587 10.241-9.339l17.822.82c5.46.251 9.683 4.882 9.432 10.342-.253 5.493-4.911 9.741-10.404 9.489" fill="#f2f2f2" fill-rule="nonzero" transform="matrix(1.33333 0 0 1.33333 374.4762773 472.0661123)"/><path d="m0-46.753c1.542-4.112 6.125-6.195 10.237-4.653l28.432 10.66 4.935 1.85c6.393 2.397 10.608 8.533 10.553 15.359l-.193 23.676c-.027 3.36-2.784 6.056-6.144 6.009l-2.815-.04c-3.861-.053-6.948-3.228-6.894-7.09l.237-16.911c.05-3.574-2.148-6.795-5.495-8.049l-28.199-10.574c-4.112-1.542-6.196-6.125-4.654-10.237" fill="#f2c666" fill-rule="nonzero" transform="matrix(1.33333 0 0 1.33333 302.83378974 477.1727662)"/><g clip-path="url(#b)" transform="matrix(1.33333 0 0 1.33333 360.8763113 418.2129136)"><path d="m0 51.437-.222-26.872c-.036-4.417-2.787-8.357-6.922-9.912l-38.94-14.653.546 8.868 36.591 12.757 1.693 26.921z" fill="#d3aa59" fill-rule="nonzero"/></g><path d="m0 15.298h-38.927c-.922 0-1.669-.747-1.669-1.669v-11.961c0-.921.747-1.668 1.669-1.668h38.927c.921 0 1.668.747 1.668 1.668v11.961c0 .922-.747 1.669-1.668 1.669" fill="#e0e0e0" fill-rule="nonzero" transform="matrix(1.33333 0 0 1.33333 82.3036744 261.4933054)"/><path d="m0 15.298h-38.927c-.922 0-1.669-.747-1.669-1.669v-11.961c0-.921.747-1.668 1.669-1.668h38.927c.922 0 1.669.747 1.669 1.668v11.961c0 .922-.747 1.669-1.669 1.669" fill="#e0e0e0" fill-rule="nonzero" transform="matrix(1.33333 0 0 1.33333 668.38754252 87.1737412)"/><path d="m0 15.298h-38.927c-.922 0-1.669-.747-1.669-1.668v-11.961c0-.922.747-1.669 1.669-1.669h38.927c.921 0 1.668.747 1.668 1.669v11.961c0 .921-.747 1.668-1.668 1.668" fill="#e0e0e0" fill-rule="nonzero" transform="matrix(1.33333 0 0 1.33333 54.12641151 281.8932544)"/><path d="m0 15.298h-38.927c-.922 0-1.669-.747-1.669-1.668v-11.961c0-.922.747-1.669 1.669-1.669h38.927c.921 0 1.668.747 1.668 1.669v11.961c0 .921-.747 1.668-1.668 1.668" fill="#e0e0e0" fill-rule="nonzero" transform="matrix(1.33333 0 0 1.33333 635.45029153 68.7471206)"/><path d="m0 4.998c7.757-12.146 31.526-12.644 37.065 3.655-4.5.789-8.161 2.837-11.066 6.024 10.627-11.767 33.021-6.832 33.021 12.714h-163.395c-.495-13.013 13.853-21.634 25.999-14.043l-6.511-2.561c2.691-20.497 31.513-32.452 45.888-15.23l-1.709-1.848c13.268-16.102 39.32-14.484 45.04 6.72-1.685 1.131-3.113 2.679-4.332 4.569" fill="#e0e0e0" fill-rule="nonzero" transform="matrix(1.33333 0 0 1.33333 881.48034312 22.7872355)"/><path d="m0 3.072c0-4.005-2.844-6.512-6.513-6.512h-46.612v1.467c0 4.796 3.888 8.684 8.684 8.684 4.795 0 8.683-3.888 8.683-8.684.061-1.666 2.767-1.467 2.679 0 0 4.796 3.888 8.684 8.683 8.684 4.796 0 8.684-3.888 8.684-8.684v-1.467" fill="none" stroke="#27464f" stroke-width="2" transform="matrix(1.33333 0 0 1.33333 692.85281469 323.4664838)"/><path d="m220.864 5807.5h105.927v81.769h-105.927z" fill="#27464f" transform="matrix(-1.33333 0 0 1.33333 548.93584115 -7634.7669539)"/><path d="m230.853 5817.03h85.252v62.055h-85.252z" fill="#31565e" transform="matrix(-1.33333 0 0 1.33333 548.00651014 -7633.8736228)"/><path d="m-7.96-7.96c-4.395 0-7.959 3.564-7.959 7.96 0 4.397 3.564 7.96 7.959 7.96 4.396 0 7.96-3.563 7.96-7.96 0-4.396-3.564-7.96-7.96-7.96" fill="#3e6970" fill-rule="nonzero" transform="matrix(0 -1.33333 -1.33333 0 211.08868577 141.8402712)"/><path d="m0 38.547 21.044-31.567c4.606-6.91 14.735-6.98 19.436-.135l21.775 31.702" fill="#3e6970" fill-rule="nonzero" transform="matrix(1.33333 0 0 1.33333 128.08222662 153.4802421)"/><path d="m0 76.977h-111.831c-.422 0-.765-.343-.765-.765v-75.447c0-.422.343-.765.765-.765h111.831c.422 0 .765.343.765.765v75.447c0 .422-.343.765-.765.765" fill="#cccbca" fill-rule="nonzero" transform="matrix(1.33333 0 0 1.33333 592.89306459 204.5601144)"/><path d="m-36.545-36.545c-20.183 0-36.545 16.362-36.545 36.546 0 20.183 16.362 36.544 36.545 36.544 20.185 0 36.546-16.361 36.546-36.544 0-20.184-16.361-36.546-36.546-36.546" fill="#27464f" fill-rule="nonzero" transform="matrix(0 -1.33333 -1.33333 0 460.11072988 66.9737917)"/><path d="m525.97856521 357.9997308h19.40928481v202.97415923h-19.40928481z" fill="#27464f" stroke-width="1.33333"/><path d="m380.61359529 357.9997308h19.40928481v202.97415923h-19.40928481z" fill="#27464f" stroke-width="1.33333"/><path d="m642.4356074 357.9997308h19.40928481v202.97415923h-19.40928481z" fill="#27464f" stroke-width="1.33333"/><path d="m0-17.964h86.666l14.543 17.964-103.757-.063" fill="#3e6970" fill-rule="nonzero" transform="matrix(1.33333 0 0 1.33333 384.0095868 358.0797306)"/><path d="m-6.814-6.813c-3.763 0-6.813 3.051-6.813 6.813 0 3.764 3.05 6.814 6.813 6.814 3.764 0 6.814-3.05 6.814-6.814 0-3.762-3.05-6.813-6.814-6.813" fill="#fff" fill-rule="nonzero" transform="matrix(0 -1.33333 -1.33333 0 648.35159261 258.0133141)"/><path d="m-6.813-6.814c-3.765 0-6.814 3.051-6.814 6.814s3.049 6.813 6.814 6.813c3.763 0 6.813-3.05 6.813-6.813s-3.05-6.814-6.813-6.814" fill="#e0e0e0" fill-rule="nonzero" transform="matrix(0 -1.33333 -1.33333 0 685.52083302 216.3067517)"/><path d="m-6.814-6.813c-3.763 0-6.813 3.051-6.813 6.813 0 3.765 3.05 6.814 6.813 6.814 3.764 0 6.814-3.049 6.814-6.814 0-3.762-3.05-6.813-6.814-6.813" fill="#e0e0e0" fill-rule="nonzero" transform="matrix(0 -1.33333 -1.33333 0 713.18876385 170.6135326)"/><path d="m-6.813-6.814c-3.765 0-6.814 3.05-6.814 6.814 0 3.763 3.049 6.813 6.814 6.813 3.763 0 6.813-3.05 6.813-6.813 0-3.764-3.05-6.814-6.813-6.814" fill="#e0e0e0" fill-rule="nonzero" transform="matrix(0 -1.33333 -1.33333 0 1002.21337462 208.0667723)"/><path d="m-6.814-6.813c-3.763 0-6.813 3.051-6.813 6.813 0 3.764 3.05 6.814 6.813 6.814 3.764 0 6.814-3.05 6.814-6.814 0-3.762-3.05-6.813-6.814-6.813" fill="#e0e0e0" fill-rule="nonzero" transform="matrix(0 -1.33333 -1.33333 0 1147.78901068 476.5994343)"/><path d="m-6.813-6.814c-3.765 0-6.814 3.051-6.814 6.813 0 3.764 3.049 6.814 6.814 6.814 3.763 0 6.813-3.05 6.813-6.814 0-3.762-3.05-6.813-6.813-6.813" fill="#e0e0e0" fill-rule="nonzero" transform="matrix(0 -1.33333 -1.33333 0 1165.9542986 516.8660003)"/><path d="m-6.814-6.813c-3.763 0-6.813 3.051-6.813 6.813 0 3.764 3.05 6.814 6.813 6.814 3.764 0 6.814-3.05 6.814-6.814 0-3.762-3.05-6.813-6.814-6.813" fill="#e0e0e0" fill-rule="nonzero" transform="matrix(0 -1.33333 -1.33333 0 1184.1275865 564.8925469)"/><path d="m-6.814-6.813c-3.763 0-6.813 3.051-6.813 6.813 0 3.765 3.05 6.814 6.813 6.814 3.764 0 6.814-3.049 6.814-6.814 0-3.762-3.05-6.813-6.814-6.813" fill="#e0e0e0" fill-rule="nonzero" transform="matrix(0 -1.33333 -1.33333 0 999.50404806 254.4133231)"/><path d="m-6.814-6.813c-3.763 0-6.813 3.051-6.813 6.813 0 3.764 3.05 6.814 6.813 6.814 3.764 0 6.814-3.05 6.814-6.814 0-3.762-3.05-6.813-6.814-6.813" fill="#e0e0e0" fill-rule="nonzero" transform="matrix(0 -1.33333 -1.33333 0 993.12939733 304.3465316)"/><path d="m-6.814-6.813c-3.763 0-6.813 3.051-6.813 6.813 0 3.764 3.05 6.814 6.813 6.814 3.764 0 6.814-3.05 6.814-6.814 0-3.762-3.05-6.813-6.814-6.813" fill="#e0e0e0" fill-rule="nonzero" transform="matrix(0 -1.33333 -1.33333 0 993.12939733 355.2797376)"/><path d="m-6.814-6.813c-3.763 0-6.813 3.051-6.813 6.813 0 3.765 3.05 6.814 6.813 6.814 3.764 0 6.814-3.049 6.814-6.814 0-3.762-3.05-6.813-6.814-6.813" fill="#e0e0e0" fill-rule="nonzero" transform="matrix(0 -1.33333 -1.33333 0 1015.01200929 405.0796131)"/><path d="m-6.813-6.814c-3.765 0-6.814 3.051-6.814 6.814s3.049 6.813 6.814 6.813c3.763 0 6.813-3.05 6.813-6.813s-3.05-6.814-6.813-6.814" fill="#e0e0e0" fill-rule="nonzero" transform="matrix(0 -1.33333 -1.33333 0 1056.39723916 435.0395382)"/><path d="m-6.813-6.814c-3.765 0-6.814 3.051-6.814 6.813 0 3.764 3.049 6.814 6.814 6.814 3.763 0 6.813-3.05 6.813-6.814 0-3.762-3.05-6.813-6.813-6.813" fill="#e0e0e0" fill-rule="nonzero" transform="matrix(0 -1.33333 -1.33333 0 1105.89844874 448.6128376)"/><path d="m-6.813-6.814c-3.765 0-6.814 3.051-6.814 6.814 0 3.764 3.049 6.813 6.814 6.813 3.763 0 6.813-3.049 6.813-6.813 0-3.763-3.05-6.814-6.813-6.814" fill="#e0e0e0" fill-rule="nonzero" transform="matrix(0 -1.33333 -1.33333 0 736.87137131 117.4669988)"/><path d="m-6.813-6.814c-3.765 0-6.814 3.051-6.814 6.814s3.049 6.813 6.814 6.813c3.763 0 6.813-3.05 6.813-6.813s-3.05-6.814-6.813-6.814" fill="#e0e0e0" fill-rule="nonzero" transform="matrix(0 -1.33333 -1.33333 0 995.80672397 161.7202215)"/><path d="m-6.814-6.814c-3.764 0-6.814 3.051-6.814 6.814s3.05 6.814 6.814 6.814 6.814-3.051 6.814-6.814-3.05-6.814-6.814-6.814" fill="#e0e0e0" fill-rule="nonzero" transform="matrix(0 -1.33333 -1.33333 0 971.00011932 124.9736467)"/><path d="m0-61.884c.037-2.58-2.065-4.677-4.645-4.677h-90.419c-2.581 0-4.683 2.097-4.645 4.677.307 21.26 18.605 66.561 26.625 66.561h46.459c8.02 0 26.318-45.301 26.625-66.561" fill="#d38444" fill-rule="nonzero" transform="matrix(1.33333 0 0 1.33333 868.95370777 554.7325723)"/><g clip-path="url(#c)" transform="matrix(1.33333 0 0 1.33333 853.02974758 554.7325723)"><path d="m0-61.884c.037-2.58-2.064-4.677-4.645-4.677h-90.419c-2.581 0-4.682 2.097-4.645 4.677.307 21.26 18.605 66.561 26.625 66.561h46.459c8.02 0 26.318-45.301 26.625-66.561" fill="#e89449" fill-rule="nonzero"/></g><path d="m0 53.667c-26.691-8.616-44.36-23.771-49.146-47.725-.464-2.318 1.276-4.532 3.639-4.641 28.132-1.301 43.96 15.203 45.507 52.366" fill="#72c174" fill-rule="nonzero" transform="matrix(1.33333 0 0 1.33333 802.48054062 394.4263064)"/><path d="m0 54.181c28.105-7.854 46.102-23.239 49.527-49.036.221-1.663-1.01-3.147-2.685-3.256-28.967-1.889-45.271 14.545-46.842 52.292" fill="#72c174" fill-rule="nonzero" transform="matrix(1.33333 0 0 1.33333 802.48054062 393.7463081)"/><path d="m0 105.952c-24.756-33.088-35.037-67.437-29.042-103.202.333-1.983 2.77-2.75 4.171-1.308 26.506 27.279 33.888 62.492 24.871 104.51" fill="#6bb26b" fill-rule="nonzero" transform="matrix(1.33333 0 0 1.33333 802.48054062 324.7064807)"/><path d="m0 105.952c24.756-33.088 35.037-67.437 29.041-103.202-.332-1.983-2.769-2.75-4.17-1.308-26.507 27.279-33.888 62.492-24.871 104.51" fill="#6bb26b" fill-rule="nonzero" transform="matrix(1.33333 0 0 1.33333 801.83787556 324.7064807)"/><path d="m0 11.46h-65.353v-7.849c0-1.994 1.618-3.611 3.612-3.611h58.13c1.994 0 3.611 1.617 3.611 3.611z" fill="#cccbca" fill-rule="nonzero" transform="matrix(1.33333 0 0 1.33333 488.39732583 318.7598289)"/><path d="m0 9.549h-15.695c-1.182 0-2.141-.959-2.141-2.142v-5.266c0-1.183.959-2.141 2.141-2.141h15.695c1.183 0 2.142.958 2.142 2.141v5.266c0 1.183-.959 2.142-2.142 2.142" fill="#cccbca" fill-rule="nonzero" transform="matrix(1.33333 0 0 1.33333 572.88644794 321.3064892)"/><path d="m0 60.088h-90.783c-1.274 0-2.306-1.033-2.306-2.308v-55.472c0-1.275 1.032-2.308 2.306-2.308h90.783c1.274 0 2.307 1.033 2.307 2.308v55.472c0 1.275-1.033 2.308-2.307 2.308" fill="#c0edec" fill-rule="nonzero" transform="matrix(1.33333 0 0 1.33333 578.24776787 216.8934169)"/><path d="m0-20.132v20.132h13.305v-20.132" fill="#cccbca" fill-rule="nonzero" transform="matrix(1.33333 0 0 1.33333 509.26394033 334.0397907)"/><path d="m-11.615-11.614c-6.414 0-11.614 5.2-11.614 11.615 0 6.414 5.2 11.614 11.614 11.614 6.415 0 11.615-5.2 11.615-11.614 0-6.415-5.2-11.615-11.615-11.615" fill="#27464f" fill-rule="nonzero" transform="matrix(0 -1.33333 -1.33333 0 312.88709794 529.9859675)"/><path d="m-11.615-11.614c-6.414 0-11.614 5.2-11.614 11.615 0 6.414 5.2 11.614 11.614 11.614 6.415 0 11.615-5.2 11.615-11.614 0-6.415-5.2-11.615-11.615-11.615" fill="#27464f" fill-rule="nonzero" transform="matrix(0 -1.33333 -1.33333 0 200.55937876 529.9859675)"/><path d="m0 35.815-23.938 8.192-4.654-7.898 29.897-10.231v-34.07h10.995v34.07l29.896 10.231-4.653 7.898-23.939-8.192" fill="#27464f" fill-rule="nonzero" transform="matrix(1.33333 0 0 1.33333 247.96192692 484.9594134)"/><path d="m-5.668-5.669c-3.131 0-5.669 2.538-5.669 5.668 0 3.131 2.538 5.669 5.669 5.669 3.13 0 5.668-2.538 5.668-5.669 0-3.13-2.538-5.668-5.668-5.668" fill="#27464f" fill-rule="nonzero" transform="matrix(0 -1.33333 -1.33333 0 183.83275391 63.8271329)"/><path d="m-7.282 14.98h38.102" fill="none" stroke="#27464f" stroke-linecap="butt" stroke-linejoin="miter" transform="matrix(.82369927408 -1.04846937882 -1.04846937882 -.82369927408 167.13146233 113.2670093)"/><path d="m-30.82 14.98h38.102" fill="none" stroke="#27464f" stroke-linecap="butt" stroke-linejoin="miter" transform="matrix(-.82369927408 -1.04846937882 -1.04846937882 .82369927408 211.93935031 63.9071327)"/><g fill-rule="nonzero"><path d="m509.635 9.757h-585.232c-2.694 0-4.878-2.185-4.878-4.878 0-2.694 2.184-4.879 4.878-4.879h585.232c2.694 0 4.878 2.185 4.878 4.879 0 2.693-2.184 4.878-4.878 4.878z" fill="#e0e0e0" transform="matrix(1.33333 0 0 1.33333 188.72074169 560.9592234)"/><path d="m0 12.602v-22.175c0-1.496 1.213-2.71 2.71-2.71h17.633c1.57 0 2.843 1.274 2.843 2.844v34.324" fill="#cccbca" transform="matrix(1.33333 0 0 1.33333 356.45365569 319.2664943)"/><path d="m-1.109-5.032c8.084-5.095 17.087-3.173 23.934 0" fill="#fff" stroke="#000" stroke-width=".53" transform="matrix(1.20973430899 .56063593174 .56063593174 -1.20973430899 220.98732769 420.3062417)"/><path d="m0 26.018h-97.667c-3.222 0-5.833-2.612-5.833-5.834v-14.35c0-3.221 2.611-5.834 5.833-5.834h97.667c3.222 0 5.833 2.613 5.833 5.834v14.35c0 3.222-2.611 5.834-5.833 5.834" fill="#e89449" transform="matrix(1.33333 0 0 1.33333 321.83374224 439.3461941)"/><path d="m-11.615-11.614c-6.414 0-11.614 5.2-11.614 11.615 0 6.414 5.2 11.614 11.614 11.614 6.415 0 11.615-5.2 11.615-11.614 0-6.415-5.2-11.615-11.615-11.615" fill="#27464f" transform="matrix(0 -1.33333 -1.33333 0 256.72323835 529.9859675)"/><path d="m0-7.13c-1.785-1.076-7.535-.053-7.408 2.645l2.178 5.561z" fill="#d67369" transform="matrix(1.33333 0 0 1.33333 238.70995005 165.9602109)"/><path d="m0 33.103c33.306 17.085 47.125-7.769 44.863-37.434l-.604-12.776-.213-4.509-.489-10.339c-.568-12.014 3.172-23.234 9.86-32.164l-.144.075c-4.001-4.967-5.281-9.886-5.614-14.79-.091-1.334 1.487-2.1 2.517-1.246 4.248 3.525 8.819 6.599 11.865 7.086.569-.46 1.12-.94 1.71-1.376-1.213-2.909-1.763-5.805-1.959-8.696-.09-1.335 7.485 2.63 9.788 3.959 5.878-2.851 12.412-4.592 19.35-4.92 27.461-1.298 50.775 19.911 52.072 47.373l.865 18.293 2.591 54.824.5 10.6-98.405 69.395c-38.213 1.97-58.585-24.905-67.309-67.544-2.578-12.598 7.315-21.68 18.756-15.811" fill="#d67369" transform="matrix(1.33333 0 0 1.33333 146.40618081 270.1732837)"/><path d="m0 15.873c32.598 16.101 46.123-8.555 43.883-37.928l-.604-12.776-.213-4.509-.488-10.339c-.568-12.013 3.172-23.233 9.859-32.164l-.144.074c-3.99-4.953-5.274-9.86-5.611-14.75-.093-1.352 1.471-2.15 2.514-1.285 4.248 3.526 8.82 6.6 11.865 7.087.006-.005.011-.01.017-.014.972-.788 1.365-2.1.982-3.292-.724-2.249-1.091-4.491-1.245-6.73-.093-1.353 1.472-2.147 2.515-1.282 2.433 2.019 4.968 3.876 7.27 5.204 5.878-2.851 12.412-4.592 19.35-4.92h.001c27.461-1.298 50.774 19.912 52.072 47.373l.864 18.294 2.591 54.823.501 10.601c1.068 62.055-19.279 89.582-93.375 80.792-38.065 2.286-63.19-35.075-72.309-78.794-2.355-11.289 9.365-20.572 19.705-15.465" fill="#ee7f70" transform="matrix(1.33333 0 0 1.33333 154.2634945 292.3465616)"/><path d="m-3.5-3.67c-2.233.001-4.045 1.569-4.045 3.504s1.811 3.503 4.045 3.504c2.234-.001 4.045-1.569 4.046-3.504-.001-1.935-1.812-3.504-4.046-3.504" fill="#27464f" transform="matrix(-.06297704256 -1.33184200372 -1.33184200372 .06297704256 317.80041899 201.0134566)"/><path d="m-3.499-3.668c-2.234 0-4.045 1.567-4.046 3.503 0 1.934 1.811 3.504 4.046 3.503 2.233 0 4.044-1.567 4.045-3.503 0-1.934-1.812-3.504-4.045-3.503" fill="#27464f" transform="matrix(-.06279624301 -1.3318500037 -1.3318500037 .06279624301 298.51380054 202.6267859)"/><path d="m0 9.114 12.008-3.816c.867-.276 1.346-1.202 1.07-2.068l-.686-2.159c-.275-.866-1.201-1.346-2.067-1.07l-12.009 3.816c-.866.276-1.345 1.2-1.069 2.067l.686 2.16c.275.866 1.201 1.345 2.067 1.07" fill="#27464f" transform="matrix(1.33333 0 0 1.33333 282.01250846 184.8268304)"/><path d="m0 8.099-12.314-2.666c-.889-.192-1.453-1.069-1.261-1.957l.48-2.215c.193-.889 1.069-1.453 1.957-1.261l12.315 2.667c.888.193 1.452 1.069 1.26 1.957l-.48 2.215c-.192.889-1.068 1.452-1.957 1.26" fill="#27464f" transform="matrix(1.33333 0 0 1.33333 329.14039064 182.6935024)"/><path d="m0 22.752c-16.7 3.208-31.908-10.997-31.812-25.96z" fill="#d67369" transform="matrix(1.33333 0 0 1.33333 346.37101423 247.5866735)"/><path d="m0-24.51c-9.1 3.341-20.455.528-25.424-5.594-2.442-2.412-5.821-4.392-8.793-3.117-4.037 1.734-5.338 6.303-3.953 12.002 6.172 20.224 34.741 31.205 46.901 22.938 7.307-3.138 10.782-11.385 7.761-18.42-3.021-7.036-11.394-10.195-18.701-7.057" fill="#f2c666" transform="matrix(1.33333 0 0 1.33333 354.89365959 272.5199445)"/><path d="m5.016-4.784c2.773 0 5.021 2.248 5.021 5.021-.001 2.773-2.248 5.022-5.021 5.022-2.773-.001-5.022-2.249-5.022-5.022s2.248-5.021 5.022-5.021" fill="#d67369" transform="matrix(.06293424266 1.33184333705 1.33184333705 -.06293424266 236.78995485 198.1201305)"/><path d="m2.508-2.393c1.388 0 2.511 1.124 2.511 2.511-.001 1.387-1.125 2.511-2.511 2.511-1.388-.001-2.511-1.125-2.511-2.512s1.124-2.51 2.511-2.51" fill="#d67369" transform="matrix(.06266317667 1.33185667035 1.33185667035 -.06266317667 248.70859172 211.520097)"/><path d="m3.671-3.502c2.029 0 3.676 1.645 3.676 3.675-.001 2.031-1.645 3.675-3.676 3.677-2.03 0-3.676-1.646-3.676-3.676s1.645-3.675 3.676-3.676" fill="#d67369" transform="matrix(.06311837554 1.33183533707 1.33183533707 -.06311837554 236.30862272 216.8267504)"/><path d="m-5.866-6.543c-5.926 3.637-7.647 10.827-1.071 16.611.455.401 1.151.022 1.071-.578-.669-4.938-.213-10.075.974-15.339.128-.564-.481-.996-.974-.694" fill="#fff" transform="matrix(.49740808981 -1.23707424064 -1.23707424064 -.49740808981 350.48567061 255.3466541)"/><path d="m0-92.893c.274 17.625-.193 34.214-2.494 48.237-7.721 25.571-26.622 51.734-102.479 39.494 46.321-6.638 87.618-31.08 90.982-87.965.213-3.602 3.054-6.488 6.658-6.658 3.949-.186 7.271 2.94 7.333 6.892" fill="#d67369" transform="matrix(1.33333 0 0 1.33333 348.14700979 444.7728472)"/><path d="m.733-.599c-.434.332-.447 1.207-.166 1.319.069.028.146-.022.166-.094.068-.275.234-.459.45-.604z" fill="url(#a)" transform="matrix(-39.513101217 -120.903831073 120.903831073 -39.513101217 322.29774108 447.6928399)"/><path d="m0 45.094c8.131 5.502 17.479 9 27.055 10.932 9.596 1.933 19.456 2.365 29.201 1.677 9.75-.685 19.425-2.486 28.739-5.408 4.651-1.471 9.222-3.207 13.614-5.311 4.389-2.101 8.633-4.524 12.495-7.443 3.84-2.916 7.376-6.33 9.778-10.426 1.209-2.034 2.069-4.251 2.445-6.539.173-1.155.274-2.291.094-3.38-.039-.557-.229-1.084-.356-1.623-.214-.514-.38-1.047-.672-1.527-2.106-3.978-6.831-6.372-11.308-6.144-4.934.296-9.911.275-14.857-.136-9.871-1.019-19.593-3.586-28.542-7.805-4.477-2.092-8.817-4.467-12.936-7.171-4.111-2.717-8.079-5.634-11.86-8.77-.043-.035-.049-.098-.014-.141.034-.041.095-.047.137-.016 7.913 5.785 16.254 11.026 25.24 14.825 4.49 1.883 9.071 3.565 13.798 4.709 4.714 1.176 9.515 1.97 14.351 2.377 4.841.375 9.695.371 14.559.053 5.305-.236 10.659 2.53 13.185 7.299 1.302 2.337 1.532 5.267 1.04 7.763-.454 2.555-1.44 4.973-2.765 7.139-2.641 4.363-6.372 7.841-10.359 10.795-4.004 2.961-8.355 5.384-12.835 7.473-4.484 2.091-9.13 3.802-13.849 5.241-9.447 2.858-19.222 4.573-29.058 5.164-9.832.561-19.757-.011-29.388-2.087-9.611-2.075-18.964-5.724-27.045-11.355-.046-.031-.057-.094-.025-.14.031-.045.093-.055.138-.025" fill="#d67369" transform="matrix(1.33333 0 0 1.33333 221.00332765 322.5464861)"/><path d="m0 78.671h-31.274c-14.97 0-27.105-12.136-27.105-27.105v-24.46c0-14.97 12.135-27.106 27.105-27.106h31.274c14.97 0 27.105 12.136 27.105 27.106v24.46c0 14.969-12.135 27.105-27.105 27.105" fill="#cc7f40" transform="matrix(1.33333 0 0 1.33333 231.93796698 297.6932149)"/></g><g clip-path="url(#d)" transform="matrix(1.33333 0 0 1.33333 221.32599351 291.8265629)"><path d="m0 78.671h-31.274c-14.97 0-27.106-12.135-27.106-27.105v-24.46c0-14.97 12.136-27.106 27.106-27.106h31.274c14.97 0 27.105 12.136 27.105 27.106v24.46c0 14.97-12.135 27.105-27.105 27.105" fill="#e89449" fill-rule="nonzero"/></g><path d="m0 75.883c-4.362 0-7.898-3.536-7.898-7.898v-60.087c0-4.363 3.536-7.898 7.898-7.898s7.898 3.535 7.898 7.898v60.087c0 4.362-3.536 7.898-7.898 7.898" fill="#27464f" fill-rule="nonzero" transform="matrix(1.33333 0 0 1.33333 205.92736534 353.0397432)"/><path d="m-148.05-17.964h148.05c0 9.922-8.043 17.964-17.964 17.964h-112.122c-9.921 0-17.964-8.042-17.964-17.964" fill="#27464f" fill-rule="nonzero" transform="matrix(-1.33333 0 0 1.33333 495.21197546 357.9863975)"/><path d="m-27.566-27.566c-15.223 0-27.565 12.342-27.565 27.566 0 15.225 12.342 27.566 27.565 27.566 15.225 0 27.565-12.341 27.565-27.566 0-15.224-12.34-27.566-27.565-27.566" fill="#c0edec" fill-rule="nonzero" transform="matrix(0 -1.33333 -1.33333 0 460.11072988 78.9470951)"/><path d="m0-25.366v13.721l15.486 11.645" fill="none" stroke="#27464f" stroke-width="2" transform="matrix(1.33333 0 0 1.33333 460.10939655 131.2269644)"/><path d="m0-3.38c3.443-4.478 9.247-6.864 15.155-5.664 8.265 1.679 13.604 9.74 11.925 18.005l-1.373 6.757-48.153-9.784 5.086-25.032 24.207 7.707 3.841 2.106" fill="#27464f" fill-rule="nonzero" transform="matrix(1.33333 0 0 1.33333 341.25369369 513.5726752)"/><path d="m0 13.34-39.06-7.935c-2.151-.437-3.542-2.536-3.104-4.687l.264-1.301 48.152 9.782c-.583 2.87-3.382 4.724-6.252 4.141" fill="#243e44" fill-rule="nonzero" transform="matrix(1.33333 0 0 1.33333 367.17762888 521.7726547)"/><path d="m0-7.627c11.673-5.602 21.871 2.868 22.218 13.229-3.704-9.245-10.894-13.937-22.218-13.229" fill="#243e44" fill-rule="nonzero" transform="matrix(1.33333 0 0 1.33333 348.01367679 513.519342)"/><path d="m0 22.471-17.294-2.855c-5.478-.905-9.186-6.08-8.282-11.557.882-5.341 5.926-8.955 11.266-8.073l17.603 2.906c5.393.89 9.043 5.984 8.153 11.377-.896 5.426-6.02 9.098-11.446 8.202" fill="#fff" fill-rule="nonzero" transform="matrix(1.33333 0 0 1.33333 343.19235551 476.1727687)"/><path d="m0-53.155c2.014-3.902 6.81-5.434 10.712-3.42l26.984 13.924 4.685 2.417c6.067 3.131 9.533 9.718 8.676 16.491l-2.97 23.489c-.421 3.334-3.476 5.688-6.807 5.247l-2.791-.37c-3.829-.507-6.521-4.021-6.014-7.849l2.22-16.768c.47-3.543-1.336-7-4.512-8.639l-26.763-13.809c-3.903-2.015-5.434-6.811-3.42-10.713" fill="#f2c666" fill-rule="nonzero" transform="matrix(1.33333 0 0 1.33333 282.13384149 484.98608)"/><g clip-path="url(#e)" transform="matrix(1.33333 0 0 1.33333 331.32838517 417.0795831)"><path d="m0 56.49 2.934-26.712c.482-4.392-1.788-8.627-5.711-10.657l-36.952-19.121-.498 8.87 34.841 16.965-1.479 26.933z" fill="#d3aa59" fill-rule="nonzero"/></g></svg>