<svg clip-rule="evenodd" fill-rule="evenodd" stroke-miterlimit="10" viewBox="0 0 1091 729" xmlns="http://www.w3.org/2000/svg" xmlns:xlink="http://www.w3.org/1999/xlink"><linearGradient id="a" gradientTransform="matrix(.530916 -.847425 -.847425 -.530916 .351895 .635717)" gradientUnits="userSpaceOnUse" x1="0" x2="1" y1="0" y2="0"><stop offset="0" stop-color="#d67369"/><stop offset="1" stop-color="#ee7f70"/></linearGradient><linearGradient id="b"><stop offset="0" stop-color="#f29538"/><stop offset="1" stop-color="#eda74c"/></linearGradient><linearGradient id="c" gradientTransform="matrix(1 0 0 -1 0 -.156328)" gradientUnits="userSpaceOnUse" x1="0" x2="1" xlink:href="#b" y1="0" y2="0"/><linearGradient id="d" gradientTransform="matrix(.933511 .35855 .35855 -.933511 .055922 -.301564)" gradientUnits="userSpaceOnUse" x1="0" x2="1" xlink:href="#b" y1="0" y2="0"/><linearGradient id="e" gradientTransform="matrix(1 0 0 -1 0 -.045752)" gradientUnits="userSpaceOnUse" x1="0" x2="1" xlink:href="#b" y1="0" y2="0"/><clipPath id="f"><path clip-rule="nonzero" d="m-25.644-1.67c-2.688 3.475-2.051 8.47 1.422 11.155l23.816 18.433c2.826 2.188 3.975 5.915 2.871 9.314l-5.223 16.087c-1.191 3.674.819 7.617 4.493 8.811l2.678.869c3.195 1.037 6.625-.725 7.645-3.926l7.178-22.562c2.07-6.506-.145-13.612-5.543-17.79l-4.169-3.227-24.013-18.586c-1.448-1.121-3.161-1.663-4.861-1.663-2.376 0-4.728 1.061-6.294 3.085z"/></clipPath><clipPath id="g"><path clip-rule="nonzero" d="m11.643-68.705h-88.539c-4.753 0-8.821 3.539-9.355 8.262-3.516 31.1 3.942 52.858 19.01 68.128l34.615.577 34.614-.577c15.069-15.27 22.527-37.028 19.011-68.128-.533-4.723-4.602-8.262-9.356-8.262z"/></clipPath><clipPath id="h"><path clip-rule="nonzero" d="m-45.821-2.644c-1.362 4.174.918 8.663 5.092 10.026l28.629 9.347c3.397 1.109 5.733 4.232 5.838 7.805l.492 16.905c.114 3.862 3.333 6.899 7.194 6.786l2.813-.082c3.36-.098 5.998-2.91 5.879-6.268l-.828-23.662c-.24-6.823-4.715-12.77-11.206-14.889l-5.01-1.635-28.867-9.425c-.82-.267-1.651-.394-2.468-.394-3.348 0-6.463 2.13-7.558 5.486z"/></clipPath><clipPath id="i"><path clip-rule="nonzero" d="m836.891 4901c-1.269 0-2.297 1.03-2.297 2.3v117.88c0 1.26 1.028 2.29 2.297 2.29h138.91c1.27 0 2.297-1.03 2.297-2.29v-117.88c0-1.27-1.027-2.3-2.297-2.3z"/></clipPath><clipPath id="j"><path clip-rule="nonzero" d="m-12.192-37.513-3.505 6.75h9.496l1.511-2.909c.985-1.897.245-4.235-1.652-5.219l-.565-.294c-.577-.3-1.195-.442-1.804-.442-1.416 0-2.783.77-3.481 2.114z"/></clipPath><clipPath id="k"><path clip-rule="nonzero" d="m-144.39-163.246c-1.269 0-2.297 1.028-2.297 2.297v117.88c0 1.267 1.028 2.297 2.297 2.297h138.91c1.27 0 2.297-1.03 2.297-2.297v-117.88c0-1.269-1.027-2.297-2.297-2.297z"/></clipPath><clipPath id="l"><path clip-rule="nonzero" d="m-12.634-46.38v5.607h2.944c1.27 0 2.297-1.028 2.297-2.296v-3.311z"/></clipPath><clipPath id="m"><path clip-rule="nonzero" d="m836.891 4901c-1.269 0-2.297 1.03-2.297 2.3v117.88c0 1.26 1.028 2.29 2.297 2.29h138.91c1.27 0 2.297-1.03 2.297-2.29v-117.88c0-1.27-1.027-2.3-2.297-2.3z"/></clipPath><clipPath id="n"><path clip-rule="nonzero" d="m836.891 4901c-1.269 0-2.297 1.03-2.297 2.3v117.88c0 1.26 1.028 2.29 2.297 2.29h138.91c1.27 0 2.297-1.03 2.297-2.29v-117.88c0-1.27-1.027-2.3-2.297-2.3z"/></clipPath><clipPath id="o"><path clip-rule="nonzero" d="m836.891 4901c-1.269 0-2.297 1.03-2.297 2.3v117.88c0 1.26 1.028 2.29 2.297 2.29h138.91c1.27 0 2.297-1.03 2.297-2.29v-117.88c0-1.27-1.027-2.3-2.297-2.3z"/></clipPath><clipPath id="p"><path clip-rule="nonzero" d="m836.891 4901c-1.269 0-2.297 1.03-2.297 2.3v117.88c0 1.26 1.028 2.29 2.297 2.29h138.91c1.27 0 2.297-1.03 2.297-2.29v-117.88c0-1.27-1.027-2.3-2.297-2.3z"/></clipPath><g transform="matrix(1.33333 0 0 1.33333 -1068.62 -6434.75)"><path d="m0-4.836c4.198-3.779 10.338-5.074 15.931-2.823 7.823 3.149 11.612 12.045 8.464 19.868l-2.575 6.395-45.582-18.348 9.539-23.696 22.409 11.966 3.396 2.768" fill="#27464f" fill-rule="nonzero" transform="translate(1142.67 5269.87)"/><path d="m0 20.193-36.974-14.883c-2.037-.82-3.024-3.136-2.204-5.173l.495-1.231 45.582 18.349c-1.093 2.716-4.182 4.032-6.899 2.938" fill="#243e44" fill-rule="nonzero" transform="translate(1157.64 5270.85)"/><path d="m0-13.643c12.495-3.394 20.989 6.785 19.452 17.037-1.967-9.764-8.187-15.681-19.452-17.037" fill="#243e44" fill-rule="nonzero" transform="translate(1148.43 5275.38)"/><path d="m0 24.678-16.49-5.942c-5.223-1.883-7.932-7.644-6.05-12.868 1.835-5.091 7.451-7.732 12.543-5.897l16.785 6.049c5.142 1.853 7.808 7.524 5.955 12.667-1.865 5.173-7.57 7.855-12.743 5.991" fill="#f2f2f2" fill-rule="nonzero" transform="translate(1144.5 5238.46)"/><path d="m0-61.596c2.688-3.473 7.682-4.109 11.155-1.422l24.013 18.585 4.169 3.226c5.399 4.178 7.613 11.285 5.543 17.791l-7.178 22.561c-1.019 3.202-4.449 4.964-7.645 3.927l-2.678-.87c-3.673-1.193-5.684-5.137-4.492-8.81l5.223-16.087c1.104-3.399-.045-7.126-2.872-9.313l-23.816-18.433c-3.473-2.687-4.11-7.681-1.422-11.155" fill="#f2c666" fill-rule="nonzero" transform="translate(1111.94 5248.12)"/><g clip-path="url(#f)" transform="translate(1137.59 5188.19)"><path d="m0 62.755 7.727-25.737c1.27-4.232-.195-8.808-3.685-11.516l-32.874-25.502-2.097 8.634 31.188 22.998-6.336 26.22z" fill="#d3aa59" fill-rule="nonzero"/></g><path d="m0-15.708h63.02l-27.374 15.708h-34.964" fill="#cccbca" fill-rule="nonzero" transform="translate(1174.35 5147.77)"/><path d="m0 27.809v-12.101l26.978-15.708c5.158 9.27 6.876 18.538 5.158 27.809" fill="#cccbca" fill-rule="nonzero" transform="translate(1210.39 5132.06)"/><path d="m0 15.299h-38.927c-.922 0-1.669-.748-1.669-1.669v-11.961c0-.922.747-1.669 1.669-1.669h38.927c.921 0 1.668.747 1.668 1.669v11.961c0 .921-.747 1.669-1.668 1.669" fill="#cccbca" fill-rule="nonzero" transform="translate(842.059 5176.05)"/><path d="m0 15.298h-38.927c-.922 0-1.669-.747-1.669-1.669v-11.961c0-.921.747-1.668 1.669-1.668h38.927c.921 0 1.668.747 1.668 1.668v11.961c0 .922-.747 1.669-1.668 1.669" fill="#cccbca" fill-rule="nonzero" transform="translate(863.191 5151.83)"/><path d="m0 15.298h-38.927c-.922 0-1.669-.747-1.669-1.668v-11.961c0-.922.747-1.669 1.669-1.669h38.927c.921 0 1.668.747 1.668 1.669v11.961c0 .921-.747 1.668-1.668 1.668" fill="#cccbca" fill-rule="nonzero" transform="translate(1190.43 4917.75)"/><path d="m0 15.299h-38.927c-.922 0-1.669-.747-1.669-1.669v-11.961c0-.922.747-1.669 1.669-1.669h38.927c.922 0 1.669.747 1.669 1.669v11.961c0 .922-.747 1.669-1.669 1.669" fill="#cccbca" fill-rule="nonzero" transform="translate(1617.3 5145.72)"/><path d="m0 15.299h-38.928c-.922 0-1.669-.747-1.669-1.669v-11.961c0-.922.747-1.669 1.669-1.669h38.928c.921 0 1.668.747 1.668 1.669v11.961c0 .922-.747 1.669-1.668 1.669" fill="#cccbca" fill-rule="nonzero" transform="translate(1596.17 5114.33)"/><path d="m-418.955-14.877h418.955c0 8.217-6.662 14.877-14.878 14.877h-389.199c-8.217 0-14.878-6.66-14.878-14.877" fill="#3e6970" fill-rule="nonzero" transform="matrix(-1 0 0 1 936.042 5174.75)"/><path d="m0-14.877h74.983c0 8.217-6.661 14.877-14.878 14.877h-83.314" fill="#27464f" fill-rule="nonzero" transform="translate(1355 5174.75)"/><path d="m959.252 2420.15h17.258v188.054h-17.258z" fill="#27464f" transform="matrix(-1 0 0 1 1935.76 2754.6)"/><path d="m1033.44 2420.15h17.258v188.054h-17.258z" fill="#27464f" transform="matrix(-1 0 0 1 2084.14 2754.6)"/><path d="m1390.11 2420.15h17.258v188.054h-17.258z" fill="#27464f" transform="matrix(-1 0 0 1 2797.47 2754.6)"/><path d="m1227.05 5174.75h104.738v62.685h-104.738z" fill="#3e6970" stroke="#27464f"/><path d="m1227.05 5237.43h104.738v62.685h-104.738z" fill="#3e6970" stroke="#27464f"/><path d="m1227.05 5300.12h104.738v62.685h-104.738z" fill="#3e6970" stroke="#27464f"/><path d="m-6.546-6.546c-3.615 0-6.546 2.931-6.546 6.546s2.931 6.546 6.546 6.546 6.546-2.931 6.546-6.546-2.931-6.546-6.546-6.546" fill="#27464f" fill-rule="nonzero" transform="matrix(0 -1 -1 0 1279.42 5199.55)"/><path d="m-6.547-6.546c-3.615 0-6.546 2.931-6.546 6.546s2.931 6.547 6.546 6.547 6.547-2.932 6.547-6.547-2.932-6.546-6.547-6.546" fill="#27464f" fill-rule="nonzero" transform="matrix(0 -1 -1 0 1279.42 5324.91)"/><path d="m-6.547-6.546c-3.615 0-6.546 2.931-6.546 6.546s2.931 6.547 6.546 6.547 6.547-2.932 6.547-6.547-2.932-6.546-6.547-6.546" fill="#27464f" fill-rule="nonzero" transform="matrix(0 -1 -1 0 1279.42 5262.23)"/><path d="m532.716 10.198h-611.737c-2.815 0-5.099-2.283-5.099-5.1 0-2.815 2.284-5.098 5.099-5.098h611.737c2.816 0 5.099 2.283 5.099 5.098 0 2.817-2.283 5.1-5.099 5.1z" fill="#27464f" fill-rule="nonzero" transform="translate(970.973 5362.23)"/><path d="m0 144.978h-163.426c-2.186 0-3.958-1.772-3.958-3.958v-137.063c0-2.185 1.772-3.957 3.958-3.957h163.426c2.186 0 3.958 1.772 3.958 3.957v137.063c0 2.186-1.772 3.958-3.958 3.958z" style="fill:#27464f;fill-rule:nonzero;stroke:#000;stroke-width:.53;stroke-linecap:round;stroke-linejoin:round" transform="translate(989.979 4890.48)"/><path d="m0 122.475h-138.91c-1.269 0-2.298-1.029-2.298-2.298v-117.879c0-1.269 1.029-2.298 2.298-2.298h138.91c1.269 0 2.298 1.029 2.298 2.298v117.879c0 1.269-1.029 2.298-2.298 2.298z" fill="#3e6970" fill-rule="nonzero" stroke="#27464f" transform="translate(976.174 4901)"/><path d="m0 58.574 57.216-57.217c2.904-2.903 7.612-2.903 10.516 0l58.763 58.763" fill="none" stroke="#27464f" transform="translate(844.863 4831.91)"/><path d="m-6.032-6.031c-3.33 0-6.03 2.7-6.03 6.031 0 3.332 2.7 6.032 6.03 6.032 3.331 0 6.032-2.7 6.032-6.032 0-3.331-2.701-6.031-6.032-6.031" fill="#27464f" fill-rule="nonzero" transform="matrix(0 -1 -1 0 906.347 4830.64)"/><path d="m1050.6 2490.07h60.701v10.414h-60.701z" fill="#d38444" transform="matrix(-1 0 0 1 2161.9 2792.39)"/><path d="m0 140.266-27.847-130.516h13.655c5.492 0 9.944-4.452 9.944-9.944s-4.452-9.944-9.944-9.944h-90.206c-5.492 0-9.945 4.452-9.945 9.944s4.453 9.944 9.945 9.944h15.602l-27.861 130.581c-.891 4.179 1.773 8.289 5.952 9.181s8.289-1.773 9.181-5.952l28.549-133.81h29.307l28.536 133.745c.891 4.178 5.002 6.843 9.18 5.952 4.179-.892 6.844-5.002 5.952-9.181" fill="#d38444" fill-rule="nonzero" transform="translate(1139.35 5212.61)"/><path d="m0 14.283c0-7.889 6.395-14.283 14.282-14.283 7.888 0 14.282 6.394 14.282 14.283" fill="#cccbca" fill-rule="nonzero" transform="translate(1282.2 5145.59)"/><path d="m0-32.125v32.125h42.929v-29.158" fill="#cccbca" fill-rule="nonzero" transform="translate(1327.03 5159.87)"/><path d="m0 33.103c33.306 17.085 47.125-7.769 44.863-37.435l-.604-12.776-.213-4.509-.489-10.339c-.568-12.013 3.172-23.233 9.86-32.163l-.144.074c-4.001-4.966-5.281-9.886-5.614-14.789-.091-1.335 1.487-2.1 2.517-1.246 4.248 3.525 8.819 6.599 11.865 7.086.569-.461 1.12-.94 1.71-1.376-1.213-2.909-1.763-5.805-1.959-8.696-.09-1.335 7.485 2.63 9.788 3.959 5.878-2.851 12.412-4.593 19.35-4.92 27.461-1.298 50.775 19.911 52.072 47.372l.865 18.294 2.591 54.824.5 10.6-98.405 69.394c-38.213 1.971-58.585-24.904-67.309-67.543-2.578-12.598 7.315-21.68 18.756-15.811" fill="#d67369" fill-rule="nonzero" transform="translate(1006.92 5079.94)"/><path d="m0 15.873c32.598 16.101 46.123-8.555 43.883-37.928l-.604-12.776-.213-4.509-.488-10.339c-.568-12.013 3.172-23.234 9.859-32.164l-.144.074c-3.99-4.954-5.274-9.86-5.611-14.75-.093-1.352 1.471-2.15 2.514-1.285 4.248 3.525 8.82 6.599 11.865 7.087.006-.005.011-.01.017-.014.972-.788 1.365-2.101.982-3.292-.724-2.249-1.09-4.492-1.245-6.73-.093-1.353 1.472-2.147 2.515-1.282 2.433 2.018 4.968 3.875 7.27 5.204 5.878-2.851 12.412-4.592 19.35-4.92h.001c27.461-1.298 50.774 19.912 52.072 47.373l.864 18.294 2.591 54.823.501 10.6c1.068 62.056-19.279 89.583-93.375 80.792-38.065 2.286-63.19-35.074-72.309-78.793-2.355-11.289 9.365-20.572 19.705-15.465" fill="#ee7f70" fill-rule="nonzero" transform="translate(1012.81 5096.57)"/><path d="m-3.5-3.669c-2.234.001-4.045 1.569-4.046 3.504.001 1.935 1.811 3.503 4.046 3.504 2.233-.001 4.045-1.569 4.045-3.504s-1.812-3.504-4.045-3.504" fill="#27464f" fill-rule="nonzero" transform="matrix(-.0472329 -.998884 -.998884 .0472329 1135.46 5028.06)"/><path d="m-3.499-3.669c-2.233 0-4.045 1.567-4.045 3.504-.001 1.934 1.811 3.503 4.045 3.502 2.233 0 4.044-1.567 4.045-3.504 0-1.934-1.812-3.503-4.045-3.502" fill="#27464f" fill-rule="nonzero" transform="matrix(-.0472397 -.998884 -.998884 .0472397 1120.99 5029.28)"/><path d="m0 9.113 12.008-3.815c.867-.276 1.346-1.202 1.07-2.068l-.686-2.16c-.275-.866-1.201-1.345-2.067-1.069l-12.009 3.815c-.866.276-1.345 1.201-1.069 2.068l.686 2.16c.275.866 1.201 1.344 2.067 1.069" fill="#27464f" fill-rule="nonzero" transform="translate(1108.62 5015.93)"/><path d="m0 8.099-12.314-2.667c-.889-.192-1.453-1.068-1.261-1.957l.48-2.215c.193-.888 1.069-1.452 1.957-1.26l12.315 2.667c.888.193 1.452 1.069 1.26 1.957l-.48 2.214c-.192.889-1.068 1.453-1.957 1.261" fill="#27464f" fill-rule="nonzero" transform="translate(1143.97 5014.32)"/><path d="m0 22.751c-16.7 3.208-31.908-10.997-31.812-25.959z" fill="#d67369" fill-rule="nonzero" transform="translate(1156.89 5062.99)"/><path d="m0-24.509c-9.1 3.341-20.455.528-25.424-5.595-2.442-2.411-5.821-4.392-8.793-3.116-4.037 1.734-5.338 6.303-3.953 12.001 6.172 20.225 34.741 31.206 46.901 22.939 7.307-3.139 10.782-11.385 7.761-18.42-3.021-7.036-11.394-10.195-18.701-7.057" fill="#f2c666" fill-rule="nonzero" transform="translate(1163.28 5081.7)"/><path d="m5.015-4.784c2.774 0 5.021 2.247 5.022 5.021 0 2.773-2.247 5.021-5.022 5.022-2.772 0-5.02-2.248-5.021-5.022 0-2.773 2.247-5.02 5.021-5.021" fill="#d67369" fill-rule="nonzero" transform="matrix(.0473002 .998881 .998881 -.0473002 1074.7 5025.9)"/><path d="m2.508-2.393c1.386 0 2.51 1.124 2.511 2.511-.001 1.386-1.125 2.51-2.511 2.511-1.387-.001-2.51-1.125-2.511-2.511 0-1.387 1.124-2.51 2.511-2.511" fill="#d67369" fill-rule="nonzero" transform="matrix(.0471962 .998886 .998886 -.0471962 1083.64 5035.94)"/><path d="m3.671-3.502c2.03 0 3.675 1.645 3.675 3.676 0 2.03-1.645 3.674-3.675 3.675-2.03 0-3.675-1.646-3.676-3.675 0-2.031 1.646-3.676 3.676-3.676" fill="#d67369" fill-rule="nonzero" transform="matrix(.0472032 .998885 .998885 -.0472032 1074.34 5039.93)"/><path d="m-5.866-6.543c-5.927 3.637-7.647 10.827-1.07 16.611.454.4 1.151.022 1.07-.579-.669-4.938-.213-10.074.974-15.339.127-.564-.482-.995-.974-.693" fill="#fff" fill-rule="nonzero" transform="matrix(.373003 -.92783 -.92783 -.373003 1159.97 5068.82)"/><path d="m.733-.599c-.434.332-.447 1.207-.166 1.319.069.028.146-.022.166-.094.068-.275.234-.459.45-.604z" fill="url(#a)" fill-rule="nonzero" transform="matrix(-29.6354 -90.6779 90.6779 -29.6354 1138.84 5213.07)"/><path d="m0 45.096c8.131 5.502 17.479 9 27.055 10.932 9.596 1.932 19.456 2.365 29.201 1.676 9.75-.685 19.425-2.486 28.739-5.407 4.651-1.472 9.223-3.208 13.614-5.311 4.388-2.101 8.633-4.524 12.495-7.444 3.84-2.916 7.376-6.33 9.778-10.425 1.209-2.034 2.069-4.252 2.445-6.54.173-1.154.274-2.291.094-3.379-.039-.557-.229-1.085-.356-1.624-.214-.514-.379-1.046-.672-1.526-2.106-3.978-6.831-6.372-11.308-6.144-4.934.296-9.911.275-14.857-.137-9.871-1.018-19.593-3.585-28.542-7.805-4.477-2.091-8.817-4.466-12.936-7.17-4.111-2.717-8.079-5.634-11.86-8.77-.043-.035-.049-.099-.014-.141.034-.041.095-.048.137-.016 7.913 5.785 16.254 11.025 25.24 14.824 4.49 1.884 9.071 3.566 13.798 4.71 4.714 1.175 9.515 1.97 14.351 2.376 4.841.375 9.696.373 14.559.054 5.305-.236 10.659 2.53 13.185 7.299 1.302 2.336 1.532 5.267 1.04 7.763-.454 2.555-1.44 4.972-2.765 7.138-2.641 4.363-6.372 7.842-10.359 10.796-4.004 2.961-8.355 5.383-12.835 7.473-4.484 2.091-9.13 3.801-13.849 5.24-9.447 2.858-19.222 4.574-29.058 5.164-9.832.561-19.757-.011-29.388-2.087-9.611-2.075-18.963-5.723-27.045-11.354-.046-.031-.057-.094-.025-.139.031-.045.093-.056.138-.026" fill="#d67369" fill-rule="nonzero" transform="translate(1062.86 5119.21)"/><path d="m1331.79 5174.75h58.32v188.054h-58.32z" fill="#27464f"/><path d="m-15.275-15.275c-8.437 0-15.273 6.839-15.273 15.274 0 8.437 6.836 15.276 15.273 15.276 8.436 0 15.274-6.839 15.274-15.276 0-8.435-6.838-15.274-15.274-15.274" fill="#f2c666" fill-rule="nonzero" transform="matrix(0 -1 -1 0 1480.76 5159.48)"/><path d="m-15.275-15.275c-8.437 0-15.273 6.839-15.273 15.274 0 8.437 6.836 15.276 15.273 15.276 8.436 0 15.274-6.839 15.274-15.276 0-8.435-6.838-15.274-15.274-15.274" fill="#f2c666" fill-rule="nonzero" transform="matrix(0 -1 -1 0 1414.71 5196.08)"/><path d="m0-60.443c-.534-4.724-4.603-8.262-9.356-8.262h-88.54c-4.752 0-8.822 3.538-9.355 8.262-3.515 31.101 3.941 52.856 19.01 68.128l34.615.577 34.615-.577c15.07-15.272 22.526-37.027 19.011-68.128" fill="#d38444" fill-rule="nonzero" transform="translate(1486.98 5354.54)"/><g clip-path="url(#g)" transform="translate(1465.98 5354.54)"><path d="m0-60.443c-.534-4.724-4.603-8.262-9.356-8.262h-88.54c-4.752 0-8.822 3.538-9.355 8.262-3.515 31.101 3.941 52.856 19.01 68.128l34.615.577 34.615-.577c15.07-15.272 22.526-37.027 19.011-68.128" fill="#e89449" fill-rule="nonzero"/></g><path d="m-26.23-29.799c20.343 3.033 40.143 2.626 59.592 0" fill="none" stroke="#6bb26b" stroke-width="2" transform="matrix(.11379 .993505 .993505 -.11379 1450.5 5249.3)"/><path d="m-66.676-49.09c30.887-13.55 66.443-8.414 102.818 0" fill="none" stroke="#6bb26b" stroke-width="2" transform="matrix(-.29697 .954887 .954887 .29697 1499.16 5265.9)"/><path d="m0 61.968c-1.979-28.841-15.602-49.203-40.867-61.086-1.874-.882-4.005.563-3.879 2.63.508 8.338 1.888 15.661 4.021 22.107l3.53-2.377c1.313-.884 3.095-.537 3.98.777l1.617 2.4c.885 1.314.537 3.096-.776 3.98l-5.042 3.396c1.562 3.125 3.347 5.99 5.354 8.597l3.001-2.682c1.349-1.206 3.421-1.09 4.627.26l.407.455c1.206 1.35 1.09 3.421-.26 4.627l-2.974 2.657c7.201 6.947 16.381 11.591 27.261 14.259" fill="#72c174" fill-rule="nonzero" transform="translate(1414.71 5223.87)"/><path d="m0 80.548c2.572-37.488 20.279-63.955 53.12-79.401 2.437-1.147 5.205.731 5.042 3.419-.66 10.837-2.453 20.356-5.227 28.735l-4.588-3.09c-1.707-1.15-4.024-.698-5.174 1.009l-2.102 3.12c-1.149 1.708-.697 4.024 1.01 5.174l6.554 4.414c-2.03 4.062-4.35 7.787-6.96 11.174l-3.901-3.486c-1.754-1.567-4.447-1.416-6.014.338l-.53.592c-1.567 1.754-1.416 4.446.338 6.015l3.866 3.454c-9.361 9.028-21.292 15.065-35.434 18.533" fill="#72c174" fill-rule="nonzero" transform="translate(1446.68 5205.29)"/><path d="m0 78.555h-7.815c-1.622 0-2.936-1.315-2.936-2.937v-72.681c0-1.622 1.314-2.937 2.936-2.937h7.815c1.622 0 2.936 1.315 2.936 2.937v72.681c0 1.622-1.314 2.937-2.936 2.937" fill="#d38444" fill-rule="nonzero" transform="translate(1035.76 5130.12)"/><path d="m0-1.999c2.681-4.971 8.028-8.256 14.053-8.018 8.426.334 14.987 7.437 14.653 15.864l-.273 6.888-49.098-1.945 1.012-25.524 25.129 3.731 4.128 1.464" fill="#27464f" fill-rule="nonzero" transform="translate(1169.21 5253.27)"/><path d="m0 6.918-39.827-1.578c-2.194-.087-3.902-1.936-3.815-4.13l.053-1.326 49.097 1.945c-.115 2.927-2.582 5.205-5.508 5.089" fill="#243e44" fill-rule="nonzero" transform="translate(1192.42 5263.75)"/><path d="m0-2.103c10.625-7.398 22.048-.671 24.049 9.501-5.136-8.533-12.985-12.014-24.049-9.501" fill="#243e44" fill-rule="nonzero" transform="translate(1173.53 5248.33)"/><path d="m0 19.903-17.528-.049c-5.553-.015-10.041-4.53-10.026-10.082.015-5.413 4.415-9.788 9.828-9.773l17.841.05c5.466.015 9.885 4.458 9.87 9.925-.016 5.499-4.486 9.945-9.985 9.929" fill="#fff" fill-rule="nonzero" transform="translate(1170.29 5228.97)"/><path d="m0-44.528c1.363-4.175 5.852-6.454 10.026-5.092l28.866 9.424 5.011 1.636c6.49 2.119 10.966 8.066 11.205 14.889l.83 23.662c.117 3.358-2.521 6.17-5.879 6.268l-2.815.082c-3.86.113-7.08-2.925-7.193-6.785l-.493-16.906c-.104-3.573-2.44-6.696-5.838-7.805l-28.629-9.347c-4.174-1.362-6.454-5.851-5.091-10.026" fill="#f2c666" fill-rule="nonzero" transform="translate(1114.04 5232.6)"/><g clip-path="url(#h)" transform="translate(1159.86 5190.72)"><path d="m0 49.399-1.381-26.837c-.227-4.412-3.146-8.228-7.344-9.604l-39.536-12.958.928 8.836 37.107 11.166 2.854 26.823z" fill="#d3aa59" fill-rule="nonzero"/></g><g clip-path="url(#i)"><path d="m2.404-2.464c2.427 1.49 3.132 4.436.438 6.805-.186.163-.471.009-.438-.237.274-2.023.088-4.128-.399-6.284-.053-.231.197-.408.399-.284" fill="#fff" fill-rule="nonzero" transform="matrix(.41644 .909163 .909163 -.41644 859.561 4946.68)"/><path d="m0 3.29-4.091-1.09c-.607-.162-.969-.786-.806-1.393.162-.608.785-.969 1.393-.807l4.09 1.091c.608.161.969.785.807 1.392-.162.608-.786.969-1.393.807" fill="#34344c" fill-rule="nonzero" transform="translate(882.259 4936.51)"/><path d="m0 31.224v-36.252c0-8.681-7.037-15.718-15.718-15.718s-15.718 7.037-15.718 15.718v41.063c0 3.398-2.754 6.152-6.152 6.152s-6.153-2.754-6.153-6.152v-8.557l-9.565 4.723v4.05c0 8.682 7.037 15.719 15.718 15.719s15.718-7.037 15.718-15.719v-41.061c0-3.399 2.754-6.153 6.152-6.153s6.153 2.754 6.153 6.153v55.145" fill="#21a396" fill-rule="nonzero" transform="translate(932.469 4927.44)"/><path d="m0 8.607c-2.015-.375-3.541-2.143-3.541-4.267 0-2.397 1.944-4.34 4.341-4.34h22.46c2.397 0 4.341 1.943 4.341 4.34 0 1.916-1.242 3.542-2.965 4.118" style="fill:#27464f;fill-rule:nonzero;stroke:#27464f;stroke-width:.53;stroke-linecap:round;stroke-linejoin:round" transform="translate(864.309 4930.21)"/><path d="m-7.417-7.711h7.417c4.258 0 7.711 3.452 7.711 7.711h-22.839c0-4.259 3.452-7.711 7.711-7.711z" style="fill:#27464f;fill-rule:nonzero;stroke:#27464f;stroke-width:.53;stroke-linecap:round;stroke-linejoin:round" transform="matrix(-1 0 0 1 873.326 4930.21)"/><path d="m0 46.688c-2.075-2.019-3.397-3.752-4.474-6.041-1.003-2.13-2.713-11.131-3.342-16.439 2.138 1.184 4.502 1.459 7.072.901.668-.145.825-1.022.257-1.4-2.406-1.609-4.235-3.327-5.04-5.236-.881-2.071-2.445-6.553-3.987-11.056l.007.073c-.359-1.008-.753-1.999-1.199-2.962 1.496-.118 2.969-.599 4.421-1.427.597-.341.491-1.225-.168-1.417-2.779-.81-8.539-4.192-9.88-5.772l.018.033c-6.455-7.29-15.877-11.891-26.379-11.891-19.456 0-35.228 15.773-35.228 35.229 0 .662.022 1.319.057 1.972-.192 2.543-1.805 8.043-3.117 10.322-.343.595.193 1.306.86 1.139 1.594-.401 2.958-1.072 4.108-1.998 1.483 4.321 3.78 8.26 6.711 11.637.237 2.68.23 5.969-.129 7.749-.136.674.599 1.178 1.178.807 1.648-1.057 2.893-2.358 3.701-3.923 4.816 3.85 10.561 6.31 16.943 7.181 1.388.19 2.646.942 3.459 2.082 1.268 1.776 1.985 3.973 1.918 5.604-.029.687 1.066.779 1.414.187.296-.502.603-1.252.846-1.906.388-1.044 1.071-1.952 1.964-2.616 4.509-3.353 10.329-4.091 16.893-3.561.294.023.587.043.883.075 2.641.281 5.052 1.483 7.118 3.152.453.366.985.669 1.594.908.438.172.886-.205.778-.663-.409-1.723-.57-3.371-.009-4.746.39-.952.897-1.72 1.504-2.34 1.754-1.789 4.194-2.352 7.449-2.352.418.03.845.039 1.282.025.687-.02 1.009-.851.517-1.33" fill="#21a396" fill-rule="nonzero" transform="translate(1000.4 4963.95)"/><g fill="none" stroke="#67a8a0" stroke-linecap="round" stroke-width="3"><path d="m0-6.461c.189 1.8 1.858 2.882 3.906 3.78.533.234.608.98.113 1.285-1.792 1.109-3.615 1.396-5.468.866" transform="translate(979.021 4992.34)"/><path d="m0-5.677c-.229 1.556.943 2.826 2.473 4.023.399.312.3.956-.182 1.107-1.748.547-3.343.395-4.789-.45" transform="translate(962.37 4983.46)"/><path d="m0-5.585c.674 1.42-.073 2.978-1.184 4.571-.29.415-.007 1.002.498 1.004 1.831.01 3.312-.602 4.446-1.835" transform="translate(950.076 4997.15)"/><path d="m0-5.586c.674 1.42-.073 2.979-1.184 4.572-.29.415-.007 1.001.498 1.004 1.831.01 3.312-.602 4.446-1.835" transform="translate(949.165 4961.9)"/><path d="m0-5.838c.221 1.624 1.763 2.558 3.642 3.313.489.198.577.871.137 1.162-1.592 1.052-3.234 1.363-4.926.935" transform="translate(971.465 4971.08)"/><path d="m0-6.992c-.051 1.806-.996 3.777-2.444 5.843-.344.49.067 1.149.658 1.055 2.296-.365 4.153-1.353 5.521-3.035" transform="translate(937.195 4979.75)"/><path d="m0-5.718c.002 1.6 1.372 2.703 3.09 3.681.448.254.445.916-.018 1.14-1.677.811-3.306.897-4.887.262" transform="translate(970.175 5008.92)"/></g><path d="m0-33.696-6.38 12.286c-1.713 3.3-1.567 7.257.385 10.421l6.516 10.565c1.199 1.944.596 4.492-1.348 5.691-2.018 1.244-4.663.617-5.907-1.4l-7.162-11.611c-3.057-4.956-3.285-11.152-.602-16.319l6.996-13.474c.998-1.921 3.364-2.67 5.285-1.672l.565.293c1.898.986 2.637 3.323 1.652 5.22" fill="#f2c666" fill-rule="nonzero" transform="translate(956.397 5054.26)"/></g><g clip-path="url(#j)" transform="translate(961.087 5054.24)"><path d="m0-33.696-6.379 12.286c-1.714 3.3-1.568 7.257.384 10.421l6.516 10.564c1.2 1.945.596 4.493-1.348 5.692-2.018 1.244-4.662.617-5.907-1.4l-7.162-11.612c-3.057-4.955-3.285-11.151-.602-16.318l6.996-13.474c.998-1.921 3.364-2.67 5.285-1.672l.566.293c1.897.986 2.636 3.323 1.651 5.22" fill="#ddb462" fill-rule="nonzero"/></g><g clip-path="url(#k)" transform="translate(981.281 5064.25)"><path d="m0-46.38v42.183c0 2.278-1.824 4.197-4.102 4.177-.095 0-.19-.002-.286-.005-2.253-.067-4.038-1.933-4.034-4.187v-42.168" fill="#f2c666" fill-rule="nonzero"/></g><g clip-path="url(#l)" transform="translate(985.491 5064.25)"><path d="m0-46.38v42.183c0 2.278-1.824 4.197-4.102 4.177-.095 0-.19-.002-.286-.005-2.253-.067-4.038-1.933-4.034-4.187v-42.168" fill="#ddb462" fill-rule="nonzero"/></g><g clip-path="url(#m)" fill-rule="nonzero"><path d="m0 25.537h-.204c-6.995 0-12.666-5.671-12.666-12.667v-.203c0-6.996 5.671-12.667 12.666-12.667h.204c6.996 0 12.667 5.671 12.667 12.667v.203c0 6.996-5.671 12.667-12.667 12.667" fill="#67a8a0" transform="translate(876.441 4934.1)"/><path d="m-1.268-1.269c-.861 0-1.56.568-1.56 1.268 0 .701.699 1.269 1.56 1.269.86 0 1.559-.568 1.559-1.269 0-.7-.699-1.268-1.559-1.268" fill="#27464f" transform="matrix(0 -1 -1 0 871.015 4939.99)"/><path d="m-1.268-1.269c-.861 0-1.56.568-1.56 1.268 0 .701.699 1.269 1.56 1.269.86 0 1.559-.568 1.559-1.269 0-.7-.699-1.268-1.559-1.268" fill="#27464f" transform="matrix(0 -1 -1 0 876.451 4939.99)"/><path d="m0-.252c-8.469 1.483-16.798 2.336-24.977 2.51-4.03.085-8.023.006-11.979-.243 0-7.008 22.087-7.813 26.21-7.885l5.31-.092c3.002 0 5.436 2.556 5.436 5.71 0 3.153-2.402 5.414-5.436 5.71-8.175.252-13.204-.301-19.777-3.195" fill="#f2c666" transform="translate(874.429 4950.67)"/><path d="m2.404-2.465c2.428 1.49 3.132 4.436.438 6.805-.187.164-.471.008-.438-.238.273-2.022.087-4.127-.399-6.283-.053-.231.197-.408.399-.284" fill="#fff" transform="matrix(.416314 .909221 .909221 -.416314 853.237 4949.59)"/><path d="m0 3.29-4.09-1.09c-.608-.162-.969-.786-.807-1.393.162-.608.786-.969 1.393-.807l4.09 1.09c.608.162.969.786.807 1.393-.162.608-.786.969-1.393.807" fill="#27464f" transform="translate(880.915 4935.68)"/><path d="m0 3.29 4.09-1.09c.608-.162.969-.786.807-1.393-.162-.608-.786-.969-1.393-.807l-4.09 1.09c-.608.162-.969.786-.807 1.393.162.608.786.969 1.393.807" fill="#27464f" transform="translate(865.265 4935.68)"/><g fill="#f29538"><path d="m0-36.405-2.084.851c-3.001 1.225-6.398 1.004-9.215-.6-4.839-2.755-10.787 1.027-10.345 6.577l.258 3.238c1.429 17.666 22.57 36.791 42.888 36.791 20.319 0 30.694-16.471 30.694-36.791-.51-12.461-13.623-18.933-18.923-20.059-2.157-.459-4.188-.401-5.819 0z" transform="translate(890.529 5021.06)"/><path d="m-8.694-47.716c-7.438 16.262-7.76 32.108-3.101 47.665.396 1.323 1.996 1.869 3.101 1.04 13.419-10.092 13.209-35.141 4.001-49.056-.992-1.497-3.254-1.282-4.001.351" transform="matrix(-.99609 -.0883492 -.0883492 .99609 930.823 4997.76)"/><path d="m.459-35.249c-5.677 12.411-5.922 24.505-2.366 36.38.302 1.01 1.523 1.427 2.366.793 10.242-7.702 10.082-26.821 3.054-37.441-.757-1.143-2.484-.979-3.054.268" transform="matrix(-.964432 .26433 .26433 .964432 938.06 4995.09)"/></g></g><path d="m2.25 1.104-1.029-.832-.077-.067c-.111-.097-.26-.137-.404-.11-.248.047-.447-.202-.347-.433l.059-.135c.173-.397.597-.728 1.088-.902l2.105.721c.135.367.114.813-.04 1.261-.205.527-.862.612-1.105.582-.048-.006-.093-.016-.134-.03-.044-.015-.083-.034-.116-.055z" fill="url(#c)" fill-rule="nonzero" transform="matrix(20.8819 7.1574 7.1574 -20.8819 863.72 4983.74)"/><g clip-path="url(#n)"><g fill-rule="nonzero"><path d="m-7.898-13.456c17.419-17.103 41.368-10.462 37.549 0" fill="#f29538" transform="matrix(.75991 .650028 .650028 -.75991 902.769 4969.42)"/><path d="m0-36.71c-3.098 0-6.018.758-8.591 2.092l.01-.012c-1.649-.105-2.815-1.083-3.724-2.52-.169-.267-.571-.246-.704.041-.666 1.436-.651 2.934-.04 4.487.131.332-.187.674-.516.537-1.876-.782-3.06-2.231-3.641-4.262-.132-.462-.771-.523-.97-.086-1.84 4.046-1.505 7.808.874 11.303l.006-.007c-.908 2.199-1.412 4.609-1.412 7.136 0 10.332 8.376 18.708 18.708 18.708 10.333 0 18.708-8.376 18.708-18.708 0-10.333-8.375-18.709-18.708-18.709" fill="#f29538" transform="translate(946.88 4954.11)"/><path d="m0-36.71c-3.099 0-6.018.758-8.592 2.092l.01-.012c-1.649-.105-2.814-1.083-3.724-2.52-.168-.267-.57-.246-.703.041-.666 1.436-.651 2.934-.04 4.487.13.332-.187.674-.516.537-1.876-.782-3.06-2.231-3.642-4.262-.132-.462-.771-.523-.969-.086-1.841 4.046-1.505 7.808.874 11.303l.006-.007c-.909 2.199-1.412 4.609-1.412 7.136 0 10.332 8.375 18.708 18.708 18.708 10.332 0 18.708-8.376 18.708-18.708s-8.376-18.709-18.708-18.709" fill="#eda74c" transform="translate(948.159 4953.79)"/></g><ellipse cx="-6.413" fill="none" rx="6.413" ry="6.414" stroke="#27464f" stroke-linecap="round" stroke-linejoin="round" transform="matrix(0 -1 -1 0 942.737 4923.77)"/><ellipse cx="-6.413" fill="none" rx="6.413" ry="6.414" stroke="#27464f" stroke-linecap="round" stroke-linejoin="round" transform="matrix(0 -1 -1 0 955.564 4921.83)"/><path d="m0-2.281c-2.774-.983-5.867-.113-7.722 2.171l-.888 1.093" fill="none" stroke="#27464f" stroke-linecap="round" stroke-linejoin="round" transform="translate(936.377 4931.65)"/><path d="m0-3.593c-3.995-.223-7.843-3.252-8.73-6.504-.514-1.143-1.663-1.939-2.997-1.939-1.814 0-3.284 1.469-3.284 3.283-.097 7.041 8.516 17.196 14.051 16.969 3.282 0 5.943-2.662 5.943-5.944s-2.661-5.942-5.943-5.942" fill="#f2c666" fill-rule="nonzero" transform="translate(964.787 4949.35)"/></g><path d="m1.049-.799h.35c-.184.486-.551 1.26-.832 1.707l-.285-.115c.281-.447.583-1.106.767-1.592z" fill="url(#d)" fill-rule="nonzero" transform="matrix(12.5338 10.5842 10.5842 -12.5338 928.722 4959.87)"/><g clip-path="url(#o)" fill-rule="nonzero"><g fill="#f29538"><path d="m-1.635-1.634c-.901 0-1.633.731-1.633 1.635 0 .901.732 1.634 1.633 1.634.902 0 1.634-.733 1.634-1.634 0-.904-.732-1.635-1.634-1.635" transform="matrix(0 -1 -1 0 878.796 4997.99)"/><path d="m-1.072-1.072c-.592 0-1.071.48-1.071 1.072s.479 1.072 1.071 1.072 1.071-.48 1.071-1.072-.479-1.072-1.071-1.072" transform="matrix(0 -1 -1 0 879.835 4992.54)"/><path d="m-1.528-1.529c-.845 0-1.529.684-1.529 1.528 0 .845.684 1.529 1.529 1.529.844 0 1.528-.684 1.528-1.529 0-.844-.684-1.528-1.528-1.528" transform="matrix(0 -1 -1 0 883.537 4994.94)"/></g><path d="m0 32.938c-13.108-1.436-24.087-17.514-22.632-31.175.118-1.109 1.336-1.763 2.328-1.254 3.435 1.767 5.968 4.482 7.864 7.866" fill="#eda74c" transform="translate(909.481 4960.67)"/></g><path d="m.899.165c0-.001-.001-.002-.001-.002.002.002.004.005.006.007zm-.62-.247.269-.134c.123.059.24.18.35.379-.166-.21-.389-.273-.619-.245z" fill="url(#e)" fill-rule="nonzero" transform="matrix(47.9547 -23.8347 -23.8347 -47.9547 904.163 5026.17)"/><g clip-path="url(#p)"><path d="m-1.266-1.488c-.87 0-1.577.574-1.578 1.283 0 .708.706 1.283 1.578 1.283.87 0 1.577-.574 1.578-1.283-.001-.708-.708-1.283-1.578-1.283" fill="#27464f" fill-rule="nonzero" transform="matrix(-.159404 -.987213 -.987213 .159404 945.688 4928.96)"/><path d="m-1.266-1.488c-.872 0-1.577.574-1.578 1.284 0 .708.706 1.282 1.578 1.282.871 0 1.577-.574 1.577-1.284 0-.708-.707-1.282-1.577-1.282" fill="#27464f" fill-rule="nonzero" transform="matrix(-.159784 -.987152 -.987152 .159784 951.774 4927.98)"/><path d="m2.365-5.602c2.456 1.507 3.169 4.486.445 6.883-.189.165-.477.01-.445-.24.278-2.046.088-4.174-.403-6.356-.053-.234.2-.412.403-.287" fill="#fff" fill-rule="nonzero" transform="matrix(-.25516 .966899 .966899 .25516 963.396 4948.73)"/><path d="m0 3.329-4.138-1.104c-.614-.163-.98-.794-.816-1.409.164-.614.795-.979 1.41-.815l4.137 1.102c.615.164.98.795.816 1.41-.163.614-.795.979-1.409.816" fill="#27464f" fill-rule="nonzero" transform="translate(955.125 4920.8)"/><path d="m0 1.122-4.138 1.104c-.614.163-1.245-.203-1.409-.817-.163-.614.202-1.245.817-1.409l4.137-1.104c.614-.163 1.245.203 1.409.817s-.201 1.246-.816 1.409" fill="#27464f" fill-rule="nonzero" transform="translate(942.64 4922.74)"/><path d="m0-9.771c.415 5.046 2.423 8.348 5.637 9.771h-.161c-2.873-3.147-4.345-6.115-5.476-9.771" fill-rule="nonzero" opacity=".21" transform="translate(950.088 4952.97)"/><path d="m0-30.182c-.195-.708-.423-1.395-.684-2.059-.872-2.217-4.208-1.699-5.826.051-10.924 11.806-9.974 23.807-.844 36.466" fill="#f29538" fill-rule="nonzero" transform="translate(911.458 4982.13)"/><path d="m0-21.266c-.542-3.826-1.165-7.527-2.623-9.944-.593-.985-1.982-1.121-2.784-.299-9.24 9.47-10.955 32.097 1.124 42.574" fill="#eda74c" fill-rule="nonzero" transform="translate(914.278 4983.42)"/><path d="m-4.236-36.394c-5.677 12.41-5.922 24.506-2.366 36.379.303 1.01 1.524 1.428 2.366.794 10.242-7.703 10.083-26.821 3.055-37.441-.758-1.143-2.485-.979-3.055.268" fill="#f2c666" fill-rule="nonzero" transform="matrix(-.999997 .0023404 .0023404 .999997 910.128 4998.56)"/><path d="m0 22.151c-.468-.2-.71-.715-.566-1.204.706-2.394 1.138-5.6 1.138-9.122 0-4.225-.621-7.993-1.592-10.452-.19-.483-.01-1.031.439-1.289.554-.32 1.259-.066 1.485.532 1.007 2.673 1.646 6.673 1.646 11.141 0 3.754-.451 7.176-1.192 9.759-.166.577-.806.871-1.358.635" fill="#eda74c" fill-rule="nonzero" transform="translate(914.305 4971.96)"/><path d="m0-10.371c.773-1.313 1.896-2.419 3.264-3.381 2.07-1.456 4.94-.182 5.305 2.323.927 6.353-.777 11.742-4.841 16.266" fill="#ccc" fill-rule="nonzero" transform="translate(915.682 5011.57)"/><path d="m0-23.79c-5.737 8.193-13.448 11.616-22.926 10.763-1.678-.151-2.88 1.619-2.122 3.124 4.021 7.982 17.814 9.903 26.224 3.808" fill="#b8dddb" fill-rule="nonzero" transform="translate(867.857 5018.27)"/><path d="m0-26.721h7.148c3.267 0 5.915-2.648 5.915-5.915v-9.744c0-2.727-2.209-4.937-4.936-4.937l-1.452.145-7.127-.145h-12.649c-2 0-3.622 1.622-3.622 3.623v16.326h2.822v4.676l-2.605 7.784v23.869c0 6.425 5.21 11.635 11.636 11.635h26.742c1.245 0 2.254-1.009 2.254-2.255l-16.244-40.541v-4.568" fill="#ccc" fill-rule="nonzero" transform="translate(883.568 5012.82)"/><circle cx="-6.574" fill="none" r="6.574" stroke="#27464f" stroke-linecap="round" stroke-linejoin="round" transform="matrix(0 -1 -1 0 873.419 4964.53)"/><path d="m0 0c0 3.631-2.943 6.574-6.574 6.574s-6.574-2.943-6.574-6.574c0-2.364 1.248-4.437 3.122-5.596 1.003-.62 2.186-.978 3.452-.978 1.361 0 2.626.414 3.675 1.123 1.749 1.181 2.899 3.182 2.899 5.451z" fill="none" stroke="#27464f" stroke-linecap="round" stroke-linejoin="round" transform="translate(893.142 4971.1)"/><path d="m0 28.149h4.312c5.533 0 10.019-4.485 10.019-10.019l.004-18.13-14.33 2.991z" fill="#fff" fill-rule="nonzero" transform="translate(867.062 4993.1)"/><path d="m0-16.345c0-7.356 5.963-13.319 13.319-13.319 9.349-.141 22.275 10.836 21.807 30.805 0 6.432-5.214 11.647-11.646 11.647-9.119.672-22.906-16.69-23.476-28.823z" fill="#c0edec" fill-rule="nonzero" transform="translate(885.232 5018.69)"/><path d="m0-18.164h-3.66c-2.217 0-4.177 1.086-5.393 2.749l-.198.283c-.139.212-.654 1.08-1.207 2.019-1.059 1.799-1.975 3.679-2.74 5.622l-1.533 3.891c-.23 1.127-.176 2.332.813 2.922 1.135.678 2.577.222 3.13-.943 1.936-4.074 6.045-6.671 10.556-6.671h.232c2.726 0 4.936-2.21 4.936-4.935 0-2.727-2.21-4.937-4.936-4.937" fill="#f2c666" fill-rule="nonzero" transform="translate(870.419 4993.97)"/><path d="m0-2.958h4.351c1.633 0 2.957 1.324 2.957 2.958" fill="none" stroke="#27464f" stroke-linecap="round" stroke-linejoin="round" transform="translate(893.142 4974.06)"/><g fill-rule="nonzero"><path d="m2.257-2.314c2.278 1.4 2.94 4.164.412 6.388-.176.154-.443.008-.412-.223.257-1.898.081-3.873-.375-5.899-.048-.216.185-.382.375-.266" fill="#fff" transform="matrix(.416392 .909185 .909185 -.416392 865.069 4980.83)"/><path d="m-1.19-1.19c-.809 0-1.464.533-1.464 1.19 0 .658.655 1.19 1.464 1.19s1.464-.532 1.464-1.19c0-.657-.655-1.19-1.464-1.19" fill="#27464f" transform="matrix(0 -1 -1 0 876.976 4970.21)"/><path d="m-1.191-1.191c-.809 0-1.464.533-1.464 1.191s.655 1.191 1.464 1.191 1.464-.533 1.464-1.191-.655-1.191-1.464-1.191" fill="#27464f" transform="matrix(0 -1 -1 0 882.698 4970.21)"/><path d="m0 9.787h.27c.807 0 1.46-.653 1.46-1.46v-6.92c0-.777-.629-1.407-1.407-1.407h-.096c-2.765 0-5.007 2.242-5.007 5.007v.001c0 2.629 2.151 4.779 4.78 4.779" fill="#ea5353" transform="translate(881.864 4988.53)"/><path d="m0 9.787h-.27c-.807 0-1.46-.653-1.46-1.46v-6.92c0-.777.629-1.407 1.406-1.407h.097c2.765 0 5.007 2.242 5.007 5.007v.001c0 2.629-2.151 4.779-4.78 4.779" fill="#ea5353" transform="translate(866.426 4988.53)"/><path d="m0-35.74v23.868c0 7.289 5.537 11.872 11.636 11.636-7.606-4.024-10.595-17.722-11.636-35.504" fill="#606060" opacity=".44" transform="translate(867.062 5033.66)"/><path d="m-3.659-3.66c-2.021 0-3.66 1.638-3.66 3.659 0 2.022 1.639 3.66 3.66 3.66s3.659-1.638 3.659-3.66c0-2.021-1.638-3.659-3.659-3.659" fill="#d85050" transform="matrix(0 -1 -1 0 873.892 4989.76)"/><path d="m0 12.403c12.479 6.401 17.657-2.911 16.81-14.026l-.227-4.787-.08-1.69-.183-3.873c-.212-4.502 1.189-8.706 3.695-12.052l-.054.029c-1.499-1.862-1.979-3.705-2.104-5.542-.034-.5.558-.787.943-.467 1.592 1.321 3.305 2.472 4.446 2.655.213-.173.42-.352.641-.516-.455-1.089-.66-2.174-.734-3.257-.034-.501 2.805.985 3.667 1.482 2.202-1.067 4.651-1.72 7.25-1.843 10.289-.486 19.025 7.46 19.511 17.75l.324 6.855.97 20.541.188 3.971-36.871 26.001c-14.317.739-21.951-9.331-25.219-25.307-.966-4.72 2.74-8.123 7.027-5.924" fill="#d67369" transform="translate(883.409 4992.79)"/><path d="m0 5.947c12.214 6.032 17.281-3.205 16.442-14.211l-.226-4.787-.08-1.689-.183-3.875c-.213-4.5 1.189-8.705 3.694-12.05l-.054.027c-1.495-1.855-1.976-3.694-2.102-5.526-.035-.507.551-.806.942-.482 1.591 1.321 3.304 2.473 4.445 2.655.002-.001.005-.003.007-.004.364-.296.511-.787.368-1.234-.272-.843-.409-1.683-.467-2.522-.035-.506.551-.805.943-.481.911.757 1.861 1.452 2.724 1.95 2.202-1.067 4.65-1.72 7.25-1.842 10.289-.487 19.024 7.46 19.51 17.749l.325 6.854.97 20.542.188 3.972c.4 23.251-7.224 33.565-34.987 30.271-14.262.857-23.676-13.141-27.092-29.522-.883-4.231 3.508-7.708 7.383-5.795" fill="#ee7f70" transform="translate(885.617 4999.02)"/><path d="m-1.31-1.375c-.838 0-1.516.588-1.516 1.313s.678 1.313 1.516 1.313c.836-.001 1.514-.588 1.514-1.313s-.678-1.313-1.514-1.313" fill="#27464f" transform="matrix(-.0472214 -.998884 -.998884 .0472214 931.574 4973.35)"/><path d="m-1.311-1.374c-.837 0-1.515.587-1.515 1.313 0 .725.678 1.313 1.515 1.313.837-.001 1.515-.588 1.515-1.313 0-.726-.678-1.313-1.515-1.313" fill="#27464f" transform="matrix(-.0472214 -.998884 -.998884 .0472214 926.154 4973.81)"/><path d="m0 3.158 3.69-1.173c.548-.174.851-.76.677-1.307-.174-.548-.76-.852-1.307-.677l-3.691 1.173c-.548.173-.851.758-.677 1.307.175.548.76.851 1.308.677" fill="#27464f" transform="translate(921.921 4968.93)"/><path d="m0 2.856-3.784-.82c-.562-.121-.919-.676-.798-1.238.123-.562.677-.919 1.239-.797l3.784.819c.562.122.919.677.797 1.238-.121.563-.676.919-1.238.798" fill="#27464f" transform="translate(934.345 4968.29)"/><path d="m0 8.525c-6.257 1.202-11.956-4.12-11.919-9.727z" fill="#d67369" transform="translate(939.602 4986.44)"/><path d="m0-9.183c-3.41 1.251-7.664.197-9.526-2.097-.914-.903-2.181-1.645-3.294-1.167-1.513.65-2.001 2.362-1.482 4.496 2.313 7.579 13.017 11.693 17.573 8.595 2.738-1.176 4.041-4.265 2.908-6.901-1.132-2.637-4.269-3.821-7.007-2.645" fill="#f2c666" transform="translate(941.997 4993.45)"/><path d="m1.879-1.793c1.04 0 1.882.842 1.882 1.882 0 1.039-.842 1.881-1.882 1.882-1.039-.001-1.881-.842-1.881-1.882s.842-1.881 1.881-1.882" fill="#d67369" transform="matrix(.0473 .998881 .998881 -.0473 908.808 4972.54)"/><path d="m.939-.897c.521 0 .941.421.942.94 0 .52-.421.941-.942.941-.518.001-.939-.42-.939-.94-.001-.52.42-.94.939-.941" fill="#d67369" transform="matrix(.0473126 .99888 .99888 -.0473126 912.157 4976.3)"/><path d="m1.376-1.312c.76 0 1.377.617 1.377 1.377-.001.761-.617 1.377-1.377 1.377-.761 0-1.378-.617-1.377-1.377 0-.76.616-1.377 1.377-1.377" fill="#d67369" transform="matrix(.0472029 .998885 .998885 -.0472029 908.673 4977.8)"/><path d="m-2.198-2.452c-2.22 1.363-2.865 4.058-.401 6.224.17.15.432.008.401-.217-.25-1.85-.08-3.774.366-5.748.046-.211-.182-.372-.366-.259" fill="#fff" transform="matrix(.37294 -.927855 -.927855 -.37294 940.758 4988.62)"/></g></g><path d="m0 127.684h-151.452c-4.41 0-7.985-3.576-7.985-7.986v-111.712c0-4.41 3.575-7.986 7.985-7.986h151.452c4.41 0 7.985 3.576 7.985 7.986v111.712c0 4.41-3.575 7.986-7.985 7.986" fill="#cccbca" fill-rule="nonzero" transform="translate(1348.8 5006.2)"/><path d="m0 102.755h-135.396c-1.176 0-2.128-.953-2.128-2.128v-98.499c0-1.176.952-2.128 2.128-2.128h135.396c1.175 0 2.127.952 2.127 2.128v98.499c0 1.175-.952 2.128-2.127 2.128" fill="#c0edec" fill-rule="nonzero" transform="translate(1340.77 5019.23)"/><path d="m0-125.938 26.127 39.483c5.082 7.68 7.791 16.684 7.791 25.892v48.419c0 7.354-7.731 12.144-14.316 8.869l-19.641-9.769" fill="#cccbca" fill-rule="nonzero" transform="translate(1353.02 5139.56)"/><path d="m0 58.559h-96.221c-2.846 0-5.154-2.308-5.154-5.153v-48.252c0-2.846 2.308-5.154 5.154-5.154h96.221c2.846 0 5.153 2.308 5.153 5.154v48.252c0 2.845-2.307 5.153-5.153 5.153" fill="#27464f" fill-rule="nonzero" transform="translate(1319.86 5042.67)"/><g fill="#fff"><path d="m1227.5 2726.09h-.33v-.96h.33zm-.33-4.73h.33v.89h-.33zm-.84 3.18c.28.2.61.37 1.02.37.43 0 .67-.19.67-.47 0-.68-1.75-.56-1.75-1.52 0-.52.45-.85 1.08-.85.49 0 .78.19 1.03.43l-.25.27c-.25-.2-.44-.31-.81-.31s-.6.17-.6.45c0 .6 1.75.49 1.75 1.5 0 .53-.48.88-1.17.88-.45 0-.9-.19-1.18-.43z" fill-rule="nonzero" transform="translate(0 2335.5)"/><path d="m0-2.613h.376l.037.453h.022c.281-.294.59-.519 1.009-.519.635 0 .927.376.927 1.082v1.663h-.459v-1.603c0-.509-.176-.745-.61-.745-.321 0-.536.159-.844.48v1.868h-.458z" fill-rule="nonzero" transform="translate(1232.76 5060.92)"/><path d="m0-1.139c0-.591-.222-.981-.756-.981-.238 0-.512.122-.782.395v1.334c.247.227.528.309.711.309.474 0 .827-.396.827-1.057m-1.997-1.302h.376l.038.342h.016c.249-.236.602-.408.925-.408.724 0 1.11.533 1.11 1.368 0 .91-.573 1.443-1.218 1.443-.249 0-.558-.127-.799-.347h-.013l.024.507v.904h-.459z" fill-rule="nonzero" transform="translate(1238.06 5060.75)"/><path d="m0-2.613h.363l.037.353h.011c.139-.248.305-.419.613-.419.265 0 .43.154.507.462.154-.287.321-.462.628-.462.375 0 .597.292.597.827v1.918h-.453v-1.886c0-.308-.088-.469-.286-.469-.189 0-.288.14-.431.415v1.94h-.419v-1.886c0-.308-.077-.469-.275-.469-.187 0-.308.14-.441.415v1.94h-.451z" fill-rule="nonzero" transform="translate(1239.17 5060.92)"/><path d="m0-3.24c0-.21.153-.354.363-.354.209 0 .364.144.364.354 0 .215-.155.353-.364.353-.21 0-.363-.138-.363-.353m.183 1.285h-1.242v-.37h1.698v2.679h-.456z" fill-rule="nonzero" transform="translate(1247 5060.63)"/><path d="m0-2.613h.376l.038.453h.022c.28-.294.59-.519 1.009-.519.634 0 .926.376.926 1.082v1.663h-.459v-1.603c0-.509-.175-.745-.61-.745-.321 0-.535.159-.844.48v1.868h-.458z" fill-rule="nonzero" transform="translate(1249.26 5060.92)"/><path d="m0 1.974.209-.305c.309.223.672.366 1.162.366.451 0 .674-.188.674-.414 0-.204-.106-.347-.833-.496-.7-.143-1.048-.38-1.048-.783 0-.43.38-.761 1.114-.761.407 0 .815.162 1.08.342l-.22.292c-.249-.172-.557-.281-.899-.281-.451 0-.618.181-.618.385 0 .233.233.332.782.448.889.193 1.104.413 1.104.827 0 .436-.425.799-1.191.799-.523 0-.992-.193-1.316-.419" fill-rule="nonzero" transform="translate(1252.44 5058.66)"/><path d="m0 1.388v-1.267h-.761v-.343l.778-.027.06-.859h.382v.859h1.311v.37h-1.311v1.272c0 .48.159.727.677.727.249 0 .447-.048.639-.12l.1.335c-.243.09-.501.161-.838.161-.782 0-1.037-.447-1.037-1.108" fill-rule="nonzero" transform="translate(1256.48 5058.55)"/><path d="m0 1.278v-.694c-1.146.089-1.494.314-1.494.666 0 .304.276.425.584.425.303 0 .6-.142.91-.397m-1.946.006c0-.601.561-.894 1.946-1.003-.017-.364-.193-.672-.711-.672-.348 0-.689.165-.938.318l-.181-.307c.275-.178.726-.387 1.196-.387.733 0 1.09.437 1.09 1.104v1.641h-.379l-.04-.363h-.016c-.292.23-.676.43-1.052.43-.502 0-.915-.282-.915-.761" fill-rule="nonzero" transform="translate(1261.04 5059.01)"/><path d="m0 2.062v-2.657h-.947v-.369h1.406v3.058c0 .386.209.552.528.552.154 0 .321-.039.501-.121l.116.34c-.249.105-.423.161-.715.161-.574 0-.889-.331-.889-.964" fill-rule="nonzero" transform="translate(1263.31 5058.03)"/><path d="m0 2.062v-2.657h-.947v-.369h1.405v3.058c0 .386.21.552.528.552.155 0 .322-.039.502-.121l.116.34c-.249.105-.424.161-.716.161-.573 0-.888-.331-.888-.964" fill-rule="nonzero" transform="translate(1266.61 5058.03)"/><path d="m1272.32 5058.99h2.369v.34h-2.369z"/><path d="m0-2.06c0-.376-.274-.629-.616-.629-.337 0-.618.253-.618.629 0 .385.281.634.618.634.342 0 .616-.249.616-.634m.453 2.154c0-.253-.204-.324-.613-.324h-.523c-.154 0-.292-.011-.408-.045-.255.138-.342.292-.342.446 0 .283.302.458.877.458.621 0 1.009-.259 1.009-.535m-2.276.122c0-.214.154-.43.44-.596v-.022c-.143-.077-.275-.215-.275-.44 0-.172.116-.364.32-.502v-.022c-.183-.139-.331-.376-.331-.694 0-.584.484-.96 1.053-.96.153 0 .281.022.395.066h1.109v.371h-.695c.121.126.226.324.226.539 0 .573-.457.921-1.035.921-.138 0-.305-.035-.453-.099-.133.082-.21.181-.21.308 0 .209.204.308.557.308h.602c.689 0 1.018.177 1.018.629 0 .503-.578.937-1.488.937-.782 0-1.233-.269-1.233-.744" fill-rule="nonzero" transform="translate(1277.37 5061.26)"/><path d="m0 .392v-.693c-.756.109-1.053.297-1.053.631 0 .262.17.409.441.409.198 0 .413-.119.612-.347m-2.382-.219c0-1.407.711-2.124 1.621-2.124.761 0 1.119.57 1.119 1.313v1.636h-.276l-.039-.32h-.022c-.159.204-.44.387-.727.387-.392 0-.712-.276-.712-.722 0-.562.519-.827 1.455-.943v-.075c0-.531-.241-.971-.821-.971-.661 0-1.25.616-1.25 1.834 0 1.182.562 1.853 1.273 1.853.329 0 .562-.087.777-.249l.154.249c-.286.199-.578.302-.941.302-.874 0-1.611-.755-1.611-2.17" fill-rule="nonzero" transform="translate(1284.41 5059.43)"/><path d="m0-1.817c0-.65.342-1.087 1.08-1.087.265 0 .519.05.772.153l-.104.344c-.221-.095-.393-.129-.624-.129-.479 0-.673.273-.673.702v2.921h-.451zm-.767.252.778-.026h1.559v.37h-2.337z" fill-rule="nonzero" transform="translate(1286.39 5059.9)"/><path d="m0-.011c0-.87.651-1.4 1.368-1.4.772 0 1.223.501 1.223 1.256 0 .105-.011.205-.022.277h-2.265v-.354h1.995l-.116.128c0-.635-.314-.949-.804-.949-.496 0-.926.376-.926 1.042 0 .694.451 1.048 1.047 1.048.319 0 .573-.099.815-.255l.164.3c-.262.175-.604.318-1.035.318-.805 0-1.444-.519-1.444-1.411" fill-rule="nonzero" transform="translate(1288.73 5059.65)"/><path d="m0 1.278v-.694c-1.146.089-1.493.314-1.493.666 0 .304.275.425.584.425.303 0 .599-.142.909-.397m-1.946.006c0-.601.562-.894 1.946-1.003-.016-.364-.193-.672-.711-.672-.347 0-.689.165-.937.318l-.182-.307c.276-.178.727-.387 1.196-.387.733 0 1.091.437 1.091 1.104v1.641h-.38l-.039-.363h-.017c-.291.23-.676.43-1.052.43-.501 0-.915-.282-.915-.761" fill-rule="nonzero" transform="translate(1294.04 5059.01)"/><path d="m0 1.388v-1.267h-.761v-.343l.778-.027.06-.859h.382v.859h1.311v.37h-1.311v1.272c0 .48.159.727.677.727.249 0 .447-.048.639-.12l.1.335c-.243.09-.501.161-.838.161-.782 0-1.037-.447-1.037-1.108" fill-rule="nonzero" transform="translate(1296.09 5058.55)"/><path d="m0-3.924h.458v1.067l-.028.634h.017c.269-.297.584-.522.998-.522.634 0 .926.376.926 1.082v1.663h-.459v-1.603c0-.509-.175-.745-.61-.745-.321 0-.535.159-.844.48v1.868h-.458z" fill-rule="nonzero" transform="translate(1298.77 5060.99)"/><path d="m0-.011c0-.87.652-1.4 1.368-1.4.773 0 1.224.501 1.224 1.256 0 .105-.011.205-.022.277h-2.265v-.354h1.995l-.116.128c0-.635-.314-.949-.805-.949-.496 0-.926.376-.926 1.042 0 .694.451 1.048 1.048 1.048.318 0 .573-.099.814-.255l.165.3c-.263.175-.605.318-1.035.318-.805 0-1.445-.519-1.445-1.411" fill-rule="nonzero" transform="translate(1301.93 5059.65)"/><path d="m0-2.613h.381l.043.634h.013c.279-.436.698-.7 1.194-.7.199 0 .365.028.53.111l-.105.39c-.187-.061-.287-.087-.496-.087-.402 0-.784.204-1.102.765v1.566h-.458z" fill-rule="nonzero" transform="translate(1305.66 5060.92)"/><path d="m0 1.974.209-.305c.309.223.672.366 1.163.366.451 0 .673-.188.673-.414 0-.204-.106-.347-.833-.496-.7-.143-1.047-.38-1.047-.783 0-.43.379-.761 1.113-.761.408 0 .816.162 1.08.342l-.22.292c-.248-.172-.557-.281-.899-.281-.451 0-.618.181-.618.385 0 .233.233.332.783.448.888.193 1.103.413 1.103.827 0 .436-.424.799-1.191.799-.523 0-.992-.193-1.316-.419" fill-rule="nonzero" transform="translate(1308.55 5058.66)"/><path d="m0-4.436c0-.21.153-.354.363-.354s.364.144.364.354c0 .215-.154.353-.364.353s-.363-.138-.363-.353m-1.252 4.609.148-.343c.194.094.409.15.613.15.53 0 .674-.27.674-.724v-2.407h-1.242v-.37h1.698v2.745c0 .655-.26 1.13-1.124 1.13-.282 0-.552-.077-.767-.181" fill-rule="nonzero" transform="translate(1313.01 5061.83)"/><path d="m0 1.974.21-.305c.308.223.671.366 1.162.366.451 0 .673-.188.673-.414 0-.204-.106-.347-.832-.496-.7-.143-1.048-.38-1.048-.783 0-.43.38-.761 1.114-.761.407 0 .815.162 1.079.342l-.219.292c-.249-.172-.558-.281-.9-.281-.451 0-.617.181-.617.385 0 .233.232.332.782.448.888.193 1.104.413 1.104.827 0 .436-.425.799-1.192.799-.522 0-.992-.193-1.316-.419" fill-rule="nonzero" transform="translate(1315.15 5058.66)"/><path d="m0-4.796h.408l-1.806 4.796h-.409z" fill-rule="nonzero" transform="translate(1320.41 5061.87)"/><path d="m1227.5 2719.49h-.33v-.96h.33zm-.33-4.73h.33v.88h-.33zm-.84 3.18c.28.2.61.37 1.02.37.43 0 .67-.19.67-.47 0-.68-1.75-.56-1.75-1.52 0-.52.45-.85 1.08-.85.49 0 .78.19 1.03.43l-.25.27c-.25-.2-.44-.31-.81-.31s-.6.17-.6.45c0 .6 1.75.49 1.75 1.5 0 .53-.48.88-1.17.88-.45 0-.9-.2-1.18-.43z" fill-rule="nonzero" transform="translate(0 2348.71)"/><path d="m0-2.611h.364l.037.351h.011c.138-.247.305-.419.612-.419.266 0 .43.156.507.464.155-.287.322-.464.629-.464.374 0 .597.294.597.827v1.92h-.453v-1.886c0-.31-.088-.469-.287-.469-.188 0-.287.138-.43.413v1.942h-.419v-1.886c0-.31-.077-.469-.275-.469-.187 0-.309.138-.441.413v1.942h-.452z" fill-rule="nonzero" transform="translate(1232.57 5067.52)"/><path d="m0 1.081.276-.299 1.279 1.721h-.507zm-1.031-2.503h.459v2.65h.021l1.438-1.404h.524l-1.983 1.95v.729h-.459z" fill-rule="nonzero" transform="translate(1237.16 5065.08)"/><path d="m0 2.429v-1.336c-.242-.226-.47-.309-.7-.309-.463 0-.839.409-.839 1.022 0 .637.3 1.019.788 1.019.266 0 .514-.133.751-.396m-2.006-.62c0-.87.578-1.411 1.212-1.411.319 0 .567.129.805.344h.01l-.021-.491v-1.031h.458v3.925h-.376l-.038-.355h-.016c-.221.226-.541.419-.878.419-.694 0-1.156-.507-1.156-1.4" fill-rule="nonzero" transform="translate(1241.18 5064.44)"/><path d="m0-3.245c0-.208.154-.351.363-.351.21 0 .364.143.364.351 0 .215-.154.354-.364.354-.209 0-.363-.139-.363-.354m.183 1.286h-1.242v-.369h1.699v2.679h-.457z" fill-rule="nonzero" transform="translate(1243.7 5067.24)"/><path d="m0-2.611h.381l.043.634h.013c.279-.437.698-.702 1.194-.702.199 0 .365.029.53.111l-.105.391c-.187-.06-.287-.086-.496-.086-.402 0-.783.204-1.102.766v1.565h-.458z" fill-rule="nonzero" transform="translate(1246.25 5067.52)"/><path d="m0-2.611h.364l.037.351h.011c.138-.247.305-.419.612-.419.266 0 .43.156.507.464.155-.287.321-.464.629-.464.374 0 .597.294.597.827v1.92h-.453v-1.886c0-.31-.088-.469-.287-.469-.188 0-.287.138-.43.413v1.942h-.419v-1.886c0-.31-.077-.469-.275-.469-.187 0-.309.138-.442.413v1.942h-.451z" fill-rule="nonzero" transform="translate(1252.37 5067.52)"/><path d="m0 3.72.095-.364c.071.021.159.038.241.038.375 0 .601-.236.732-.567l.078-.2-1.245-2.682h.462l.652 1.475c.104.238.22.52.33.778h.023c.093-.253.196-.535.286-.778l.578-1.475h.441l-1.186 2.897c-.196.53-.522.933-1.134.933-.127 0-.258-.023-.353-.055" fill-rule="nonzero" transform="translate(1255.72 5064.96)"/><path d="m1259.12 5065.59h2.369v.342h-2.369z"/><path d="m0 1.278v-.694c-1.146.09-1.494.315-1.494.668 0 .302.276.424.584.424.303 0 .599-.143.91-.398m-1.947.008c0-.602.562-.894 1.947-1.003-.017-.365-.194-.674-.711-.674-.348 0-.689.165-.938.319l-.182-.308c.276-.175.727-.387 1.196-.387.733 0 1.091.438 1.091 1.104v1.643h-.38l-.039-.365h-.016c-.292.233-.677.43-1.053.43-.501 0-.915-.28-.915-.759" fill-rule="nonzero" transform="translate(1264.34 5065.61)"/><path d="m0-1.14c0-.591-.223-.981-.756-.981-.238 0-.512.122-.782.397v1.333c.247.228.528.31.711.31.474 0 .827-.396.827-1.059m-1.997-1.3h.376l.038.34h.016c.249-.236.601-.408.925-.408.724 0 1.109.536 1.109 1.368 0 .91-.572 1.443-1.217 1.443-.249 0-.558-.125-.799-.346h-.013l.024.507v.904h-.459z" fill-rule="nonzero" transform="translate(1267.76 5067.35)"/><path d="m0-1.14c0-.591-.223-.981-.756-.981-.238 0-.513.122-.783.397v1.333c.247.228.528.31.711.31.474 0 .828-.396.828-1.059m-1.997-1.3h.376l.037.34h.017c.249-.236.601-.408.925-.408.724 0 1.109.536 1.109 1.368 0 .91-.573 1.443-1.218 1.443-.249 0-.557-.125-.799-.346h-.012l.023.507v.904h-.458z" fill-rule="nonzero" transform="translate(1271.06 5067.35)"/><path d="m1227.5 2712.88h-.33v-.95h.33zm-.33-4.72h.33v.88h-.33zm-.84 3.18c.28.2.61.37 1.02.37.43 0 .67-.19.67-.47 0-.69-1.75-.56-1.75-1.52 0-.52.45-.85 1.08-.85.49 0 .78.18 1.03.43l-.25.27c-.25-.2-.44-.32-.81-.32s-.6.18-.6.45c0 .61 1.75.49 1.75 1.5 0 .53-.48.89-1.17.89-.45 0-.9-.2-1.18-.43z" fill-rule="nonzero" transform="translate(0 2361.91)"/><path d="m0 .011c0-.896.685-1.411 1.494-1.411.437 0 .755.178.976.392l-.226.292c-.221-.188-.451-.302-.732-.302-.618 0-1.042.412-1.042 1.029 0 .613.419 1.02 1.031 1.02.329 0 .605-.148.825-.335l.204.296c-.297.266-.666.419-1.063.419-.838 0-1.467-.513-1.467-1.4" fill-rule="nonzero" transform="translate(1232.69 5072.84)"/><path d="m0 2.427v-1.334c-.242-.228-.47-.31-.7-.31-.462 0-.838.409-.838 1.021 0 .64.299 1.02.789 1.02.264 0 .513-.132.749-.397m-2.006-.618c0-.87.578-1.411 1.213-1.411.318 0 .567.128.804.342h.01l-.021-.491v-1.031h.458v3.926h-.376l-.037-.354h-.017c-.221.226-.541.419-.877.419-.695 0-1.157-.507-1.157-1.4" fill-rule="nonzero" transform="translate(1237.88 5071.05)"/><path d="m0-2.614h.364l.037.354h.011c.138-.25.305-.42.612-.42.266 0 .43.156.507.463.155-.286.322-.463.629-.463.374 0 .597.292.597.828v1.918h-.453v-1.885c0-.31-.088-.469-.287-.469-.188 0-.287.136-.43.412v1.942h-.419v-1.885c0-.31-.077-.469-.275-.469-.187 0-.309.136-.442.412v1.942h-.451z" fill-rule="nonzero" transform="translate(1242.47 5074.12)"/><path d="m0 3.717.095-.362c.071.021.159.038.241.038.375 0 .601-.238.732-.568l.078-.199-1.245-2.684h.462l.652 1.477c.104.238.22.518.33.777h.023c.093-.252.196-.535.286-.777l.578-1.477h.441l-1.186 2.899c-.196.528-.522.934-1.134.934-.127 0-.258-.024-.353-.058" fill-rule="nonzero" transform="translate(1245.82 5071.57)"/><path d="m1249.22 5072.2h2.369v.343h-2.369z"/><path d="m0 1.28v-.695c-1.146.088-1.494.313-1.494.668 0 .302.276.423.584.423.303 0 .599-.144.91-.396m-1.947.005c0-.602.562-.892 1.947-1.003-.017-.363-.194-.673-.711-.673-.348 0-.689.166-.938.32l-.182-.309c.276-.176.727-.386 1.196-.386.733 0 1.091.436 1.091 1.102v1.644h-.38l-.039-.364h-.016c-.292.231-.677.43-1.053.43-.501 0-.915-.281-.915-.761" fill-rule="nonzero" transform="translate(1254.44 5072.21)"/><path d="m0-1.142c0-.59-.222-.981-.756-.981-.238 0-.512.121-.782.397v1.334c.247.228.528.31.711.31.474 0 .827-.398.827-1.06m-1.997-1.301h.376l.038.343h.016c.249-.238.601-.409.925-.409.724 0 1.11.536 1.11 1.367 0 .909-.573 1.444-1.218 1.444-.249 0-.558-.127-.799-.346h-.013l.024.506v.905h-.459z" fill-rule="nonzero" transform="translate(1257.86 5073.95)"/><path d="m0-1.142c0-.59-.223-.981-.756-.981-.238 0-.513.121-.783.397v1.334c.247.228.528.31.711.31.474 0 .828-.398.828-1.06m-1.997-1.301h.376l.037.343h.017c.249-.238.601-.409.925-.409.724 0 1.109.536 1.109 1.367 0 .909-.573 1.444-1.218 1.444-.249 0-.557-.127-.799-.346h-.012l.023.506v.905h-.458z" fill-rule="nonzero" transform="translate(1261.16 5073.95)"/><path d="m1227.5 2706.28h-.33v-.95h.33zm-.33-4.73h.33v.89h-.33zm-.84 3.18c.28.21.61.38 1.02.38.43 0 .67-.2.67-.48 0-.68-1.75-.56-1.75-1.52 0-.51.45-.84 1.08-.84.49 0 .78.18 1.03.42l-.25.27c-.25-.2-.44-.31-.81-.31s-.6.18-.6.45c0 .61 1.75.49 1.75 1.5 0 .53-.48.89-1.17.89-.45 0-.9-.2-1.18-.44z" fill-rule="nonzero" transform="translate(0 2375.11)"/><path d="m0-1.818c0-.65.343-1.086 1.08-1.086.265 0 .52.051.772.154l-.104.342c-.22-.095-.393-.127-.623-.127-.48 0-.674.271-.674.7v2.921h-.451zm-.767.254.778-.028h1.56v.37h-2.338z" fill-rule="nonzero" transform="translate(1233.58 5079.7)"/><path d="m0-.011c0-.872.652-1.4 1.368-1.4.772 0 1.224.501 1.224 1.256 0 .104-.011.205-.022.276h-2.265v-.355h1.995l-.117.127c0-.633-.313-.947-.804-.947-.496 0-.926.375-.926 1.043 0 .694.451 1.046 1.048 1.046.318 0 .573-.099.814-.255l.165.299c-.263.178-.605.321-1.035.321-.805 0-1.445-.519-1.445-1.411" fill-rule="nonzero" transform="translate(1235.92 5079.46)"/><path d="m0 1.278v-.695c-1.146.088-1.493.313-1.493.666 0 .304.275.425.583.425.303 0 .6-.144.91-.396m-1.946.003c0-.6.561-.892 1.946-1.003-.017-.361-.193-.671-.711-.671-.348 0-.689.165-.938.32l-.181-.309c.275-.178.726-.385 1.196-.385.733 0 1.091.435 1.091 1.101v1.642h-.38l-.04-.362h-.016c-.292.229-.676.431-1.052.431-.502 0-.915-.284-.915-.764" fill-rule="nonzero" transform="translate(1241.23 5078.81)"/><path d="m0 1.387v-1.267h-.762v-.341l.778-.029.061-.86h.381v.86h1.312v.37h-1.312v1.274c0 .479.159.726.677.726.249 0 .448-.049.639-.121l.101.337c-.244.089-.502.161-.838.161-.783 0-1.037-.448-1.037-1.11" fill-rule="nonzero" transform="translate(1243.28 5078.36)"/><path d="m0-3.924h.459v1.069l-.029.634h.018c.269-.297.584-.522.997-.522.634 0 .926.374.926 1.079v1.664h-.458v-1.603c0-.507-.176-.745-.611-.745-.321 0-.535.159-.843.48v1.868h-.459z" fill-rule="nonzero" transform="translate(1245.96 5080.79)"/><path d="m0-.011c0-.872.651-1.4 1.368-1.4.772 0 1.223.501 1.223 1.256 0 .104-.011.205-.022.276h-2.265v-.355h1.995l-.116.127c0-.633-.314-.947-.804-.947-.496 0-.926.375-.926 1.043 0 .694.451 1.046 1.047 1.046.319 0 .573-.099.815-.255l.164.299c-.262.178-.604.321-1.034.321-.806 0-1.445-.519-1.445-1.411" fill-rule="nonzero" transform="translate(1249.12 5079.46)"/><path d="m0-2.615h.382l.043.634h.012c.279-.434.699-.698 1.195-.698.198 0 .365.026.529.108l-.105.393c-.187-.061-.286-.09-.496-.09-.402 0-.783.204-1.102.766v1.566h-.458z" fill-rule="nonzero" transform="translate(1252.85 5080.73)"/><path d="m0 1.972.21-.304c.308.222.672.366 1.162.366.451 0 .674-.191.674-.416 0-.205-.107-.347-.833-.495-.7-.142-1.048-.38-1.048-.784 0-.43.38-.759 1.114-.759.407 0 .815.16 1.079.34l-.219.294c-.249-.172-.557-.283-.9-.283-.451 0-.617.183-.617.387 0 .232.232.331.782.448.889.191 1.104.411 1.104.825 0 .436-.425.801-1.192.801-.522 0-.992-.193-1.316-.42" fill-rule="nonzero" transform="translate(1255.74 5078.47)"/><path d="m0-2.063c0-.375-.274-.629-.616-.629-.337 0-.617.254-.617.629 0 .385.28.634.617.634.342 0 .616-.249.616-.634m.453 2.154c0-.253-.204-.324-.612-.324h-.524c-.153 0-.292-.011-.408-.045-.254.14-.342.294-.342.447 0 .282.303.459.878.459.621 0 1.008-.261 1.008-.537m-2.276.121c0-.214.154-.429.44-.593v-.022c-.142-.079-.275-.216-.275-.441 0-.172.116-.365.32-.501v-.024c-.183-.137-.331-.374-.331-.694 0-.584.485-.958 1.053-.958.154 0 .281.021.395.064h1.11v.371h-.696c.122.127.226.324.226.539 0 .573-.457.921-1.035.921-.138 0-.305-.033-.453-.099-.132.082-.209.181-.209.309 0 .208.204.308.556.308h.602c.689 0 1.019.176 1.019.627 0 .504-.579.939-1.488.939-.783 0-1.234-.271-1.234-.746" fill-rule="nonzero" transform="translate(1264.17 5081.07)"/><path d="m0-.011c0-.872.652-1.4 1.368-1.4.772 0 1.223.501 1.223 1.256 0 .104-.011.205-.022.276h-2.264v-.355h1.995l-.117.127c0-.633-.314-.947-.804-.947-.496 0-.926.375-.926 1.043 0 .694.451 1.046 1.048 1.046.318 0 .573-.099.814-.255l.165.299c-.263.178-.605.321-1.035.321-.805 0-1.445-.519-1.445-1.411" fill-rule="nonzero" transform="translate(1265.63 5079.46)"/><path d="m0-2.615h.376l.037.453h.022c.281-.292.591-.517 1.01-.517.634 0 .926.374.926 1.079v1.664h-.459v-1.603c0-.507-.175-.745-.61-.745-.321 0-.535.159-.844.48v1.868h-.458z" fill-rule="nonzero" transform="translate(1269.06 5080.73)"/><path d="m0-.011c0-.872.652-1.4 1.368-1.4.773 0 1.224.501 1.224 1.256 0 .104-.011.205-.022.276h-2.265v-.355h1.995l-.116.127c0-.633-.314-.947-.805-.947-.496 0-.926.375-.926 1.043 0 .694.451 1.046 1.048 1.046.318 0 .573-.099.814-.255l.165.299c-.262.178-.605.321-1.035.321-.805 0-1.445-.519-1.445-1.411" fill-rule="nonzero" transform="translate(1272.23 5079.46)"/><path d="m0-2.615h.381l.043.634h.011c.281-.434.7-.698 1.196-.698.199 0 .365.026.53.108l-.105.393c-.187-.061-.287-.09-.496-.09-.402 0-.784.204-1.102.766v1.566h-.458z" fill-rule="nonzero" transform="translate(1275.95 5080.73)"/><path d="m0 1.278v-.695c-1.146.088-1.494.313-1.494.666 0 .304.276.425.584.425.303 0 .6-.144.91-.396m-1.947.003c0-.6.562-.892 1.947-1.003-.017-.361-.193-.671-.711-.671-.348 0-.689.165-.938.32l-.181-.309c.275-.178.726-.385 1.196-.385.733 0 1.09.435 1.09 1.101v1.642h-.379l-.04-.362h-.016c-.292.229-.676.431-1.052.431-.502 0-.916-.284-.916-.764" fill-rule="nonzero" transform="translate(1280.84 5078.81)"/><path d="m0 1.387v-1.267h-.762v-.341l.778-.029.061-.86h.381v.86h1.311v.37h-1.311v1.274c0 .479.159.726.677.726.249 0 .448-.049.639-.121l.101.337c-.244.089-.502.161-.839.161-.782 0-1.036-.448-1.036-1.11" fill-rule="nonzero" transform="translate(1282.89 5078.36)"/><path d="m0-.011c0-.872.651-1.4 1.368-1.4.772 0 1.223.501 1.223 1.256 0 .104-.011.205-.022.276h-2.264v-.355h1.995l-.117.127c0-.633-.314-.947-.804-.947-.496 0-.926.375-.926 1.043 0 .694.451 1.046 1.048 1.046.318 0 .572-.099.814-.255l.165.299c-.263.178-.605.321-1.035.321-.805 0-1.445-.519-1.445-1.411" fill-rule="nonzero" transform="translate(1285.43 5079.46)"/><path d="m0 1.278v-.695c-1.146.088-1.493.313-1.493.666 0 .304.275.425.584.425.303 0 .599-.144.909-.396m-1.946.003c0-.6.562-.892 1.946-1.003-.016-.361-.193-.671-.711-.671-.347 0-.689.165-.937.32l-.182-.309c.276-.178.727-.385 1.196-.385.733 0 1.091.435 1.091 1.101v1.642h-.38l-.039-.362h-.017c-.291.229-.676.431-1.052.431-.501 0-.915-.284-.915-.764" fill-rule="nonzero" transform="translate(1294.04 5078.81)"/><path d="m0-1.143c0-.59-.223-.981-.756-.981-.238 0-.513.122-.782.395v1.336c.247.226.528.308.711.308.474 0 .827-.398.827-1.058m-1.997-1.302h.376l.038.344h.016c.249-.238.601-.408.925-.408.724 0 1.109.533 1.109 1.366 0 .909-.572 1.445-1.218 1.445-.248 0-.557-.129-.798-.347h-.013l.024.505v.906h-.459z" fill-rule="nonzero" transform="translate(1297.46 5080.56)"/><path d="m0-1.143c0-.59-.222-.981-.755-.981-.238 0-.513.122-.783.395v1.336c.247.226.528.308.711.308.474 0 .827-.398.827-1.058m-1.996-1.302h.376l.037.344h.017c.249-.238.601-.408.925-.408.724 0 1.109.533 1.109 1.366 0 .909-.573 1.445-1.218 1.445-.249 0-.557-.129-.799-.347h-.013l.024.505v.906h-.458z" fill-rule="nonzero" transform="translate(1300.76 5080.56)"/><path d="m1227.5 2699.68h-.33v-.95h.33zm-.33-4.73h.33v.89h-.33zm-.84 3.18c.28.21.61.38 1.02.38.43 0 .67-.2.67-.48 0-.68-1.75-.56-1.75-1.52 0-.52.45-.84 1.08-.84.49 0 .78.18 1.03.42l-.25.27c-.25-.2-.44-.31-.81-.31s-.6.18-.6.45c0 .61 1.75.49 1.75 1.5 0 .53-.48.89-1.17.89-.45 0-.9-.2-1.18-.44z" fill-rule="nonzero" transform="translate(0 2388.32)"/><path d="m0-2.613h.376l.037.453h.022c.281-.294.59-.519 1.009-.519.635 0 .927.376.927 1.081v1.664h-.459v-1.603c0-.509-.176-.745-.61-.745-.321 0-.536.159-.844.48v1.868h-.458z" fill-rule="nonzero" transform="translate(1232.76 5087.33)"/><path d="m0-1.139c0-.591-.222-.981-.756-.981-.238 0-.512.122-.782.395v1.334c.247.226.528.309.711.309.474 0 .827-.396.827-1.057m-1.997-1.302h.376l.038.342h.016c.249-.236.602-.408.925-.408.724 0 1.11.533 1.11 1.368 0 .909-.573 1.443-1.218 1.443-.249 0-.558-.127-.799-.347h-.013l.024.507v.904h-.459z" fill-rule="nonzero" transform="translate(1238.06 5087.15)"/><path d="m0-2.613h.363l.037.353h.011c.139-.248.305-.419.613-.419.265 0 .43.154.507.462.154-.287.321-.462.628-.462.375 0 .597.292.597.827v1.918h-.453v-1.886c0-.308-.088-.469-.286-.469-.189 0-.288.14-.431.415v1.94h-.419v-1.886c0-.308-.077-.469-.275-.469-.187 0-.308.14-.441.415v1.94h-.451z" fill-rule="nonzero" transform="translate(1239.17 5087.33)"/><path d="m0 1.974.21-.305c.308.222.672.366 1.162.366.451 0 .674-.188.674-.414 0-.204-.107-.347-.833-.496-.7-.143-1.048-.38-1.048-.783 0-.43.38-.761 1.114-.761.407 0 .815.162 1.079.342l-.219.292c-.249-.172-.557-.281-.9-.281-.451 0-.617.181-.617.385 0 .233.232.332.782.448.889.193 1.104.413 1.104.827 0 .436-.425.799-1.192.799-.522 0-.992-.193-1.316-.419" fill-rule="nonzero" transform="translate(1245.84 5085.07)"/><path d="m0 1.388v-1.267h-.761v-.343l.778-.027.06-.859h.382v.859h1.311v.37h-1.311v1.272c0 .48.159.727.677.727.249 0 .447-.048.638-.12l.101.335c-.243.09-.501.161-.838.161-.783 0-1.037-.448-1.037-1.108" fill-rule="nonzero" transform="translate(1249.88 5084.96)"/><path d="m0 1.278v-.694c-1.146.089-1.494.314-1.494.666 0 .303.276.425.584.425.303 0 .599-.143.91-.397m-1.947.006c0-.601.562-.895 1.947-1.003-.017-.364-.194-.672-.711-.672-.348 0-.689.165-.938.318l-.182-.307c.276-.178.727-.387 1.196-.387.733 0 1.091.437 1.091 1.103v1.642h-.38l-.039-.363h-.016c-.292.23-.677.43-1.053.43-.501 0-.915-.282-.915-.761" fill-rule="nonzero" transform="translate(1254.44 5085.41)"/><path d="m0-2.613h.381l.043.634h.011c.281-.436.7-.7 1.196-.7.199 0 .365.028.53.111l-.105.39c-.187-.061-.287-.088-.496-.088-.402 0-.784.205-1.102.766v1.566h-.458z" fill-rule="nonzero" transform="translate(1256.15 5087.33)"/><path d="m0 1.388v-1.267h-.761v-.343l.778-.027.06-.859h.381v.859h1.312v.37h-1.312v1.272c0 .48.16.727.678.727.249 0 .447-.048.638-.12l.101.335c-.243.09-.501.161-.838.161-.783 0-1.037-.448-1.037-1.108" fill-rule="nonzero" transform="translate(1259.79 5084.96)"/></g><path d="m-1.692-1.692c-.936 0-1.693.758-1.693 1.692 0 .935.757 1.692 1.693 1.692.935 0 1.692-.757 1.692-1.692 0-.934-.757-1.692-1.692-1.692" fill="#db5852" fill-rule="nonzero" transform="matrix(0 -1 -1 0 1226.89 5046.97)"/><path d="m-1.692-1.692c-.935 0-1.692.758-1.692 1.692 0 .935.757 1.692 1.692 1.692s1.692-.757 1.692-1.692c0-.934-.757-1.692-1.692-1.692" fill="#fbb03b" fill-rule="nonzero" transform="matrix(0 -1 -1 0 1232.47 5046.97)"/><path d="m-1.692-1.692c-.936 0-1.693.758-1.693 1.692 0 .935.757 1.692 1.693 1.692.935 0 1.692-.757 1.692-1.692 0-.934-.757-1.692-1.692-1.692" fill="#72c174" fill-rule="nonzero" transform="matrix(0 -1 -1 0 1238.05 5046.97)"/></g></svg>