<svg xmlns="http://www.w3.org/2000/svg" xmlns:xlink="http://www.w3.org/1999/xlink" width="79" height="79" viewBox="0 0 79 79"><defs><path id="a" d="M0,38.9526299 C0,60.4659094 17.4399564,77.9040477 38.9526299,77.9040477 C60.4659094,77.9040477 77.9046537,60.4659094 77.9046537,38.9526299 C77.9046537,17.4399564 60.4659094,1.52020044e-23 38.9526299,1.52020044e-23 C17.4399564,1.52020044e-23 0,17.4399564 0,38.9526299 Z"/><path id="c" d="M0,38.9526299 C0,60.4659094 17.4399564,77.9040477 38.9526299,77.9040477 C60.4659094,77.9040477 77.9046537,60.4659094 77.9046537,38.9526299 C77.9046537,17.4399564 60.4659094,1.52020044e-23 38.9526299,1.52020044e-23 C17.4399564,1.52020044e-23 0,17.4399564 0,38.9526299 Z"/><path id="e" d="M15.7903062,4.27574689 L0.533980697,28.4847773 C-0.47450163,30.2508335 -0.126017653,32.5526459 2.19458261,33.9647636 C4.6139705,35.436275 7.64184172,34.6811254 9.48668559,31.9132535 L25.890887,5.88180348 C23.4624082,3.59211223 20.7381726,1.60969295 17.7830285,0 C17.306666,1.48787507 16.6412132,2.92544723 15.7903062,4.27574689 Z"/><path id="g" d="M0,38.9526299 C0,60.4659094 17.4399564,77.9040477 38.9526299,77.9040477 C60.4659094,77.9040477 77.9046537,60.4659094 77.9046537,38.9526299 C77.9046537,17.4399564 60.4659094,1.52020044e-23 38.9526299,1.52020044e-23 C17.4399564,1.52020044e-23 0,17.4399564 0,38.9526299 Z"/><path id="i" d="M0,38.9514178 C0,60.4665155 17.4399564,77.9028355 38.9526299,77.9028355 C60.4659094,77.9028355 77.9046537,60.4665155 77.9046537,38.9514178 C77.9046537,17.4423806 60.4659094,0 38.9526299,0 C17.4399564,0 0,17.4423806 0,38.9514178 Z"/></defs><g fill="none" fill-rule="evenodd" transform="translate(.689 .336)"><path fill="#ED8A80" fill-rule="nonzero" d="M38.98466,0.0637401932 C17.4719866,0.0637401932 0.0326362113,17.5030905 0.0326362113,39.015764 C0.0326362113,60.5290436 17.4719866,77.9677879 38.98466,77.9677879 C60.4973335,77.9677879 77.9366839,60.5290436 77.9366839,39.015764 C77.9366839,17.5030905 60.4973335,0.0637401932 38.98466,0.0637401932" transform="rotate(-90 38.985 39.016)"/><mask id="b" fill="#fff"><use xlink:href="#a"/></mask><path fill="#F2C666" fill-rule="nonzero" d="M44.1265563,-42.5065604 L57.2774326,-7.54179933 C59.3168214,-2.06302515 58.6847018,4.0533232 55.5683459,8.99937144 L40.3120204,33.2096139 C39.3035381,34.9756701 39.6520221,37.2774826 41.9732284,38.6889942 C44.3920102,40.1605057 47.4198814,39.405356 49.2653314,36.6374842 L66.2392283,9.70239999 C69.3555842,4.75635175 69.9877038,-1.3599966 67.948315,-6.83877078 L54.7538025,-42.9308018" mask="url(#b)"/><mask id="d" fill="#fff"><use xlink:href="#c"/></mask><g mask="url(#d)"><g transform="translate(39.778 4.722)"><mask id="f" fill="#fff"><use xlink:href="#e"/></mask><path fill="#D8B060" fill-rule="nonzero" d="M9.38304948,-48.0665465 L23.1605908,-11.7484555 C25.1999796,-6.2696813 24.56786,-0.15333295 21.4515042,4.79210923 L5.15215097,30.6568931 C4.60366749,31.5265878 1.0673127,36.830817 1.8273108,37.5241486 C4.16730495,39.6562645 13.3024336,35.1986999 15.1478836,32.430222 L32.1223866,5.49513778 C35.2387424,0.549089536 35.8708621,-5.56725881 33.8314732,-11.046033 L20.6363547,-47.138064" mask="url(#f)"/></g></g><mask id="h" fill="#fff"><use xlink:href="#g"/></mask><g mask="url(#h)"><g transform="translate(0 -.003)"><mask id="j" fill="#fff"><use xlink:href="#i"/></mask><g fill-rule="nonzero" mask="url(#j)"><g transform="translate(-21.69 30.08)"><path fill="#FFF" d="M40.8838846 14.1800479 9.380327 14.1800479C7.98093656 14.1800479 6.847 13.0461114 6.847 11.6467209 6.847 10.2479366 7.98093656 9.114 9.380327 9.114L40.8838846 9.114C42.282669 9.114 43.4172116 10.2479366 43.4172116 11.6467209 43.4172116 13.0461114 42.282669 14.1800479 40.8838846 14.1800479M34.0368846 24.5860479 2.533327 24.5860479C1.13393656 24.5860479 0 23.4521114 0 22.0527209 0 20.6539366 1.13393656 19.52 2.533327 19.52L34.0368846 19.52C35.435669 19.52 36.5702116 20.6539366 36.5702116 22.0527209 36.5702116 23.4521114 35.435669 24.5860479 34.0368846 24.5860479M46.4064371 24.1980479 41.9537209 24.1980479C40.5549366 24.1980479 39.421 23.0641114 39.421 21.6647209 39.421 20.2659366 40.5549366 19.132 41.9537209 19.132L46.4064371 19.132C47.8052215 19.132 48.9397641 20.2659366 48.9397641 21.6647209 48.9397641 23.0641114 47.8052215 24.1980479 46.4064371 24.1980479M51.7158846 36.5730479 20.212327 36.5730479C18.8129366 36.5730479 17.679 35.4385053 17.679 34.0397209 17.679 32.6409366 18.8129366 31.507 20.212327 31.507L51.7158846 31.507C53.115275 31.507 54.2492116 32.6409366 54.2492116 34.0397209 54.2492116 35.4385053 53.115275 36.5730479 51.7158846 36.5730479"/><path fill="#27464F" d="M63.9888088,18.2617841 C66.9257711,15.9623959 71.0293972,15.389064 74.6112065,17.1266354 C79.621497,19.5569324 81.7130069,25.5890385 79.2827099,30.5987229 L77.2960482,34.6950763 L48.104,20.5351117 C48.5894533,19.5769323 52.9991393,13.039979 57.5518552,4.62 L69.68334,14.261188 L71.7936377,16.2387588"/><path fill="#E6E6E6" d="M66.9283357,14.4184494 L58.3992662,10.2814901 C55.6859396,8.96512971 54.5538212,5.69907727 55.8695755,2.98635678 C57.146542,0.354242147 60.3144129,-0.744542985 62.9465275,0.532423519 L71.6574148,4.7578675 C74.3204385,6.04937942 75.4319509,9.25482596 74.1398329,11.9178496 C72.8392301,14.6002671 69.6101472,15.7190522 66.9283357,14.4184494"/><path fill="#243E44" d="M73.8034458 38.0273199 46.7059377 24.8831103C46.3871507 24.7285653 46.2538177 24.3443238 46.4083627 24.0249307L48.10351 20.531 77.2955582 34.6909646 76.0555613 37.2467158C75.6495017 38.0842895 74.6410194 38.4339855 73.8034458 38.0273199M67.934 16.3515892C76.3188275 14.6843206 81.451542 21.775818 79.9727578 28.4594377 79.1212448 21.9382419 75.2927695 17.7570402 67.934 16.3515892"/></g></g></g></g></g></svg>