<svg height="217" viewBox="0 0 838 217" width="838" xmlns="http://www.w3.org/2000/svg"><g fill="none" fill-rule="evenodd" transform="translate(0 .92)"><path d="m.43 0h837v216h-837z"/><g fill-rule="nonzero"><path d="m11.4200177 92.866078v-39.4053358h30.8716962v-9.2866078h-30.8716962v-29.4912545h38.0248941v-9.2866078h-49.4449118v87.4698059zm81.571555 1.1294523c8.1989873 0 15.0593643-2.0706626 20.5811313-6.2119877 5.521766-4.1413251 9.202944-9.5166814 11.043533-16.1260689h-12.29848c-1.338611 3.8485041-3.660263 6.9231243-6.964956 9.2238604-3.304694 2.3007362-7.4251034 3.4511043-12.3612283 3.4511043-6.0237456 0-11.1481125-1.9033363-15.3731007-5.7100089-4.2249883-3.8066725-6.5466402-9.0983657-6.9649559-15.8750795h54.9666789c.250989-2.4262309.376484-4.726967.376484-6.9022085 0-6.274735-1.359526-11.9010807-4.078578-16.8790372-2.719052-4.9779564-6.588472-8.8892079-11.60826-11.7337544s-10.7925439-4.2668198-17.3182683-4.2668198c-6.6930507 0-12.6122173 1.443189-17.7575 4.3295671s-9.1401974 7.0067875-11.9847439 12.361228-4.2668198 11.587344-4.2668198 18.6987103 1.4641048 13.3651855 4.3923145 18.7614576 6.9649559 9.558513 12.1102386 12.4867227 10.9807862 4.3923145 17.5065106 4.3923145zm21.2086043-40.5347881h-43.4211662c.5856419-6.5257244 2.9072939-11.6291755 6.9649559-15.3103534 4.0576619-3.6811779 8.972871-5.5217668 14.7456272-5.5217668 4.0158304 0 7.6760921.8157155 10.9807861 2.4471466s5.919167 4.0158304 7.843419 7.1531979 2.886378 6.8812928 2.886378 11.2317757zm55.092173 40.5347881c5.940083 0 11.148113-1.3176944 15.62409-3.9530831 4.475978-2.6353887 7.843419-5.9609982 10.102324-9.9768286v12.8004594h11.545512v-68.7710956h-11.545512v12.54947c-2.175242-3.9321673-5.479935-7.1950295-9.914082-9.7885866-4.434146-2.5935571-9.663091-3.8903357-15.686837-3.8903357-6.107409 0-11.650091 1.4641048-16.628048 4.3923145-4.977956 2.9282097-8.889208 7.048619-11.733754 12.3612279-2.844547 5.312609-4.26682 11.4827651-4.26682 18.5104683 0 6.9440401 1.422273 13.1351119 4.26682 18.5732156 2.844546 5.4381037 6.734882 9.6630919 11.671007 12.6749647s10.457892 4.5178092 16.5653 4.5178092zm2.3844-10.039576c-4.26682 0-8.157156-1.0248734-11.671007-3.0746202-3.513852-2.0497467-6.316567-5.019788-8.408145-8.9101237-2.091579-3.8903357-3.137368-8.4708922-3.137368-13.7416696 0-5.1871143 1.045789-9.7049235 3.137368-13.5534276 2.091578-3.8485041 4.894293-6.7767138 8.408145-8.784629 3.513851-2.0079152 7.404187-3.0118728 11.671007-3.0118728 4.266819 0 8.178071 1.0248734 11.733754 3.0746202 3.555683 2.0497467 6.379314 4.9988722 8.470892 8.8473763 2.091579 3.8485041 3.137368 8.3663133 3.137368 13.5534276s-1.045789 9.7258392-3.137368 13.6161749c-2.091578 3.8903357-4.915209 6.860377-8.470892 8.9101237-3.555683 2.0497468-7.466935 3.0746202-11.733754 3.0746202zm86.089364 8.9101237v-9.6630919h-8.408145c-3.513852 0-5.981914-.6902209-7.404187-2.0706626-1.422274-1.3804417-2.13341-3.7439252-2.13341-7.0904505v-40.5347881h17.945742v-9.4121025h-17.945742v-17.3182686h-11.420018v17.3182686h-8.910124v9.4121025h8.910124v40.5347881c0 6.6930507 1.5896 11.5036808 4.768799 14.4318905s7.947997 4.3923145 14.306395 4.3923145zm25.224435 0v-38.0248941c0-7.1950295 1.777841-12.6749647 5.333524-16.4398057s8.345398-5.6472615 14.369143-5.6472615c5.940083 0 10.625218 1.8196731 14.055407 5.4590194 3.430188 3.6393463 5.145283 8.889208 5.145283 15.7495849v38.903357h11.294523v-40.5347881c0-6.3583981-1.1922-11.7546702-3.576599-16.1888163-2.3844-4.4341461-5.668178-7.7597556-9.851334-9.9768286-4.183157-2.2170731-8.868293-3.3256096-14.055407-3.3256096-4.936125 0-9.391187.962126-13.365185 2.8863781-3.973999 1.9242521-7.090451 4.6433039-9.349355 8.1571555v-33.883569h-11.420018v92.866078zm98.638834 1.1294523c8.198987 0 15.059364-2.0706626 20.58113-6.2119877 5.521767-4.1413251 9.202945-9.5166814 11.043534-16.1260689h-12.29848c-1.338611 3.8485041-3.660263 6.9231243-6.964956 9.2238604-3.304694 2.3007362-7.425103 3.4511043-12.361228 3.4511043-6.023746 0-11.148113-1.9033363-15.373101-5.7100089-4.224988-3.8066725-6.54664-9.0983657-6.964956-15.8750795h54.966679c.250989-2.4262309.376484-4.726967.376484-6.9022085 0-6.274735-1.359526-11.9010807-4.078578-16.8790372-2.719052-4.9779564-6.588472-8.8892079-11.60826-11.7337544s-10.792544-4.2668198-17.318268-4.2668198c-6.693051 0-12.612218 1.443189-17.7575 4.3295671-5.145283 2.8863781-9.140198 7.0067875-11.984744 12.361228-2.844547 5.3544405-4.26682 11.587344-4.26682 18.6987103s1.464105 13.3651855 4.392314 18.7614576c2.92821 5.3962721 6.964956 9.558513 12.110239 12.4867227s10.980786 4.3923145 17.506511 4.3923145zm21.208604-40.5347881h-43.421166c.585642-6.5257244 2.907294-11.6291755 6.964956-15.3103534s8.972871-5.5217668 14.745627-5.5217668c4.01583 0 7.676092.8157155 10.980786 2.4471466s5.919167 4.0158304 7.843419 7.1531979 2.886378 6.8812928 2.886378 11.2317757zm38.275884 39.4053358v-37.3974206c0-13.8880801 6.400229-20.8321202 19.200689-20.8321202h3.011872v-11.7965018c-5.35444 0-9.893165 1.0876207-13.616175 3.2628622-3.723009 2.1752415-6.588471 5.2289458-8.596386 9.1611131v-11.1690283h-11.420018v68.7710956zm59.735477 1.1294523c4.936125 0 9.307523-.8575471 13.114196-2.5726414 3.806672-1.7150942 6.755798-4.0785777 8.847376-7.0904505 2.091579-3.0118728 3.137368-6.4002297 3.137368-10.1650707-.083663-4.1831567-1.234032-7.5715136-3.451105-10.1650707s-4.873377-4.538725-7.968913-5.8355035c-3.095536-1.2967786-7.111366-2.614473-12.047491-3.9530831-3.932167-1.0876207-7.006788-2.0706626-9.223861-2.9491255s-4.057662-2.0497467-5.521766-3.5138516c-1.464105-1.4641048-2.196158-3.3256095-2.196158-5.5845141 0-2.8445465 1.213116-5.1452827 3.639347-6.9022085 2.42623-1.7569258 5.689093-2.6353887 9.788586-2.6353887 4.434146 0 7.968914 1.0876207 10.604302 3.2628622 2.635389 2.1752415 4.078578 5.0616196 4.329567 8.6591343h11.420018c-.334652-6.6930507-2.844546-11.9638281-7.529682-15.8123322-4.685135-3.8485041-10.834376-5.7727562-18.447721-5.7727562-4.936125 0-9.328439.8575471-13.176943 2.5726413-3.848504 1.7150943-6.818546 4.0367462-8.910124 6.9649559s-3.137367 6.1492403-3.137367 9.6630919c0 4.4341461 1.150368 8.010745 3.451104 10.7297968 2.300736 2.7190519 5.061619 4.7687986 8.28265 6.1492403s7.383272 2.7399677 12.486723 4.0785778c5.60543 1.4222733 9.746755 2.8654623 12.423975 4.3295671 2.67722 1.4641049 4.01583 3.7020937 4.01583 6.7139665 0 2.9282097-1.254947 5.3544405-3.764841 7.2786926s-5.940082 2.8863781-10.290565 2.8863781c-4.685135 0-8.470892-1.0876207-11.35727-3.2628622s-4.496894-4.9779564-4.831546-8.4081449h-11.796502c.250989 4.1831567 1.589599 7.8852503 4.01583 11.1062809 2.426231 3.2210307 5.730925 5.7309247 9.914082 7.529682 4.183156 1.7987574 8.910123 2.6981361 14.180901 2.6981361z" fill="#3a3a3a" transform="translate(273.715092 58.894922)"/><path d="m107.78 7.74c55.29 0 100.12 44.82 100.12 100.12s-44.83 100.12-100.12 100.12-100.12-44.82-100.12-100.12 44.83-100.12 100.12-100.12m0-7.66c-59.43 0-107.78 48.35-107.78 107.78s48.35 107.78 107.78 107.78 107.78-48.35 107.78-107.78-48.35-107.78-107.78-107.78m17.54 21.49c-8.78-1.6-30.02 30.66-37.04 50.3-.53 1.49-1.76 6.95-1.76 8.38 0 0 5.5 11.83 7.03 14.61-2.55-1.33-7.85-11.58-7.85-11.58-2.55 4.87-5 27.23-4.21 31.38 0 0 5.69 8.47 7.9 10.59-3.03-1.01-8.14-7.88-8.14-7.88-.96 2.95-.77 9.1-.32 11.18 3.83 5.59 8.94 6.23 8.94 6.23s-5.59 55.73 2.87 59.88c5.27-1.12 6.55-62.27 6.55-62.27s6.39.48 7.82-1.12c3.25-2.24 10.8-25.45 10.91-28.8 0 0-8.77 1.64-13.04 3.3 3.22-3.2 13.51-5.35 13.51-5.35 2.79-3.35 8.67-26.14 9.26-33.17.15-1.76.49-3.92.23-7.07 0 0-8.37 1.83-10.12 1.2 1.77-.2 10.33-3.49 10.33-3.49 1.52-13.64 1.99-35.43-2.87-36.32zm-30.63 144.57c-.67 16.42-1.09 21.05-1.78 24.92-.32.72-.64.84-.96-.08-2.93-13.47-2.71-114.88 30.66-161.03-19.41 35.45-28.24 103.46-27.92 136.19z" fill="#3a3a4a"/></g></g></svg>