<svg height="217" viewBox="0 0 838 217" width="838" xmlns="http://www.w3.org/2000/svg"><g fill="none" fill-rule="evenodd" transform="translate(0 .92)"><path d="m.43 0h837v216h-837z"/><g fill="#f2f4fa" fill-rule="nonzero"><path d="m21.0831096 132v-39.4053358h30.8716962v-9.2866078h-30.8716962v-29.4912545h38.0248941v-9.2866078h-49.4449118v87.4698059zm81.5715554 1.129452c8.198987 0 15.059364-2.070662 20.58113-6.211987 5.521767-4.141325 9.202945-9.516682 11.043534-16.126069h-12.298481c-1.33861 3.848504-3.660262 6.923124-6.964955 9.22386-3.304694 2.300736-7.425104 3.451104-12.361228 3.451104-6.023746 0-11.1481129-1.903336-15.3731012-5.710008-4.2249882-3.806673-6.5466401-9.098366-6.9649558-15.87508h54.966679c.250989-2.4262309.376484-4.726967.376484-6.9022085 0-6.274735-1.359526-11.9010807-4.078578-16.8790371-2.719052-4.9779565-6.588472-8.889208-11.60826-11.7337545s-10.792544-4.2668198-17.318268-4.2668198c-6.6930511 0-12.6122178 1.4431891-17.7575005 4.3295672s-9.1401973 7.0067874-11.9847438 12.3612279-4.2668198 11.587344-4.2668198 18.6987103c0 7.1113665 1.4641048 13.3651855 4.3923145 18.7614575s6.9649558 9.558513 12.1102385 12.486723c5.1452827 2.928209 10.9807863 4.392314 17.5065111 4.392314zm21.208604-40.5347878h-43.4211663c.5856419-6.5257244 2.9072939-11.6291755 6.9649558-15.3103534 4.057662-3.6811779 8.9728711-5.5217668 14.7456275-5.5217668 4.01583 0 7.676092.8157156 10.980786 2.4471466 3.304694 1.6314312 5.919167 4.0158304 7.843419 7.153198 1.924252 3.1373675 2.886378 6.8812927 2.886378 11.2317756zm55.092173 40.5347878c5.940083 0 11.148113-1.317694 15.62409-3.953083 4.475978-2.635388 7.843419-5.960998 10.102324-9.976828v12.800459h11.545512v-68.7710956h-11.545512v12.54947c-2.175242-3.9321673-5.479936-7.1950295-9.914082-9.7885866s-9.663092-3.8903357-15.686837-3.8903357c-6.107409 0-11.650091 1.4641048-16.628048 4.3923145-4.977956 2.9282097-8.889208 7.048619-11.733754 12.361228-2.844547 5.3126089-4.26682 11.482765-4.26682 18.5104682 0 6.9440402 1.422273 13.1351122 4.26682 18.5732152 2.844546 5.438104 6.734882 9.663092 11.671007 12.674965s10.457891 4.517809 16.5653 4.517809zm2.384399-10.039576c-4.266819 0-8.157155-1.024873-11.671007-3.07462-3.513851-2.049747-6.316566-5.019788-8.408145-8.910124-2.091578-3.890335-3.137367-8.470892-3.137367-13.7416692 0-5.1871143 1.045789-9.7049235 3.137367-13.5534276 2.091579-3.8485041 4.894294-6.7767138 8.408145-8.784629 3.513852-2.0079152 7.404188-3.0118728 11.671007-3.0118728 4.26682 0 8.178072 1.0248734 11.733755 3.0746202 3.555683 2.0497467 6.379314 4.9988722 8.470892 8.8473763 2.091579 3.8485041 3.137368 8.3663133 3.137368 13.5534276 0 5.1871145-1.045789 9.7258395-3.137368 13.6161745-2.091578 3.890336-4.915209 6.860377-8.470892 8.910124s-7.466935 3.07462-11.733755 3.07462zm86.089365 8.910124v-9.663092h-8.408145c-3.513852 0-5.981914-.690221-7.404188-2.070662-1.422273-1.380442-2.133409-3.743926-2.133409-7.090451v-40.5347881h17.945742v-9.4121025h-17.945742v-17.3182686h-11.420018v17.3182686h-8.910124v9.4121025h8.910124v40.5347881c0 6.693051 1.589599 11.503681 4.768798 14.431891 3.1792 2.928209 7.947998 4.392314 14.306396 4.392314zm25.224434 0v-38.0248941c0-7.1950295 1.777842-12.6749647 5.333525-16.4398057s8.345398-5.6472615 14.369143-5.6472615c5.940083 0 10.625218 1.8196732 14.055407 5.4590195 3.430188 3.6393463 5.145282 8.8892079 5.145282 15.7495848v38.903357h11.294523v-40.5347881c0-6.3583981-1.192199-11.7546702-3.576599-16.1888163-2.384399-4.4341461-5.668177-7.7597556-9.851334-9.9768286-4.183156-2.2170731-8.868292-3.3256096-14.055406-3.3256096-4.936125 0-9.391187.962126-13.365185 2.8863781-3.973999 1.9242521-7.090451 4.6433039-9.349356 8.1571555v-33.883569h-11.420017v92.866078zm98.638835 1.129452c8.198987 0 15.059364-2.070662 20.58113-6.211987 5.521767-4.141325 9.202945-9.516682 11.043534-16.126069h-12.298481c-1.33861 3.848504-3.660262 6.923124-6.964955 9.22386-3.304694 2.300736-7.425104 3.451104-12.361228 3.451104-6.023746 0-11.148113-1.903336-15.373101-5.710008-4.224988-3.806673-6.54664-9.098366-6.964956-15.87508h54.966679c.250989-2.4262309.376484-4.726967.376484-6.9022085 0-6.274735-1.359526-11.9010807-4.078578-16.8790371-2.719052-4.9779565-6.588472-8.889208-11.60826-11.7337545s-10.792544-4.2668198-17.318268-4.2668198c-6.693051 0-12.612218 1.4431891-17.7575 4.3295672-5.145283 2.8863781-9.140198 7.0067874-11.984744 12.3612279-2.844547 5.3544405-4.26682 11.587344-4.26682 18.6987103 0 7.1113665 1.464105 13.3651855 4.392314 18.7614575 2.92821 5.396272 6.964956 9.558513 12.110239 12.486723 5.145283 2.928209 10.980786 4.392314 17.506511 4.392314zm21.208604-40.5347878h-43.421166c.585642-6.5257244 2.907294-11.6291755 6.964956-15.3103534s8.972871-5.5217668 14.745627-5.5217668c4.01583 0 7.676092.8157156 10.980786 2.4471466 3.304694 1.6314312 5.919167 4.0158304 7.843419 7.153198 1.924252 3.1373675 2.886378 6.8812927 2.886378 11.2317756zm38.275883 39.4053358v-37.3974206c0-13.8880801 6.40023-20.8321202 19.200689-20.8321202h3.011873v-11.7965018c-5.35444 0-9.893165 1.0876207-13.616175 3.2628622-3.723009 2.1752415-6.588471 5.2289458-8.596387 9.1611131v-11.1690283h-11.420017v68.7710956zm59.735478 1.129452c4.936124 0 9.307523-.857547 13.114196-2.572641 3.806672-1.715094 6.755798-4.078578 8.847376-7.090451 2.091578-3.011872 3.137368-6.400229 3.137368-10.16507-.083664-4.183157-1.234032-7.571514-3.451105-10.165071s-4.873377-4.538725-7.968913-5.8355035c-3.095536-1.2967786-7.111366-2.614473-12.047491-3.9530831-3.932168-1.0876207-7.006788-2.0706625-9.223861-2.9491254-2.217073-.878463-4.057662-2.0497468-5.521767-3.5138516-1.464104-1.4641049-2.196157-3.3256096-2.196157-5.5845142 0-2.8445465 1.213116-5.1452827 3.639346-6.9022085 2.426231-1.7569258 5.689094-2.6353887 9.788587-2.6353887 4.434146 0 7.968914 1.0876207 10.604302 3.2628622 2.635389 2.1752415 4.078578 5.0616196 4.329567 8.6591343h11.420018c-.334652-6.6930507-2.844546-11.9638281-7.529682-15.8123322-4.685135-3.8485041-10.834376-5.7727562-18.447721-5.7727562-4.936125 0-9.328439.8575471-13.176943 2.5726414-3.848504 1.7150942-6.818546 4.0367461-8.910124 6.9649558s-3.137368 6.1492403-3.137368 9.6630919c0 4.4341461 1.150369 8.010745 3.451105 10.7297968 2.300736 2.7190519 5.061619 4.7687986 8.28265 6.1492404 3.221031 1.3804417 7.383271 2.7399676 12.486723 4.0785776 5.60543 1.422273 9.746755 2.865462 12.423975 4.329567s4.01583 3.702094 4.01583 6.713967c0 2.928209-1.254947 5.35444-3.764841 7.278692s-5.940082 2.886378-10.290565 2.886378c-4.685136 0-8.470892-1.08762-11.35727-3.262862-2.886379-2.175241-4.496894-4.977956-4.831546-8.408145h-11.796502c.250989 4.183157 1.589599 7.885251 4.01583 11.106281 2.426231 3.221031 5.730925 5.730925 9.914081 7.529682 4.183157 1.798758 8.910124 2.698136 14.180902 2.698136z" transform="translate(264.052 19.761)"/><path d="m107.78 7.74c55.29 0 100.12 44.82 100.12 100.12s-44.83 100.12-100.12 100.12-100.12-44.82-100.12-100.12 44.83-100.12 100.12-100.12m0-7.66c-59.43 0-107.78 48.35-107.78 107.78s48.35 107.78 107.78 107.78 107.78-48.35 107.78-107.78-48.35-107.78-107.78-107.78m17.54 21.49c-8.78-1.6-30.02 30.66-37.04 50.3-.53 1.49-1.76 6.95-1.76 8.38 0 0 5.5 11.83 7.03 14.61-2.55-1.33-7.85-11.58-7.85-11.58-2.55 4.87-5 27.23-4.21 31.38 0 0 5.69 8.47 7.9 10.59-3.03-1.01-8.14-7.88-8.14-7.88-.96 2.95-.77 9.1-.32 11.18 3.83 5.59 8.94 6.23 8.94 6.23s-5.59 55.73 2.87 59.88c5.27-1.12 6.55-62.27 6.55-62.27s6.39.48 7.82-1.12c3.25-2.24 10.8-25.45 10.91-28.8 0 0-8.77 1.64-13.04 3.3 3.22-3.2 13.51-5.35 13.51-5.35 2.79-3.35 8.67-26.14 9.26-33.17.15-1.76.49-3.92.23-7.07 0 0-8.37 1.83-10.12 1.2 1.77-.2 10.33-3.49 10.33-3.49 1.52-13.64 1.99-35.43-2.87-36.32zm-30.63 144.57c-.67 16.42-1.09 21.05-1.78 24.92-.32.72-.64.84-.96-.08-2.93-13.47-2.71-114.88 30.66-161.03-19.41 35.45-28.24 103.46-27.92 136.19z"/></g></g></svg>