<svg xmlns="http://www.w3.org/2000/svg" xmlns:xlink="http://www.w3.org/1999/xlink" width="95" height="95" viewBox="0 0 95 95"><defs><path id="a" d="M0,47.3460423 C0,73.4938045 21.1308562,94.6898747 47.1948891,94.6898747 C73.261125,94.6898747 94.3912469,73.4938045 94.3912469,47.3460423 C94.3912469,21.1975435 73.261125,0 47.1948891,0 C21.1308562,0 0,21.1975435 0,47.3460423 Z"/><path id="c" d="M0,8.18112031 L0,40.6934493 C0,45.2112605 3.65105008,48.8753063 8.15464826,48.8753063 C12.6604494,48.8753063 16.3107652,45.2112605 16.3107652,40.6934493 L16.3107652,8.18112031 C16.3107652,3.6625725 12.6604494,0 8.15464826,0 C3.65105008,0 0,3.6625725 0,8.18112031 Z"/><path id="e" d="M0,47.3438324 C0,73.4945411 21.1337935,94.6876648 47.1948891,94.6876648 C73.2633279,94.6876648 94.3971215,73.4945411 94.3971215,47.3438324 C94.3971215,21.2004901 73.2633279,0 47.1948891,0 C21.1337935,0 0,21.2004901 0,47.3438324 Z"/></defs><g fill="none" fill-rule="evenodd"><path fill="#E6E6E6" fill-rule="nonzero" d="M47.5,0 C21.2663954,0 0,21.2663954 0,47.5 C0,73.7343436 21.2663954,95 47.5,95 C73.7336046,95 95,73.7343436 95,47.5 C95,21.2663954 73.7336046,0 47.5,0" transform="matrix(0 -1 -1 0 95 95)"/><g transform="translate(.007)"><mask id="b" fill="#fff"><use xlink:href="#a"/></mask><path fill="#4D4D4D" fill-rule="nonzero" d="M55.8606256,65.2574362 L55.8606256,32.7451072 C55.8606256,28.2265593 59.5116757,24.5639868 64.0152739,24.5639868 C68.5203407,24.5639868 72.1713908,28.2265593 72.1713908,32.7451072 L72.1713908,65.2574362 C72.1713908,69.775984 68.5203407,73.4385565 64.0152739,73.4385565 C59.5116757,73.4385565 55.8606256,69.775984 55.8606256,65.2574362" mask="url(#b)"/></g><g transform="translate(55.867 24.565)"><mask id="d" fill="#fff"><use xlink:href="#c"/></mask><path fill="#666" fill-rule="nonzero" d="M-10.2584814,58.7146025 L-10.2584814,25.7212478 C-10.2584814,20.675266 -6.18079013,16.5854424 -1.15141724,16.5854424 C3.35291526,16.5854424 7.00469966,20.2480149 7.00469966,24.7665628 L7.00469966,41.3969402 C7.00469966,50.9614699 -0.724776032,58.7146025 -10.2584814,58.7146025" mask="url(#d)"/></g><g transform="translate(0 .001)"><mask id="f" fill="#fff"><use xlink:href="#e"/></mask><g mask="url(#f)"><g transform="translate(-3.874 32.03)"><path fill="#B3B3B3" fill-rule="nonzero" d="M11.9055662,3.33845104 C11.9055662,1.49464192 10.4163607,0 8.57835218,0 L0,0 L0,6.67616544 L8.57835218,6.67616544 C10.4163607,6.67616544 11.9055662,5.18226017 11.9055662,3.33845104" transform="translate(76.048 3.004)"/><path fill="#B3B3B3" fill-rule="nonzero" d="M11.9055662,3.33845104 C11.9055662,1.49464192 10.4163607,0 8.57835218,0 L0,0 L0,6.67690208 L8.57835218,6.67690208 C10.4163607,6.67690208 11.9055662,5.18226017 11.9055662,3.33845104" transform="translate(76.048 24.263)"/><path fill="#333" fill-rule="nonzero" d="M8.06212366,8.08756707 L19.1966515,8.08756707 C23.6495814,8.08756707 27.2587752,4.46624639 27.2587752,-3.27133734e-16 L0,-3.27133734e-16 C0,4.46624639 3.60992804,8.08756707 8.06212366,8.08756707" transform="matrix(0 -1 -1 0 59.752 30.896)"/><path stroke="#333" stroke-width="2.198" d="M51.0757821,16.9736516 C45.9083566,16.9736516 41.7190483,22.0682516 41.7190483,28.3525247 L41.6382729,29.872949 C41.6382729,34.9108278 38.3609928,37.709322 34.2179468,37.709322 C30.0749009,37.709322 26.8695844,35.4640442 26.8695844,30.4261654 L26.7168454,7.24116808 C26.7168454,3.2412146 23.4858276,0 19.4991922,0 C15.5118226,0 12.2808048,3.2412146 12.2808048,7.24116808 L12.2808048,16.1743975 C12.2808048,22.9780016 6.78293435,28.4939596 0,28.4939596"/></g></g></g></g></svg>