<svg height="84" viewBox="0 0 100 84" width="100" xmlns="http://www.w3.org/2000/svg" xmlns:xlink="http://www.w3.org/1999/xlink"><mask id="a" fill="#fff"><path d="m11.5841377 0h-11.0179923c-.31449047 0-.57074197.25556634-.5661454.56964572.03747252 2.59088081 2.26740871 8.11097663 3.24431617 8.11097663h5.66151376c.97731856 0 3.20684367-5.52009582 3.24444967-8.11097663.0044631-.31407938-.2516514-.56964572-.5661419-.56964572z" fill="#fff" fill-rule="evenodd"/></mask><mask id="b" fill="#fff"><path d="m0 0v3.50132732c0 .33614167.27242138.60870009.60870009.60870009h.6462471c.33600464 0 .60856305-.27255842.60856305-.60870009v-3.50132732z" fill="#fff" fill-rule="evenodd"/></mask><mask id="c" fill="#fff"><path d="m0 0v3.50132732c0 .33614167.27255841.60870009.60870009.60870009h.64611007c.33614167 0 .60870008-.27255842.60870008-.60870009v-3.50132732z" fill="#fff" fill-rule="evenodd"/></mask><g fill="none" fill-rule="evenodd" transform="translate(-.000903 -.000776)"><path d="m8.05698568 2.58293291h-8.05698568v-2.18279688c0-.22089701.17923902-.40013603.40013603-.40013603h7.25671362c.22089701 0 .40013603.17923902.40013603.40013603z" fill="#27464f" fill-rule="nonzero" transform="translate(39.18154 40.294521)"/><path d="m0 0h10.900692v10.900692h-10.900692z" fill="#e0e0e0" transform="matrix(-1 0 0 1 89.370657 34.939275)"/><g fill-rule="nonzero" transform="translate(79.128973 35.612694)"><path d="m4.37614528 0c-2.41684905 0-4.37614528 1.9591592-4.37614528 4.37614528 0 2.41671201 1.95929623 4.37587121 4.37614528 4.37587121 2.41684904 0 4.37614527-1.9591592 4.37614527-4.37587121 0-2.41698608-1.95929623-4.37614528-4.37614527-4.37614528" fill="#bcbcbc" transform="matrix(0 -1 -1 0 9.167894 9.153072)"/><g fill="#e0e0e0"><path d="m.58608976.00766157c1.49968816-.12881094 2.87426528 1.39225436 2.21253336 2.63103187-.55100933.89688039-1.27714672 1.33552274-2.21253336 1.22658157-.49934793-.05823898-.80561648-.78286901-.25967737-1.46159301.4309685-.53730604.23268188-1.05529044-.32641239-1.62945833" transform="matrix(.78424688 -.6204489 -.6204489 -.78424688 4.937485 4.886394)"/><path d="m.58608955.00764642c1.4995506-.12867386 2.87426427 1.39225387 2.21239555 2.63116797-.55100914.89701711-1.27700924 1.33552227-2.21239555 1.22644411-.49934775-.05823896-.80561619-.78286873-.25967727-1.46131843.43083131-.53730585.2326818-1.05529007-.32641228-1.62973182" transform="matrix(.62043212 .78426015 .78426015 -.62043212 4.609685 4.8763)"/><path d="m.58608976.00766157c1.49968816-.12881094 2.87426528 1.39225436 2.21253336 2.63103187-.55100933.89688039-1.27714672 1.33552274-2.21253336 1.22658157-.49934793-.05823898-.80547945-.78286901-.25967737-1.46159301.4309685-.53730604.23268188-1.05501638-.32641239-1.62945833" transform="matrix(-.78424688 .6204489 .6204489 .78424688 4.658685 4.701622)"/><path d="m.58595252.00764642c1.4995506-.12867386 2.87426427 1.39225387 2.21239555 2.63116797-.55100914.89701711-1.27700924 1.33552227-2.21239555 1.22644411-.49934775-.05823896-.8056162-.78286873-.25967728-1.46131843.43096835-.53744288.2326818-1.05529007-.32627524-1.62973182" transform="matrix(-.62043212 -.78426015 -.78426015 .62043212 4.886274 4.644014)"/></g><path d="m.60034108 0c-.33161959 0-.60034108.26872149-.60034108.60034108 0 .33148256.26872149.60034108.60034108.60034108s.60034108-.26885852.60034108-.60034108c0-.33161959-.26872149-.60034108-.60034108-.60034108" fill="#bcbcbc" transform="matrix(0 -1 -1 0 5.392227 5.376857)"/></g><path d="m75.1648686 1.24261423h-74.54356149c-.34299332 0-.62130711-.27803973-.62130711-.62130712 0-.34313035.27831379-.62130711.62130711-.62130711h74.54356149c.3431304 0 .6213071.27817676.6213071.62130711 0 .34326739-.2781767.62130712-.6213071.62130712z" fill="#e0e0e0" fill-rule="nonzero" transform="translate(19.436882 82.308804)"/><path d="m2.2599572 0c-2.43589698 1.75333606-2.98909883 5.14955967-1.23576277 7.58545665l1.23576277 1.71674827c1.7534731 2.43589698 5.1496967 2.98923588 7.58559368 1.23589978z" fill="#27464f" fill-rule="nonzero" transform="matrix(.58421091 .81160188 .81160188 -.58421091 14.143709 38.326803)"/><path d="m3.11695007 0c0 .86070357-.69777147 1.55847503-1.55847504 1.55847503-.86070356 0-1.55847503-.69777146-1.55847503-1.55847503" fill="#f2c666" fill-rule="nonzero" transform="translate(20.398442 40.159817)"/><path d="m0 1.28440926c0-.70941926.57499-1.28440926 1.28427223-1.28440926.70941926 0 1.28440926.57499 1.28440926 1.28440926" fill="#3e6970" fill-rule="nonzero" transform="translate(20.671959 33.441506)"/><path d="m0 0h1v6.425061h-1z" fill="#3e6970" transform="matrix(-1 0 0 1 22.335539 27.016034)"/><path d="m33.540718 42.877591h1.706059v39.621689h-1.706059z" fill="#27464f"/><path d="m51.045299 42.877591h1.706196v39.621689h-1.706196z" fill="#27464f"/><path d="m4.92153617 1.86419541h-4.69282828c-.12634432 0-.22870789-.10236357-.22870789-.22870789v-1.40691666c0-.12607026.10236357-.22857086.22870789-.22857086h4.69282828c.12634432 0 .22870789.1025006.22870789.22857086v1.40691666c0 .12634432-.10236357.22870789-.22870789.22870789" fill="#e0e0e0" fill-rule="nonzero" transform="translate(24.598637 63.888843)"/><path d="m4.92139914 1.86419541h-4.69282828c-.12620729 0-.22857086-.10236357-.22857086-.22857086v-1.40691666c0-.12620729.10236357-.22870789.22857086-.22870789h4.69282828c.12634432 0 .22870789.1025006.22870789.22870789v1.40691666c0 .12620729-.10236357.22857086-.22870789.22857086" fill="#e0e0e0" fill-rule="nonzero" transform="translate(22.023926 65.753861)"/><path d="m4.92153617 1.86419541h-4.69282828c-.12634432 0-.22870789-.10236357-.22870789-.22857086v-1.40691666c0-.12620729.10236357-.22870789.22870789-.22870789h4.69282828c.12634432 0 .22870789.1025006.22870789.22870789v1.40691666c0 .12620729-.10236357.22857086-.22870789.22857086" fill="#e0e0e0" fill-rule="nonzero" transform="translate(64.425875 35.925912)"/><path d="m4.92153617 1.86419541h-4.69282828c-.12634432 0-.22870789-.10236357-.22870789-.22870789v-1.40691666c0-.12620729.10236357-.22857086.22870789-.22857086h4.69282828c.12634432 0 .22870789.10236357.22870789.22857086v1.40691666c0 .12634432-.10236357.22870789-.22870789.22870789" fill="#e0e0e0" fill-rule="nonzero" transform="translate(94.267527 51.109156)"/><path d="m0 0h15.798111v5.529414h-15.798111z" fill="#3e6970" transform="matrix(-1 0 0 1 51.0453 42.877591)"/><path d="m5.26589982 1.48502541h-4.90755882c-.19801252 0-.358341-.16032848-.358341-.35820397v-.76861747c0-.19773846.16032848-.35820397.358341-.35820397h4.90755882c.19773846 0 .35820397.16046551.35820397.35820397v.76861747c0 .19787549-.16046551.35820397-.35820397.35820397" fill="#72c174" fill-rule="nonzero" transform="translate(36.195319 44.837161)"/><path d="m.47385973 0c-.26173282 0-.47385973.21226394-.47385973.47399676s.21212691.47385973.47385973.47385973c.26173281 0 .47399676-.21212691.47399676-.47385973s-.21226395-.47399676-.47399676-.47399676" fill="#27464f" fill-rule="nonzero" transform="matrix(0 -1 -1 0 46.875115 46.053602)"/><path d="m.47385973 0c-.26173282 0-.47385973.21226394-.47385973.47399676 0 .26159578.21212691.47385973.47385973.47385973.26173281 0 .47399676-.21226395.47399676-.47385973 0-.26173282-.21226395-.47399676-.47399676-.47399676" fill="#27464f" fill-rule="nonzero" transform="matrix(0 -1 -1 0 48.422216 46.053602)"/><path d="m.47399676 0c-.26173282 0-.47399676.21226394-.47399676.47385973 0 .26186985.21226394.47413379.47399676.47413379s.47385973-.21226394.47385973-.47413379c0-.26159579-.21212691-.47385973-.47385973-.47385973" fill="#3e6970" fill-rule="nonzero" transform="matrix(0 -1 -1 0 40.893766 42.193522)"/><path d="m.47399676 0c-.26173282 0-.47399676.21226394-.47399676.47399676s.21226394.47385973.47399676.47385973.47385973-.21212691.47385973-.47385973-.21212691-.47399676-.47385973-.47399676" fill="#3e6970" fill-rule="nonzero" transform="matrix(0 -1 -1 0 42.442237 42.193385)"/><path d="m.47385973 0c-.26173282 0-.47385973.21212691-.47385973.47385973 0 .26173281.21212691.47399676.47385973.47399676.26173281 0 .47399676-.21226395.47399676-.47399676 0-.26173282-.21226395-.47385973-.47399676-.47385973" fill="#27464f" fill-rule="nonzero" transform="matrix(0 -1 -1 0 49.970688 46.053602)"/><path d="m.47399676 0c-.26173282 0-.47399676.21212691-.47399676.47385973 0 .26173281.21226394.47399676.47399676.47399676s.47385973-.21226395.47385973-.47399676c0-.26173282-.21212691-.47385973-.47385973-.47385973" fill="#3e6970" fill-rule="nonzero" transform="matrix(0 -1 -1 0 46.401117 42.193385)"/><path d="m0 0h15.798111v5.529414h-15.798111z" fill="#3e6970" transform="matrix(-1 0 0 1 51.0453 48.406868)"/><path d="m5.26589982 1.48502541h-4.90755882c-.19801252 0-.358341-.16046551-.358341-.35820397v-.76861747c0-.19787549.16032848-.35820397.358341-.35820397h4.90755882c.19773846 0 .35820397.16032848.35820397.35820397v.76861747c0 .19773846-.16046551.35820397-.35820397.35820397" fill="#72c174" fill-rule="nonzero" transform="translate(36.195319 50.366438)"/><path d="m.47399676 0c-.26173282 0-.47399676.21226394-.47399676.47399676s.21226394.47385973.47399676.47385973.47385973-.21212691.47385973-.47385973-.21212691-.47399676-.47385973-.47399676" fill="#27464f" fill-rule="nonzero" transform="matrix(0 -1 -1 0 46.873882 51.58288)"/><path d="m.47399676 0c-.26173282 0-.47399676.21226394-.47399676.47399676 0 .26159578.21226394.47385973.47399676.47385973s.47385973-.21226395.47385973-.47385973c0-.26173282-.21212691-.47399676-.47385973-.47399676" fill="#27464f" fill-rule="nonzero" transform="matrix(0 -1 -1 0 48.422353 51.582879)"/><path d="m.47399676 0c-.26173282 0-.47399676.21212691-.47399676.47385973 0 .26173281.21226394.47399676.47399676.47399676s.47385973-.21226395.47385973-.47399676c0-.26173282-.21212691-.47385973-.47385973-.47385973" fill="#27464f" fill-rule="nonzero" transform="matrix(0 -1 -1 0 49.970825 51.582879)"/><path d="m0 0h15.798111v5.529414h-15.798111z" fill="#3e6970" transform="matrix(-1 0 0 1 51.0453 53.936145)"/><path d="m5.26589982 1.48502541h-4.90755882c-.19801252 0-.358341-.16046551-.358341-.35820397v-.76861747c0-.19787549.16032848-.35820397.358341-.35820397h4.90755882c.19773846 0 .35820397.16032848.35820397.35820397v.76861747c0 .19773846-.16046551.35820397-.35820397.35820397" fill="#ea5353" fill-rule="nonzero" transform="translate(36.195319 55.895715)"/><path d="m.47399676 0c-.26173282 0-.47399676.21226394-.47399676.47399676s.21226394.47385973.47399676.47385973.47385973-.21212691.47385973-.47385973-.21212691-.47399676-.47385973-.47399676" fill="#27464f" fill-rule="nonzero" transform="matrix(0 -1 -1 0 46.873882 57.112157)"/><path d="m.47399676 0c-.26173282 0-.47399676.21226394-.47399676.47399676 0 .26159578.21226394.47385973.47399676.47385973s.47385973-.21226395.47385973-.47385973c0-.26173282-.21212691-.47399676-.47385973-.47399676" fill="#27464f" fill-rule="nonzero" transform="matrix(0 -1 -1 0 48.422353 57.112156)"/><path d="m.47399676 0c-.26173282 0-.47399676.21212691-.47399676.47385973 0 .26173281.21226394.47399676.47399676.47399676s.47385973-.21226395.47385973-.47399676c0-.26173282-.21212691-.47385973-.47385973-.47385973" fill="#27464f" fill-rule="nonzero" transform="matrix(0 -1 -1 0 49.970825 57.112156)"/><path d="m35.260481 64.741188h15.798111v11.058554h-15.798111z" fill="#3e6970"/><path d="m.35820397 1.48502541h4.90755882c.19801252 0 .358341-.16032848.358341-.35820397v-.76861747c0-.19773846-.16032848-.35820397-.358341-.35820397h-4.90755882c-.19773846 0-.35820397.16046551-.35820397.35820397v.76861747c0 .19787549.16046551.35820397.35820397.35820397" fill="#72c174" fill-rule="nonzero" transform="translate(44.486357 66.699388)"/><path d="m.47399676 0c.26173282 0 .47385973.21226394.47385973.47399676s-.21212691.47385973-.47385973.47385973-.47399676-.21212691-.47399676-.47385973.21226394-.47399676.47399676-.47399676" fill="#27464f" fill-rule="nonzero" transform="matrix(0 1 1 0 39.430665 66.967972)"/><path d="m.47399676 0c.26173282 0 .47385973.21226394.47385973.47399676s-.21212691.47385973-.47385973.47385973-.47399676-.21212691-.47399676-.47385973.21226394-.47399676.47399676-.47399676" fill="#27464f" fill-rule="nonzero" transform="matrix(0 1 1 0 37.882193 66.967973)"/><path d="m.47399676 0c.26173282 0 .47385973.21212691.47385973.47385973 0 .26173281-.21212691.47399676-.47385973.47399676s-.47399676-.21226395-.47399676-.47399676c0-.26173282.21226394-.47385973.47399676-.47385973" fill="#27464f" fill-rule="nonzero" transform="matrix(0 1 1 0 36.335092 66.967972)"/><path d="m.35820397 1.48502541h4.90755882c.19801252 0 .358341-.16032848.358341-.35820397v-.76861747c0-.19773846-.16032848-.35820397-.358341-.35820397h-4.90755882c-.19773846 0-.35820397.16046551-.35820397.35820397v.76861747c0 .19787549.16046551.35820397.35820397.35820397" fill="#72c174" fill-rule="nonzero" transform="translate(44.486357 72.228665)"/><path d="m.47399676 0c.26173282 0 .47385973.21226394.47385973.47399676s-.21212691.47385973-.47385973.47385973-.47399676-.21212691-.47399676-.47385973.21226394-.47399676.47399676-.47399676" fill="#27464f" fill-rule="nonzero" transform="matrix(0 1 1 0 39.430665 72.497249)"/><path d="m.47399676 0c.26173282 0 .47385973.21226394.47385973.47399676s-.21212691.47385973-.47385973.47385973-.47399676-.21212691-.47399676-.47385973.21226394-.47399676.47399676-.47399676" fill="#27464f" fill-rule="nonzero" transform="matrix(0 1 1 0 37.882193 72.49725)"/><path d="m.47399676 0c.26173282 0 .47385973.21212691.47385973.47385973 0 .26173281-.21212691.47399676-.47385973.47399676s-.47399676-.21226395-.47399676-.47399676c0-.26173282.21226394-.47385973.47399676-.47385973" fill="#27464f" fill-rule="nonzero" transform="matrix(0 1 1 0 36.335092 72.497249)"/><path d="m35.260481 75.798372h15.798111v5.529414h-15.798111z" fill="#3e6970"/><path d="m.35820397 1.48502541h4.90755882c.19801252 0 .358341-.16046551.358341-.35820397v-.76861747c0-.19787549-.16032848-.35820397-.358341-.35820397h-4.90755882c-.19773846 0-.35820397.16032848-.35820397.35820397v.76861747c0 .19773846.16046551.35820397.35820397.35820397" fill="#ea5353" fill-rule="nonzero" transform="translate(44.486357 77.757942)"/><path d="m.47385973 0c.26173281 0 .47399676.21226394.47399676.47399676s-.21226395.47385973-.47399676.47385973c-.26173282 0-.47385973-.21212691-.47385973-.47385973s.21212691-.47399676.47385973-.47399676" fill="#27464f" fill-rule="nonzero" transform="matrix(0 1 1 0 39.430528 78.026526)"/><path d="m.47385973 0c.26173281 0 .47399676.21226394.47399676.47399676s-.21226395.47385973-.47399676.47385973c-.26173282 0-.47385973-.21212691-.47385973-.47385973s.21212691-.47399676.47385973-.47399676" fill="#27464f" fill-rule="nonzero" transform="matrix(0 1 1 0 37.883426 78.026527)"/><path d="m.47385973 0c.26173281 0 .47399676.21212691.47399676.47385973 0 .26173281-.21226395.47399676-.47399676.47399676-.26173282 0-.47385973-.21226395-.47385973-.47399676 0-.26173282.21212691-.47385973.47385973-.47385973" fill="#27464f" fill-rule="nonzero" transform="matrix(0 1 1 0 36.334955 78.026526)"/><path d="m0 0h5.274807v5.274807h-5.274807z" fill="#27464f" transform="matrix(-1 0 0 1 40.522544 59.466792)"/><path d="m0 0h5.274807v5.274807h-5.274807z" fill="#27464f" transform="matrix(-1 0 0 1 45.795568 59.466792)"/><path d="m0 0h5.274807v5.274807h-5.274807z" fill="#27464f" transform="matrix(-1 0 0 1 51.045298 59.466792)"/><path d="m.3187385 0c-.17608726 0-.3187385.14265124-.3187385.3187385s.14265124.3187385.3187385.3187385.3187385-.14265124.3187385-.3187385-.14265124-.3187385-.3187385-.3187385" fill="#fff" fill-rule="nonzero" transform="matrix(0 -1 -1 0 38.203399 62.421495)"/><circle cx=".318738" cy=".318738" r="1" stroke="#000" stroke-width=".5" transform="matrix(0 -1 -1 0 38.203399 62.421495)"/><g fill-rule="nonzero" transform="translate(35.406507 59.601729)"><g fill="#e0e0e0"><path d="m.30585747.0039894c.78259497-.06714613 1.49982524.72668555 1.15463933 1.37293277-.28776912.46796741-.66666513.69694941-1.15463933.63994371-.26049958-.0304213-.42041699-.40849511-.13552556-.76245113.22487102-.28050638.12141117-.55087232-.17033191-.85028924" transform="matrix(.78430385 -.62037687 -.62037687 -.78430385 2.576733 2.54981)"/><path d="m.30599455.00398939c.78245808-.06714614 1.49982551.72668568 1.15450251 1.37307005-.28763214.46796748-.66652821.69694952-1.15450251.63994382-.26049961-.03028428-.42041705-.40849519-.13552557-.7625883.22487105-.28036939.12141118-.55073538-.17046898-.85028938" transform="matrix(.62041877 .78427071 .78427071 -.62041877 2.406292 2.545323)"/><path d="m.30599458.00400582c.78245814-.06728318 1.4996886.72641167 1.1545026 1.37279609-.28763216.46810456-.66652827.69694958-1.1545026.64008091-.26063667-.03042132-.42041709-.40849522-.13566262-.76258837.2250081-.28050645.12154822-.55073542-.17033196-.85028945" transform="matrix(-.78424464 .62045172 .62045172 .78424464 2.43168 2.453066)"/><path d="m.30585752.0039894c.78259511-.06714614 1.49982551.72668568 1.15463954 1.37293301-.28776917.46810452-.66652821.69694953-1.15463954.64008086-.26049962-.03028428-.42028002-.40863222-.13538854-.7625883.22487105-.28036939.12141118-.55087242-.17046898-.85028939" transform="matrix(-.62041877 -.78427071 -.78427071 .62041877 2.549888 2.423638)"/></g><path d="m.31325718 0c-.17307254 0-.31325718.14018464-.31325718.31312015 0 .17307254.14018464.31339421.31325718.31339421s.31325718-.14032167.31325718-.31339421c0-.17293551-.14018464-.31312015-.31325718-.31312015" fill="#27464f" transform="matrix(0 -1 -1 0 2.814706 2.806062)"/></g><g fill-rule="nonzero" transform="translate(40.682273 59.592137)"><g fill="#e0e0e0"><path d="m.30585747.0039894c.78259497-.06714613 1.49982524.72668555 1.15463933 1.37293277-.28776912.46796741-.66666513.69694941-1.15463933.63994371-.26049958-.0304213-.42041699-.40849511-.13552556-.76245113.22487102-.28050638.12141117-.55087232-.17033191-.85028924" transform="matrix(.78430385 -.62037687 -.62037687 -.78430385 2.575363 2.54981)"/><path d="m.30599455.00398939c.78245808-.06714614 1.49982551.72668568 1.15450251 1.37307005-.28763214.46796748-.66652821.69694952-1.15450251.63994382-.26049961-.03028428-.42041705-.40849519-.13552557-.7625883.22487105-.28036939.12141118-.55073538-.17046898-.85028938" transform="matrix(.62041877 .78427071 .78427071 -.62041877 2.404921 2.545323)"/><path d="m.30599452.00400519c.78259504-.06728317 1.49968834.72654857 1.1545024 1.37279584-.28763211.46810448-.66652815.69694946-1.1545024.63994377-.26077365-.03028428-.42041701-.40835812-.13566259-.7624512.22500806-.2805064.1215482-.55073533-.17033193-.8502893" transform="matrix(-.78427778 .62040984 .62040984 .78427778 2.430401 2.454384)"/><path d="m.30585752.0039894c.78259511-.06714614 1.49982551.72668568 1.15463954 1.37293301-.28776917.46810452-.66652821.69694953-1.15463954.64008086-.26049962-.03028428-.42028002-.40863222-.13538854-.7625883.22487105-.28036939.12141118-.55087242-.17046898-.85028939" transform="matrix(-.62041877 -.78427071 -.78427071 .62041877 2.549889 2.425009)"/></g><path d="m.31325718 0c-.17307254 0-.31325718.14018464-.31325718.31312015 0 .17307254.14018464.31339421.31325718.31339421s.31325718-.14032167.31325718-.31339421c0-.17293551-.14018464-.31312015-.31325718-.31312015" fill="#27464f" transform="matrix(0 -1 -1 0 2.813337 2.807433)"/></g><g fill-rule="nonzero" transform="translate(45.942966 59.601748)"><g fill="#e0e0e0"><path d="m.30585752.00399003c.78245808-.06714614 1.49982551.72654864 1.15450251 1.37293301-.28763214.46796749-.66652822.69694953-1.15450251.64008086-.26063665-.03042131-.42055409-.40849519-.13552558-.7625883.22473402-.2803694.12127415-.55073538-.17033194-.85028939" transform="matrix(.78427071 -.62041877 -.62041877 -.78427071 2.576766 2.549832)"/><path d="m.30599455.00399002c.78232105-.06714614 1.49982551.72654864 1.15436548 1.37307005-.28749511.46796748-.66639118.69681249-1.15436548.63994382-.26063665-.03042131-.42055409-.40849519-.13552557-.7625883.22473402-.28036939.12127415-.55073538-.17046898-.85028939" transform="matrix(.62041877 .78427071 .78427071 -.62041877 2.406375 2.545412)"/><path d="m.30599458.00399067c.78232111-.06714614 1.4996886.72641167 1.15436557 1.37279609-.28749513.46810456-.66639124.69694959-1.15436557.64008091-.26063667-.03042131-.42041709-.40835819-.13566262-.76258836.2250081-.28050645.12141119-.5505984-.17033196-.85028946" transform="matrix(-.78424464 .62045172 .62045172 .78424464 2.431688 2.453059)"/><path d="m.30585752.0039894c.78259511-.06714614 1.49982551.72668568 1.15463954 1.37293301-.28776917.46810452-.66652821.69694953-1.15463954.64008086-.26049962-.03028428-.42028002-.40863222-.13552558-.7625883.22500809-.28036939.12154822-.55087242-.17033194-.85042642" transform="matrix(-.62041877 -.78427071 -.78427071 .62041877 2.549888 2.423619)"/></g><path d="m.31325718 0c-.17307254 0-.31325718.14018464-.31325718.31325718s.14018464.31325718.31325718.31325718.31325718-.14018464.31325718-.31325718-.14018464-.31325718-.31325718-.31325718" fill="#27464f" transform="matrix(0 -1 -1 0 2.814706 2.806043)"/></g><path d="m3.61615473 5.48651662 2.1633382-4.77203329c.11538169-.25433304.00274066-.55388694-.25159238-.66926863-.25433304-.11524466-.55388694-.00260362-.66926863.25172942l-1.8049972 3.98190165c-.05508722.12113708-.22747459.12113708-.28242478 0l-1.80513423-3.98190165c-.11524466-.25433304-.41479855-.36697408-.66913159-.25172942-.25433304.11538169-.36697408.41493559-.25172942.66926863l2.16347524 4.77203329" fill="#27464f" fill-rule="nonzero" transform="translate(40.260954 34.807867)"/><path d="m0 1.56238969c.30215752-.51373629.74162199-.94621209 1.27618729-1.3220933.8095903-.56937165 1.93175262-.07112007 2.07467792.90825398.36245199 2.4841322-.30380191 4.59156098-1.89324638 6.3607926" fill="#ccc" fill-rule="nonzero" transform="translate(79.020563 60.218203)"/><path d="m0 0c20.3734966 6.44191448 28.2546672 6.58251018 22.8073372 0" stroke="#27464f" stroke-width=".5" transform="matrix(-.28479906 .95858724 .95858724 .28479906 46.400284 45.579372)"/><path d="m0 0c16.9678157 6.75489616 28.6765856 9.85567496 23.8745442 0" stroke="#27464f" stroke-width=".5" transform="matrix(-.40176819 .91574141 .91574141 .40176819 47.949099 51.108249)"/><path d="m0 0c17.3346665 8.71899467 26.8409154 10.1586627 23.8744264 0" stroke="#27464f" stroke-width=".5" transform="matrix(-.40176986 .91574067 .91574067 .40176986 49.496823 56.637877)"/><g fill-rule="nonzero"><path d="m9.88553098 0c-2.24350244 3.20410299-5.25863708 4.54236617-8.9649656 4.20882812-.65611346-.05906117-1.1262733.63309194-.82987117 1.22137413 1.57258943 3.12160919 6.96606686 3.87268645 10.25444509 1.48927343" fill="#b8dddb" transform="translate(50.432783 59.14915)"/><path d="m.93360507 0c-.51565476 0-.93360507.41808734-.93360507.93360507 0 .51579179.41795031.93374209.93360507.93374209.51579179 0 .93374209-.4179503.93374209-.93374209 0-.51551773-.4179503-.93360507-.93374209-.93360507" fill="#e0e0e0" transform="matrix(0 -1 -1 0 5.391833 5.101323)"/><path d="m.93360507 0c-.51565476 0-.93360507.41808734-.93360507.93360507 0 .51579179.41795031.93374209.93360507.93374209.51579179 0 .93374209-.4179503.93374209-.93374209 0-.51551773-.4179503-.93360507-.93374209-.93360507" fill="#e0e0e0" transform="matrix(0 -1 -1 0 1.867348 1.867348)"/><path d="m.9337421 0c-.51579179 0-.9337421.41808734-.9337421.9337421s.41795031.9337421.9337421.9337421.9337421-.41808734.9337421-.9337421-.41795031-.9337421-.9337421-.9337421" fill="#e0e0e0" transform="matrix(0 -1 -1 0 10.06068 7.413205)"/><path d="m.93360507 0c-.51579179 0-.93360507.41808734-.93360507.93360507 0 .51579179.41781328.93374209.93360507.93374209s.93374209-.4179503.93374209-.93374209c0-.51551773-.4179503-.93360507-.93374209-.93360507" fill="#e0e0e0" transform="matrix(0 -1 -1 0 25.147865 16.950558)"/><path d="m.9337421 0c-.51592882 0-.9337421.41808734-.9337421.9337421s.41781328.93360506.9337421.93360506c.51565476 0 .93360506-.4179503.93360506-.93360506s-.4179503-.9337421-.93360506-.9337421" fill="#e0e0e0" transform="matrix(0 -1 -1 0 33.238424 21.731635)"/><path d="m.93360507 0c-.51565476 0-.93360507.41808734-.93360507.93360507 0 .51579179.41795031.93374209.93360507.93374209.51579179 0 .93374209-.4179503.93374209-.93374209 0-.51551773-.4179503-.93360507-.93374209-.93360507" fill="#e0e0e0" transform="matrix(0 -1 -1 0 14.58674 8.494257)"/><path d="m.9337421 0c-.51592882 0-.9337421.41808734-.9337421.9337421s.41781328.93360506.9337421.93360506c.51579179 0 .93360506-.4179503.93360506-.93360506s-.41781327-.9337421-.93360506-.9337421" fill="#e0e0e0" transform="matrix(0 -1 -1 0 22.547118 13.068416)"/><path d="m.9337421 0c-.51579179 0-.9337421.41808734-.9337421.9337421 0 .51579179.41795031.93387913.9337421.93387913s.93360506-.41808734.93360506-.93387913c0-.51565476-.41781327-.9337421-.93360506-.9337421" fill="#e0e0e0" transform="matrix(0 -1 -1 0 29.06728 19.361103)"/><path d="m.93360507 0c-.51565476 0-.93360507.41808734-.93360507.93360507 0 .51579179.41795031.93374209.93360507.93374209.51579179 0 .93374209-.4179503.93374209-.93374209 0-.51551773-.4179503-.93360507-.93374209-.93360507" fill="#e0e0e0" transform="matrix(0 -1 -1 0 35.774764 25.328747)"/><path d="m.93360507 0c-.51579179 0-.93360507.41808734-.93360507.93360507 0 .51579179.41781328.93374209.93360507.93374209s.93374209-.4179503.93374209-.93374209c0-.51551773-.4179503-.93360507-.93374209-.93360507" fill="#e0e0e0" transform="matrix(0 -1 -1 0 18.785427 10.362016)"/><path d="m12.150276.56978275c.0044631-.31435345-.2516514-.56978275-.5661418-.56978275h-11.01799236c-.31449048 0-.57060495.2554293-.56614184.56978275.03746896 2.59060675 2.26726811 8.11070257 3.24444963 8.11070257h5.66137674c.97718152 0 3.20698063-5.52009582 3.24444963-8.11070257" fill="#d38444" transform="translate(87.748677 73.321091)"/><path d="m10.6948533.56978275c.0044631-.31435345-.2516514-.56978275-.5660048-.56978275h-11.0181294c-.31435344 0-.57046791.2554293-.5660048.56978275.03733192 2.59060675 2.26726811 8.11070257 3.24444963 8.11070257h5.6612397c.97731856 0 3.20711767-5.52009582 3.24444967-8.11070257" fill="#e89449" mask="url(#a)" transform="translate(87.74881 73.321091)"/><path d="m5.99789114 6.3897604c-3.2524756-1.04994598-5.40553634-2.89673822-5.98874831-5.8154017-.05645755-.28269884.15553233-.5525166.44343843-.56567176 3.42815176-.15868408 5.35675262 1.85241058 5.54530988 6.38107346" fill="#72c174" transform="translate(87.826335 66.931605)"/><path d="m0 6.38991905c3.42472594-.95703769 5.61766324-2.83192167 6.03506542-5.97531908.02699548-.20280868-.1229185-.38341802-.3270975-.39684725-3.52969313-.23021525-5.51653297 1.77238338-5.70796792 6.37216633" fill="#72c174" transform="translate(93.824226 66.931035)"/><path d="m3.5283228 1.45378191c-.30202049-.61747019-.93634572-1.04254621-1.67015684-1.04254621-1.0262393 0-1.85816596.83192666-1.85816596 1.85802892v.83905238h5.97943007v-3.108317l-3.07351065.33244179-.50907718.15813595" fill="#27464f" transform="translate(61.120231 78.331562)"/><path d="m.33668981.83411919h5.46706409c.09701929 0 .17567617-.07851985.17567617-.17553913v-.65858006h-5.97943007v.49742938c0 .18595363.15087321.33668981.33668981.33668981" fill="#243e44" transform="translate(61.120368 81.440016)"/><path d="m2.97005081.42747208c-1.25631751-.95087121-2.67775966-.18787209-2.97005081 1.03925742.66570577-1.01281007 1.63685785-1.39800952 2.97005081-1.03925742" fill="#243e44" transform="translate(61.16737 78.720669)"/><path d="m3.5283228 1.45378191c-.30202049-.61733316-.93634572-1.04254621-1.67015684-1.04254621-1.0262393 0-1.85816596.83192666-1.85816596 1.85816596v.83905237h5.97943007v-3.10845403l-3.07351065.33257882-.50907718.15813595" fill="#27464f" transform="translate(68.4926 78.402682)"/><path d="m.33668981.83398216h5.46706409c.09701929 0 .17567617-.07851985.17567617-.1754021v-.65858006h-5.97943007v.49742938c0 .1858166.15087321.33655278.33668981.33655278" fill="#243e44" transform="translate(68.492737 81.511273)"/><path d="m2.97005081.42737945c-1.25631751-.95073418-2.67775966-.18773506-2.97005081 1.03939445.66570577-1.01281007 1.63685785-1.39814655 2.97005081-1.03939445" fill="#243e44" transform="translate(68.53974 78.791744)"/><path d="m3.13311995 1.8658398h-2.51003141c-.34422661 0-.62308854-.27886192-.62308854-.62308854v-.64693226c0-.32901597.266666-.595819.595819-.595819h2.56443346c.329153 0 .59595603.26680303.59595603.595819v.64693226c0 .34422662-.27886192.62308854-.62308854.62308854" fill="#f2f2f2" transform="translate(63.716182 77.555133)"/><path d="m3.13311995 1.8658398h-2.51003141c-.34422661 0-.62308854-.27886192-.62308854-.62308854v-.64693226c0-.32901597.266666-.595819.595819-.595819h2.56443346c.32929003 0 .59595603.26680303.59595603.595819v.64693226c0 .34422662-.27886192.62308854-.62308854.62308854" fill="#f2f2f2" transform="translate(71.229695 77.685315)"/><path d="m1.25481016 4.10989038h-.64611007c-.33614168 0-.60870009-.27255842-.60870009-.60870009v-3.50119029h1.86351024v3.50119029c0 .33614167-.27242138.60870009-.60870008.60870009" fill="#f2c666" transform="translate(64.781887 74.378711)"/><path d="m1.77087601 4.10989038c-.51469553 0-.99924382.74641814-.99924382.23172261l.06742018-4.34161299h1.86364728v3.17806674c0 .51455849-.41712811.93182364-.93182364.93182364" fill="#cea85b" mask="url(#b)" transform="translate(64.781064 74.379122)"/><path d="m1.25481016 4.10989038h-.64611007c-.33614168 0-.60870009-.27255842-.60870009-.60870009v-3.50119029h1.86351024v3.50119029c0 .33614167-.27242138.60870009-.60870008.60870009" fill="#f2c666" transform="translate(72.236476 74.378711)"/><path d="m1.78101645 3.90338181h-.00013704c-.51455849 0-.99924382.74641814-.99924382.23185965l.06755722-4.34175002h1.86364727v3.17806674c0 .51455849-.41726514.93182363-.93182363.93182363" fill="#cea85b" mask="url(#c)" transform="translate(72.236476 74.378711)"/><path d="m6.53934645 8.05342283h2.79533388c1.27742057 0 2.31284107-1.03555754 2.31284107-2.31284109v-3.81033648c0-1.06597884-.8641294-1.93024526-1.93024525-1.93024526l-.56759022.05645755-2.78711191-.05645755h-4.94606506c-.78232075 0-1.41650896.63418821-1.41650896 1.41650896v6.38381412h1.10338881v1.82870389l-1.01856545 3.04391153v9.33331c0 2.5129091 2.03726794 4.55004 4.55017704 4.55004h10.4568427c.4870148 0 .8819436-.3947917.8819436-.8818066l-6.35229654-15.85306075v-1.7862237" fill="#ccc" transform="translate(59.923523 47.822422)"/></g><circle cx="2.570874" cy="2.570874" r="2.570874" stroke="#27464f" stroke-width=".5" transform="matrix(0 -1 -1 0 65.065134 52.581163)"/><path d="m5.14161099 2.57087401c0 1.41966072-1.15093923 2.57073698-2.57087401 2.57073698-1.41966072 0-2.57073698-1.15107626-2.57073698-2.57073698 0-.92469793.48838521-1.73552152 1.22110006-2.18841522.39232516-.24241118.85467413-.38245879 1.34963692-.38245879.5325098 0 1.02706149.16197287 1.43747499.43905337.68379411.46193787 1.13339902 1.24439566 1.13339902 2.13182064z" stroke="#27464f" stroke-width=".5" transform="translate(65.064997 47.439415)"/><path d="m0 11.0073038h1.68632672c2.16361227 0 3.9174962-1.75402101 3.9174962-3.91763327l.00191846-7.08967053-5.60368589 1.16943867z" fill="#fff" fill-rule="nonzero" transform="translate(60.00725 58.611707)"/><path d="m0 5.20859054c0-2.87632032 2.33175162-5.20807194 5.20807194-5.20807194 3.65631152-.05481315 8.71063256 4.23719393 8.52755666 12.0460131 0 2.5152386-2.0389124 4.554151-4.55401401 4.554151-3.56586981.262829-8.95688065-6.5259173-9.17983316-11.27068102z" fill="#c0edec" fill-rule="nonzero" transform="translate(67.112405 57.017222)"/><path d="m5.8043966 0h-1.43089741c-.86741818 0-1.63384313.42452789-2.10893615 1.07516004l-.07783468.11031147c-.05426502.0829049-.25570337.4224724-.4716672.78944647-.41397635.70366388-.77245439 1.43884533-1.07159718 2.19841862l-.59951889 1.52188726c-.08975654.4404237-.06851644.91154277.31805334 1.14258022.44357545.2650216 1.00760282.08660478 1.22397775-.36889254.75710671-1.59328139 2.36368028-2.60855805 4.12770465-2.60855805h.09071577c1.06584181 0 1.93010823-.86426643 1.93010823-1.93010823 0-1.06597884-.86426642-1.93024526-1.93010823-1.93024526" fill="#f2c666" fill-rule="nonzero" transform="translate(55.515628 51.848723)"/><path d="m0 0h1.70140034c.63857326 0 1.15628351.51771025 1.15628351 1.15628351" stroke="#27464f" stroke-width=".5" transform="translate(70.206608 50.010427)"/><path d="m.14917431.01496925c.89098762.54689812 1.14970564 1.62808733.16101361 2.49783485-.06851643.06015742-.17334656.00342582-.16101361-.08701586.10058212-.74258104.03192866-1.5148982-.14662515-2.30667402-.01904757-.08468631.07249038-.14963988.14662515-.10414497" fill="#fff" fill-rule="nonzero" transform="matrix(.4164181 .90917323 .90917323 -.4164181 58.698196 54.863986)"/><path d="m.57238637 0c-.31613487 0-.57238637.20842702-.57238637.46563775 0 .2570737.2562515.46563776.57238637.46563776.31613488 0 .57238638-.20856406.57238638-.46563776 0-.25721073-.2562515-.46563775-.57238638-.46563775" fill="#27464f" fill-rule="nonzero" transform="matrix(0 -1 -1 0 64.350918 50.698743)"/><path d="m.57238637 0c-.31613487 0-.57238637.20842702-.57238637.46563775 0 .2570737.2562515.46563776.57238637.46563776.31613488 0 .57238638-.20856406.57238638-.46563776 0-.25721073-.2562515-.46563775-.57238638-.46563775" fill="#27464f" fill-rule="nonzero" transform="matrix(0 -1 -1 0 66.588665 50.698743)"/><path d="m2.04081757 1.31454268-1.87337661-.49934784c-.12031488-.0320657-.19184605-.15553233-.15978035-.27598424l.09907478-.37163319c.03206569-.12045191.15553233-.19198308.27598423-.15991738l1.87323958.49921081c.12045191.03220273.19198308.1558064.15991738.27612127l-.09907478.37177023c-.03206569.12031487-.15566936.19184604-.27598423.15978034" fill="#27464f" fill-rule="nonzero" transform="translate(65.943117 47.302945)"/><path d="m2.25600594.81532345-1.87323958.49934785c-.12045191.03206569-.24391854-.03960251-.27612127-.15991739l-.09893774-.37163319c-.03220273-.12045191.03946547-.24405557.15978035-.27612127l1.87337661-.49934784c.12031487-.0320657.24391854.0396025.2758472.15978035l.09921181.37177022c.03192866.12045191-.03946547.24405558-.15991738.27612127" fill="#27464f" fill-rule="nonzero" transform="translate(61.196251 47.603877)"/><path d="m.82630831 3.8270545h1.4670741c.13949948 0 .25241458-.11305214.25241458-.25255162v-3.3312695c0-.13429223-.10880411-.24323338-.24323337-.24323338h-1.4370639c-.47797071 0-.86549972.38752901-.86549972.86563675v2.13510943c0 .45440106.37190726.82630832.82630831.82630832" fill="#ea5353" fill-rule="nonzero" transform="translate(63.92639 56.823428)"/><path d="m1.71948868 3.8270545h-1.46693707c-.13949948 0-.25255161-.11305214-.25255161-.25255162v-3.3312695c0-.13429223.10894115-.24323338.24337041-.24323338h1.43692686c.47797072 0 .86549972.38752901.86549972.86563675v2.13510943c0 .45440106-.37190726.82630832-.82630831.82630832" fill="#ea5353" fill-rule="nonzero" transform="translate(59.082552 56.823428)"/><path d="m0 0v9.33331c0 2.8502841 2.16511963 4.6424002 4.55004001 4.55004-2.97402477-1.5732746-4.14305233-6.9296161-4.55004001-13.88335" fill="#606060" fill-rule="nonzero" opacity=".44" transform="translate(60.00725 60.494813)"/><path d="m1.43103445 0c-.79026867 0-1.43103445.64062875-1.43103445 1.43089742 0 .79040569.64076578 1.43089741 1.43103445 1.43089741.7904057 0 1.43089742-.64049172 1.43089742-1.43089741 0-.79026867-.64049172-1.43089742-1.43089742-1.43089742" fill="#d85050" fill-rule="nonzero" transform="matrix(0 -1 -1 0 64.110289 60.169086)"/><path d="m35.246777 53.936144h15.798111" stroke="#27464f" stroke-width=".5"/><path d="m35.309812 48.343832h15.797974" stroke="#27464f" stroke-width=".5"/><path d="m35.246777 70.206059h15.798111" stroke="#27464f" stroke-width=".5"/><path d="m35.246777 75.969662h15.798111" stroke="#27464f" stroke-width=".5"/><path d="m0 .068516h10.899322" stroke="#6bb26b" stroke-width=".5" transform="matrix(0 -1 -1 0 93.892879 73.32068)"/><path d="m2.18471533 0c-1.20671161 0-2.18471533.97814075-2.18471533 2.1845783 0 1.20657458.97800372 2.1845783 2.18471533 2.1845783 1.20657458 0 2.1845783-.97800372 2.1845783-2.1845783 0-1.20643755-.97800372-2.1845783-2.1845783-2.1845783" fill="#f2c666" fill-rule="nonzero" transform="matrix(0 -1 -1 0 93.8245 64.160854)"/><path d="m2.18444127 0c-1.20657458 0-2.18444127.97814075-2.18444127 2.1845783 0 1.20657458.97786669 2.18471533 2.18444127 2.18471533s2.1845783-.97814075 2.1845783-2.18471533c0-1.20643755-.97800372-2.1845783-2.1845783-2.1845783" fill="#f2c666" fill-rule="nonzero" transform="matrix(0 -1 -1 0 96.008804 61.198065)"/><path d="m2.18471533 0c-1.20671161 0-2.18471533.97814075-2.18471533 2.1845783 0 1.20657458.97800372 2.1845783 2.18471533 2.1845783 1.20657458 0 2.1845783-.97800372 2.1845783-2.1845783 0-1.20643755-.97800372-2.1845783-2.1845783-2.1845783" fill="#f2c666" fill-rule="nonzero" transform="matrix(0 -1 -1 0 98.193108 64.160854)"/><path d="m1.21671501 0c-.67187225 0-1.21671501.54470573-1.21671501 1.21671501s.54484276 1.21671501 1.21671501 1.21671501c.67200928 0 1.21671501-.54470573 1.21671501-1.21671501s-.54470573-1.21671501-1.21671501-1.21671501" fill="#ea5353" fill-rule="nonzero" transform="matrix(0 -1 -1 0 95.040941 62.216768)"/></g></svg>