<svg xmlns="http://www.w3.org/2000/svg" xmlns:xlink="http://www.w3.org/1999/xlink" width="87" height="86" viewBox="0 0 87 86"><defs><path id="a" d="M0,11.5785874 C0,17.9810871 5.18426377,23.1634641 11.5811031,23.1634641 C17.9773135,23.1634641 23.1628352,17.9810871 23.1628352,11.5785874 C23.1628352,5.18237698 17.9773135,0 11.5811031,0 C5.18426377,0 0,5.18237698 0,11.5785874 Z"/><path id="c" d="M0,5.82388481 C0.555973453,5.96224925 1.12829907,6.06287792 1.71320326,6.11319226 C2.23395668,4.13206514 2.68678574,2.0817558 2.90816883,0.528300566 L1.29622317,0 C1.04842505,1.74213401 0.559118099,3.84275769 0,5.82388481 Z"/><path id="f" d="M0,11.5785874 C0,17.9810871 5.18426377,23.1634641 11.5811031,23.1634641 C17.9773135,23.1634641 23.1628352,17.9810871 23.1628352,11.5785874 C23.1628352,5.18237698 17.9773135,0 11.5811031,0 C5.18426377,0 0,5.18237698 0,11.5785874 Z"/><path id="i" d="M0,11.5785874 C0,17.9747978 5.1848927,23.1634641 11.5817321,23.1634641 C17.9779425,23.1634641 23.1603195,17.9747978 23.1603195,11.5785874 C23.1603195,5.18237698 17.9779425,0 11.5817321,0 C5.1848927,0 0,5.18237698 0,11.5785874 Z"/><path id="l" d="M0,11.5817321 C0,17.9779425 5.1848927,23.1634641 11.5817321,23.1634641 C17.9785714,23.1634641 23.1634641,17.9779425 23.1634641,11.5817321 C23.1634641,5.18615056 17.9785714,0 11.5817321,0 C5.1848927,0 0,5.18615056 0,11.5817321 Z"/><linearGradient id="e" x1="-138.851%" x2="91.034%" y1="12.461%" y2="12.461%"><stop offset="0%" stop-color="#F29538"/><stop offset="0%" stop-color="#F29538"/><stop offset="100%" stop-color="#EDA74C"/></linearGradient><linearGradient id="h" x1="-18.7%" x2="81.3%" y1="38.725%" y2="38.725%"><stop offset="0%" stop-color="#D67369"/><stop offset="0%" stop-color="#D67369"/><stop offset="100%" stop-color="#EE7F70"/></linearGradient><linearGradient id="k" x1="96.684%" x2="56.803%" y1="-7.673%" y2="80.665%"><stop offset="0%" stop-color="#D67369"/><stop offset="0%" stop-color="#D67369"/><stop offset="100%" stop-color="#EE7F70"/></linearGradient></defs><g fill="none" fill-rule="evenodd" transform="translate(1.196 1.411)"><path stroke="gray" stroke-width="1.887" d="M0.100297483,60.6954159 C-0.886492502,48.8086532 5.43801999,33.2841637 17.7555993,20.1684732 C32.2794623,4.70373198 50.6668377,-2.65599804 63.1636618,0.867892516" transform="translate(3.44 1.058)"/><path fill="#72C174" fill-rule="nonzero" d="M40.4219115,0 C18.097439,0 0,18.097439 0,40.4219115 C0,62.7470129 18.097439,80.843823 40.4219115,80.843823 C62.7470129,80.843823 80.843823,62.7470129 80.843823,40.4219115 C80.843823,18.097439 62.7470129,0 40.4219115,0" transform="matrix(0 -1 -1 0 83.985 83.17)"/><path fill="#C0EDEC" fill-rule="nonzero" d="M52.133203,68.3495147 C49.4734612,68.3495147 47.3162339,66.1922873 47.3162339,63.5319166 C47.3162339,60.870917 49.4734612,58.7149476 52.133203,58.7149476 L75.004215,58.7149476 C76.9652164,54.8583534 78.3281061,50.64893 78.9658403,46.2024002 L51.7049022,46.2024002 C49.0445315,46.2024002 46.8879331,44.0458018 46.8879331,41.3854311 C46.8879331,38.7244315 49.0445315,36.568462 51.7049022,36.568462 L58.9847582,36.568462 L58.9835003,36.5546256 L63.1595905,36.5546256 C65.8205902,36.5546256 67.9765596,34.3980272 67.9765596,31.7376565 L67.9765596,31.7370276 C67.9765596,29.0772858 65.8205902,26.9200585 63.1595905,26.9200585 L47.4231519,26.9200585 C44.7621522,26.9200585 42.6061828,24.7628312 42.6061828,22.1030894 C42.6061828,19.4420898 44.7621522,17.2854914 47.4231519,17.2854914 L72.0991908,17.2854914 C64.791033,6.83834768 52.6784847,1.77635684e-15 38.9615378,1.77635684e-15 C29.8955227,1.77635684e-15 21.5257323,2.9848982 14.7829819,8.0257661 L28.9565314,8.0257661 C31.6169021,8.0257661 33.7741294,10.1823645 33.7741294,12.8427352 C33.7741294,15.5037348 31.6169021,17.6603332 28.9565314,17.6603332 L5.55784774,17.6603332 C3.08678474,21.279821 1.19496557,25.3232071 0,29.6571586 L23.0156657,29.6571586 C25.6760364,29.6571586 27.8326348,31.813128 27.8326348,34.4741277 C27.8326348,37.1344984 25.6760364,39.2917257 23.0156657,39.2917257 L15.5754328,39.2917257 L15.5766906,39.2986439 L11.4534305,39.2986439 C8.79305978,39.2986439 6.6364614,41.4546133 6.6364614,44.115613 C6.6364614,46.7759837 8.79305978,48.9325821 11.4534305,48.9325821 L17.6609621,48.9325821 L17.6628489,48.9395003 L28.5823185,48.9395003 C31.2426892,48.9395003 33.3992876,51.0960987 33.3992876,53.7570983 C33.3992876,56.417469 31.2426892,58.5740674 28.5823185,58.5740674 L2.84653376,58.5740674 C9.49746053,71.7796948 23.1666087,80.844452 38.9615378,80.844452 C50.4495594,80.844452 60.8099109,76.043835 68.1696409,68.3495147 L52.133203,68.3495147 Z" transform="translate(4.508 2.328)"/><path fill="#FFF" fill-rule="nonzero" d="M3.9075374,7.81444587 L14.9873839,7.81444587 C17.1452402,7.81444587 18.8942924,6.06539364 18.8942924,3.90690847 C18.8942924,1.74905223 17.1452402,0 14.9873839,0 L3.9075374,0 C1.74905223,0 5.58601383e-16,1.74905223 5.58601383e-16,3.90690847 C5.58601383e-16,6.06539364 1.74905223,7.81444587 3.9075374,7.81444587" transform="translate(40.716 17.528)"/><path fill="#FFF" fill-rule="nonzero" d="M3.90690847,7.81444587 L14.986755,7.81444587 C17.1452402,7.81444587 18.8942924,6.06539364 18.8942924,3.90690847 C18.8942924,1.74905223 17.1452402,0 14.986755,0 L3.90690847,0 C1.74905223,0 0,1.74905223 0,3.90690847 C0,6.06539364 1.74905223,7.81444587 3.90690847,7.81444587" transform="translate(30.814 54.194)"/><path fill="#FFF" fill-rule="nonzero" d="M3.9075374,7.8150748 L14.9873839,7.8150748 C17.1452402,7.8150748 18.8949213,6.06539364 18.8949213,3.9075374 C18.8949213,1.74905223 17.1452402,0 14.9873839,0 L3.9075374,0 C1.74968116,0 5.58601383e-16,1.74905223 5.58601383e-16,3.9075374 C5.58601383e-16,6.06539364 1.74968116,7.8150748 3.9075374,7.8150748" transform="translate(10.635 27.748)"/><path fill="#FFF" fill-rule="nonzero" d="M3.9075374,7.8150748 L14.9873839,7.8150748 C17.1452402,7.8150748 18.8949213,6.06602257 18.8949213,3.9075374 C18.8949213,1.74968116 17.1452402,0 14.9873839,0 L3.9075374,0 C1.74905223,0 5.58601383e-16,1.74968116 5.58601383e-16,3.9075374 C5.58601383e-16,6.06602257 1.74905223,7.8150748 3.9075374,7.8150748" transform="translate(60.574 36.471)"/><path fill="#FFF" fill-rule="nonzero" d="M11.582361,3.55271368e-15 C5.18552163,3.55271368e-15 0,5.18552163 0,11.582361 C0,17.9785714 5.18552163,23.1634641 11.582361,23.1634641 C17.9785714,23.1634641 23.164093,17.9785714 23.164093,11.582361 C23.164093,5.18552163 17.9785714,3.55271368e-15 11.582361,3.55271368e-15" transform="matrix(0 -1 -1 0 23.287 80.333)"/><path fill="#FFF" fill-rule="nonzero" d="M11.5817321,0 C5.1848927,0 0,5.18552163 0,11.5817321 C0,17.9785714 5.1848927,23.1634641 11.5817321,23.1634641 C17.9779425,23.1634641 23.1634641,17.9785714 23.1634641,11.5817321 C23.1634641,5.18552163 17.9779425,0 11.5817321,0" transform="matrix(0 -1 -1 0 84.627 23.17)"/><g transform="translate(0 57.169)"><mask id="b" fill="#fff"><use xlink:href="#a"/></mask><g mask="url(#b)"><g transform="translate(5.68 4.735)"><path fill="#F29538" fill-rule="nonzero" d="M6.50741538,0.211550289 C5.46590855,0.211550289 4.48415,0.466266634 3.61874336,0.914693186 L3.62188801,0.91091961 C3.06717241,0.875699572 2.67534949,0.546769577 2.36968988,0.0631229874 C2.31308625,-0.0268138947 2.17786646,-0.0192667437 2.13321248,0.0769594308 C1.90931367,0.559977091 1.91434511,1.06374942 2.12000497,1.58638962 C2.16340109,1.69708117 2.05711204,1.81280415 1.9464205,1.76689231 C1.31560446,1.50399989 0.917492251,1.01595079 0.721895256,0.333562563 C0.67724128,0.178217039 0.462776407,0.157462374 0.396109907,0.304002888 C-0.22275647,1.66500578 -0.110178136,2.92978249 0.689819864,4.10462232 L0.691706652,4.10273553 C0.386675968,4.84235632 0.216865072,5.65178826 0.216865072,6.5021006 C0.216865072,9.97630575 3.03321023,12.7926509 6.50741538,12.7926509 C9.98162053,12.7926509 12.7979657,9.97630575 12.7979657,6.5021006 C12.7979657,3.02852438 9.98162053,0.211550289 6.50741538,0.211550289" transform="translate(0 .107)"/><path fill="#EDA74C" fill-rule="nonzero" d="M6.50721739,0.211550289 C5.46571056,0.211550289 4.48395201,0.466266634 3.61854537,0.914693186 L3.62231894,0.91091961 C3.06760335,0.875699572 2.67578043,0.546769577 2.36949189,0.0631229874 C2.31351718,-0.0268138947 2.17766847,-0.0192667437 2.13301449,0.0769594308 C1.90911568,0.559977091 1.91414711,1.06374942 2.11980698,1.58638962 C2.16383202,1.69708117 2.05691405,1.81280415 1.94622251,1.76689231 C1.31540647,1.50399989 0.91729426,1.01595079 0.721697265,0.333562563 C0.677043288,0.178217039 0.462578416,0.157462374 0.395911916,0.304002888 C-0.222954462,1.66500578 -0.109747197,2.92978249 0.689621873,4.10462232 L0.691508661,4.10273553 C0.386477977,4.84235632 0.216667081,5.65178826 0.216667081,6.5021006 C0.216667081,9.97567682 3.03301224,12.7926509 6.50721739,12.7926509 C9.98142254,12.7926509 12.7977677,9.97567682 12.7977677,6.5021006 C12.7977677,3.02789545 9.98142254,0.211550289 6.50721739,0.211550289" transform="translate(.43)"/><ellipse cx="2.157" cy="2.156" stroke="#27464F" stroke-linecap="round" stroke-linejoin="round" stroke-width=".5" rx="2.157" ry="2.156" transform="matrix(0 -1 -1 0 7.27 6.773)"/><ellipse cx="2.157" cy="2.156" stroke="#27464F" stroke-linecap="round" stroke-linejoin="round" stroke-width=".5" rx="2.157" ry="2.156" transform="matrix(0 -1 -1 0 11.584 6.125)"/><path stroke="#27464F" stroke-linecap="round" stroke-linejoin="round" stroke-width=".5" d="M2.89559025,0.13432174 C1.96288817,-0.195866114 0.922639203,0.0959570558 0.299370321,0.863879664 L0,1.23180327" transform="translate(.08 4.212)"/><path fill="#F2C666" fill-rule="nonzero" d="M5.04743183,2.83898661 C3.70403896,2.76414403 2.4103315,1.74590758 2.11221904,0.652199627 C1.9392635,0.267923858 1.55310094,0 1.10404546,0 C0.494613022,0 0.00027463473,0.493709458 0.00027463473,1.10377083 C-0.032429686,3.47168943 2.86316056,6.88614631 4.72479113,6.80878801 C5.82856195,6.80878801 6.72289934,5.91507955 6.72289934,4.81130873 C6.72289934,3.7075379 5.82856195,2.81320051 4.72479113,2.81320051" transform="translate(7.481 7.017)"/></g></g></g><g transform="translate(8.797 74.169)"><mask id="d" fill="#fff"><use xlink:href="#c"/></mask><g mask="url(#d)"><g transform="translate(-2.165 -.434)"><rect width="2.399" height="5.957" fill="url(#e)" transform="scale(1 -1) rotate(-19.168 -17.114 -7.505)"/><path fill="#E5893E" fill-rule="nonzero" d="M1.47609694,10.6817343 C2.43269832,7.97796748 3.63709783,3.40816758 4.04653076,0.527042708 L2.43458511,0 C2.02515217,2.88112487 0.955972453,6.73142971 0,9.43582547"/></g></g></g><g transform="translate(0 57.169)"><mask id="g" fill="#fff"><use xlink:href="#f"/></mask><g mask="url(#g)"><g transform="translate(8.884 6.188)"><path fill="#27464F" fill-rule="nonzero" d="M0.529558545,-1.77635684e-15 C0.237106379,-1.77635684e-15 0,0.193710251 0,0.43144556 C0,0.669809798 0.237106379,0.86289112 0.529558545,0.86289112 C0.822639639,0.86289112 1.06037495,0.669809798 1.06100388,0.43144556 C1.05974602,0.193710251 0.822639639,0.000628929388 0.529558545,-1.77635684e-15" transform="scale(-1 1) rotate(-80.812 .351 3.895)"/><path fill="#27464F" fill-rule="nonzero" d="M0.529558545,0 C0.237106379,0.000628929388 -1.42108547e-14,0.193081322 -1.42108547e-14,0.43144556 C-1.42108547e-14,0.669809798 0.237106379,0.86289112 0.529558545,0.86289112 C0.822639639,0.86289112 1.05974602,0.669809798 1.06037495,0.43144556 C1.05974602,0.193081322 0.822639639,0 0.529558545,0" transform="scale(-1 1) rotate(-80.812 -.868 4.93)"/><path fill="#FFF" fill-rule="nonzero" d="M0.137713424,0.0139096798 C0.964126086,0.520826427 1.20311909,1.52271027 0.286769589,2.32773935 C0.223247763,2.38371403 0.127021631,2.33088399 0.137713424,2.24723644 C0.230794911,1.55918815 0.167902014,0.844095916 0.00249369587,0.110764741 C-0.0157452442,0.0315196909 0.0697890953,-0.028228561 0.137713424,0.0139096798" transform="scale(-1 1) rotate(75.205 -9.63 .327)"/><path fill="#27464F" fill-rule="nonzero" d="M1.67868792,1.13189256 L0.287496426,0.76145323 C0.0805787041,0.706107457 -0.0420624987,0.493529372 0.0132832749,0.287240579 C0.0680001192,0.0809517868 0.279949275,-0.0416894161 0.486866997,0.0130274283 L1.87805849,0.384095683 C2.08497621,0.438812527 2.20761741,0.650761683 2.15227164,0.857050475 C2.09755479,1.06459713 1.88560564,1.18723833 1.67868792,1.13189256" transform="translate(4.397)"/><path fill="#27464F" fill-rule="nonzero" d="M1.87801691,0.761038567 L0.486825416,1.13210682 C0.279907694,1.1874526 0.0679585385,1.06418246 0.0132416942,0.857264741 C-0.0421040794,0.650975949 0.0811660527,0.439026793 0.287454845,0.38368102 L1.67864634,0.0132416942 C1.88556406,-0.0421040794 2.09751321,0.0811660527 2.15285899,0.287454845 C2.20757583,0.493743638 2.08493463,0.706321722 1.87801691,0.761038567" transform="translate(0 .277)"/><path fill="#000" d="M0,0 C0.139622292,1.6968511 0.815092302,2.80691122 1.89559275,3.28552638 L1.84150483,3.28552638 C0.875469509,2.22766739 0.380502193,1.22955667 0,0" opacity=".21" transform="translate(4.382 7.54)"/></g></g></g><path fill="url(#h)" fill-rule="nonzero" d="M1.95673196,5.55512888 C3.05117527,3.91346393 4.56018042,2.57028351 6.33450517,1.66653866 L5.24006187,6.62469847 C4.22853094,6.10235053 3.14237887,5.7375361 1.95673196,5.55512888 Z" transform="matrix(1 0 0 -1 61.457 23.57)"/><g transform="translate(61.464 .006)"><mask id="j" fill="#fff"><use xlink:href="#i"/></mask><g mask="url(#j)"><g transform="translate(-2.093 3.932)"><path stroke="#D67369" stroke-linecap="round" stroke-linejoin="round" stroke-width=".5" d="M2.29459671,2.41320159 C0.534223693,4.25785113 -0.412314853,6.29683981 0.173218294,7.65406917 C0.512840097,8.44274647 1.54931553,8.65846921 2.29459671,8.23205517 C3.98264286,7.21130297 5.68892796,6.74715317 7.42225702,6.66413451 L5.33924329,0" transform="scale(1 -1) rotate(29.749 44.42 -3.35)"/><path fill="#D67369" fill-rule="nonzero" d="M0,0.0445786858 C0.145911585,-0.0535342765 0.636476396,0.00998757731 0.636476396,0.238288893 L0.474212651,0.71627512 L0,0.0445786858 Z" transform="translate(15.895 5.104)"/><path fill="#D67369" fill-rule="nonzero" d="M0.0033907693,0.0558991925 C0.149302354,-0.0422137698 0.696470798,-0.0422137698 0.617854642,0.314389112 L0.47760342,0.727595626 L0.0033907693,0.0558991925 Z" transform="translate(17.124 5.395)"/><path fill="#D67369" fill-rule="nonzero" d="M17.7295154,13.7552667 C13.7905316,16.0168963 11.9741839,13.0841992 12.0785862,9.47540323 L12.0785862,6.12006571 C12.0785862,4.66094986 11.5603485,3.32321736 10.6987154,2.27919481 L10.7169543,2.28737089 C11.173557,1.66221522 11.2999718,1.05907207 11.3125503,0.462847148 C11.3163239,0.299954474 11.120098,0.216935813 11.0006014,0.325740573 C10.506263,0.777311771 9.96915747,1.17668184 9.60312065,1.25278228 C9.53142271,1.20058115 9.46161157,1.14523538 9.38802684,1.09554997 C9.5182152,0.73643137 9.56790061,0.382344205 9.57544776,0.0307727568 C9.57859241,-0.131490988 8.68362609,0.392407073 8.41255758,0.566620474 C7.68299966,0.254671568 6.8817438,0.0810870964 6.03897861,0.0810870964 C2.7031379,0.0810870964 0,2.78548285 0,6.12006571 L0,16.2885937 L12.3226107,24.1351991 C16.9647375,24.1546118 19.279826,20.7816643 20.0930315,15.5640673 C20.3332825,14.0225617 19.0823422,12.9785391 17.7295154,13.7552667" transform="translate(7.933 .26)"/><path fill="#EE7F70" fill-rule="nonzero" d="M17.6137924,13.9758247 C13.7559405,16.1135552 11.9754418,13.2028707 12.0785862,9.63118147 L12.0785862,6.27584395 C12.0785862,4.8167281 11.5609774,3.47836667 10.6999733,2.43434412 L10.7175833,2.4425202 C11.172928,1.81925132 11.3006007,1.21736603 11.3125503,0.623027894 C11.3163239,0.458248431 11.1226137,0.370827266 11.0006014,0.481518814 C10.506263,0.933090012 9.97041533,1.33183115 9.60374958,1.40856052 L9.60186279,1.40667373 C9.47922158,1.31673685 9.42450474,1.16013347 9.46349835,1.01359296 C9.53834093,0.736235158 9.57041633,0.463279865 9.57607669,0.190324573 C9.57985026,0.02617404 9.38551113,-0.0612471251 9.26412778,0.0494444221 C8.98048069,0.308563271 8.68425502,0.547556384 8.41255758,0.721769785 C7.68425752,0.410449809 6.88237273,0.236236408 6.03960754,0.236236408 C2.70439575,0.236236408 0,2.94000323 0,6.27584395 L0,16.444372 C3.60376458,20.3890162 7.05029684,24.8160492 12.3094032,24.3946666 C16.9358067,24.4537859 19.235801,21.0877566 20.0905158,15.7374555 C20.31127,14.355698 18.8376888,13.297839 17.6137924,13.9758247" transform="translate(7.331)"/><path fill="#27464F" fill-rule="nonzero" d="M0.490564811,0 C0.762262245,0 0.981758552,0.190565561 0.981758552,0.42515617 C0.981758552,0.660375708 0.762262245,0.850941269 0.490564811,0.850941269 C0.219496307,0.850941269 0,0.660375708 0,0.42515617 C0,0.190565561 0.219496307,0 0.490564811,0" transform="matrix(0 1 1 0 9.148 4.387)"/><path fill="#27464F" fill-rule="nonzero" d="M0.490564811,0 C0.762262245,0 0.981129623,0.190565561 0.981129623,0.42515617 C0.981129623,0.660375708 0.762262245,0.85031234 0.490564811,0.85031234 C0.219496307,0.85031234 -8.72814661e-18,0.660375708 -8.72814661e-18,0.42515617 C-8.72814661e-18,0.190565561 0.219496307,0 0.490564811,0" transform="matrix(0 1 1 0 10.91 4.45)"/><path fill="#27464F" fill-rule="nonzero" d="M1.67565027,1.07250971 L0.116534666,0.65678748 C0.0328870766,0.634774956 -0.0167983338,0.547982721 0.00521418981,0.464335131 L0.0976667889,0.115908329 C0.119679312,0.0328896687 0.206471548,-0.0167957417 0.290119138,0.00521678187 L1.84923474,0.420939013 C1.93351126,0.442951537 1.98319667,0.529114843 1.96055521,0.613391362 L1.86810261,0.960560305 C1.84609009,1.04483682 1.75992678,1.09452223 1.67565027,1.07250971" transform="translate(11.194 2.868)"/><path fill="#27464F" fill-rule="nonzero" d="M0.290375134,1.07209496 L1.84949073,0.65700166 C1.93313832,0.634360207 1.98282373,0.5481969 1.96081121,0.464549311 L1.86835861,0.116122509 C1.84634609,0.0331038485 1.75955385,-0.0172104911 1.67590626,0.00543096171 L0.116790662,0.421153193 C0.0325141433,0.443165716 -0.0171712671,0.529329023 0.00547018578,0.613605542 L0.0979227848,0.960774485 C0.119935308,1.045051 0.206098615,1.09473641 0.290375134,1.07209496" transform="translate(8.2 2.755)"/><path fill="#D67369" fill-rule="nonzero" d="M0,3.32829357 C2.04213326,3.62137459 3.804393,1.81257408 3.70690897,1.04737759e-16 L0,3.32829357 Z" transform="translate(7.328 8.234)"/><path fill="#F2C666" fill-rule="nonzero" d="M2.05769852,1.28949805 C3.17907936,1.64232735 4.53945332,1.23603906 5.1067475,0.465600736 C5.3885078,0.159312193 5.78724894,-0.099806656 6.15454362,0.0379288487 C6.65391344,0.224720835 6.83756078,0.771260349 6.70234099,1.46937181 C6.0702671,3.95552912 2.67090453,5.449865 1.15015362,4.51779186 C0.245753362,4.17942793 -0.222169996,3.19955616 0.103615353,2.32974702 C0.429400702,1.45993787 1.42625356,1.02912134 2.33002488,1.36748527" transform="translate(4.333 6.85)"/><path fill="#D67369" fill-rule="nonzero" d="M0.610061368,0 C0.273584222,0 0,0.273584222 0,0.609432439 C0,0.945909585 0.273584222,1.21760702 0.610061368,1.21760702 C0.946538514,1.21760702 1.21949381,0.945909585 1.21949381,0.609432439 C1.21949381,0.273584222 0.946538514,0 0.610061368,0" transform="matrix(0 -1 -1 0 17.529 5.06)"/><path fill="#D67369" fill-rule="nonzero" d="M0.314464623,0.0100628679 C0.145911585,0.0100628679 0.0100628679,0.146540514 0.0100628679,0.314464623 C0.0100628679,0.482388731 0.145911585,0.618866377 0.314464623,0.618866377 C0.48301766,0.618866377 0.618866377,0.482388731 0.618866377,0.314464623 C0.618866377,0.146540514 0.48301766,0.0100628679 0.314464623,0.0100628679" transform="matrix(0 -1 -1 0 16.222 5.731)"/><path fill="#D67369" fill-rule="nonzero" d="M0.314464623,0.00377357547 C0.143395868,0.00377357547 0.00377357547,0.143395868 0.00377357547,0.314464623 C0.00377357547,0.486791236 0.143395868,0.62515567 0.314464623,0.62515567 C0.486162307,0.62515567 0.62515567,0.486791236 0.62515567,0.314464623 C0.62515567,0.143395868 0.486162307,0.00377357547 0.314464623,0.00377357547" transform="matrix(0 -1 -1 0 16.53 9.593)"/><path fill="#FFF" fill-rule="nonzero" d="M0.120095369,0.012242296 C0.838961585,0.453121751 1.04839505,1.32607565 0.250283739,2.02733184 C0.194937959,2.07638833 0.1100325,2.02984756 0.120095369,1.95752069 C0.201856181,1.35752212 0.146510401,0.734882087 0.00185665674,0.0958898959 C-0.0126087177,0.0279655291 0.0603470837,-0.024864534 0.120095369,0.012242296" transform="scale(1 -1) rotate(-65.39 -4.92 -10.166)"/><path fill="#D67369" fill-rule="nonzero" d="M0.000429268534,0.877356297 C0.0677246978,3.0150868 0.219925575,5.02262895 0.579044174,6.70878826 C2.86268626,9.3590961 7.80418334,10.5980867 12.9022838,9.79054156 C7.25009668,9.25092027 2.42809616,7.64400605 1.69413573,0.769180467 C1.64822389,0.333961429 1.2872185,0 0.850112679,0 C0.370239665,0 -0.0146650334,0.398112212 0.000429268534,0.877356297" transform="translate(7.352 14.605)"/></g></g></g><path fill="url(#k)" fill-rule="nonzero" d="M7.09330099,0 C8.41274253,2.19906924 9.01459306,4.84952639 8.62107541,7.59257592 C8.38959444,9.15507249 7.8571882,10.6134026 7.09330099,11.886548 L2.83405108,7.33794685 C5.04469437,5.41665477 6.65348714,3.12499314 7.09330099,0 Z" transform="scale(-1 1) rotate(81.799 -41.205 -31.76)"/><g transform="translate(61.467)"><mask id="m" fill="#fff"><use xlink:href="#l"/></mask><path fill="#D67369" fill-rule="nonzero" d="M17.742094,24.3848447 C15.8534195,25.911256 13.3553125,26.5030784 10.9446267,26.5483613 C9.7289065,26.5577952 8.50941269,26.4307515 7.31633391,26.1540227 C6.12388406,25.8772938 4.94589958,25.4653451 3.86602807,24.782328 C3.32829357,24.4383037 2.80942694,24.0206947 2.399994,23.4452244 C2.20062343,23.155917 2.02515217,22.8257291 1.93835993,22.4490005 C1.82829732,22.1043473 1.83836018,21.5747888 2.02515217,21.1905131 C2.40125186,20.3924018 3.1893002,19.9269942 4.04338612,19.9156735 C4.61696959,19.9225917 5.17357197,19.9068685 5.73206114,19.8508938 C6.84778162,19.7370576 7.9484078,19.4540394 9.01004037,19.0144179 C10.0729308,18.577312 11.0987144,17.9968104 12.1112905,17.3546736 C12.1414791,17.3358057 12.1804727,17.3446107 12.1993406,17.3747993 C12.2144349,17.3986986 12.2112902,17.4288872 12.1936802,17.4502708 C10.6364514,19.2741657 8.41381544,20.6911432 5.90124311,21.0974315 C5.27923208,21.1930288 4.64401355,21.235796 4.02703396,21.2251042 C3.6924436,21.2125256 3.28929995,21.4295062 3.15345124,21.7175558 C3.11257083,21.7861091 3.08804259,21.857807 3.07860866,21.9332785 C3.06036971,22.0018318 3.07231936,22.0873662 3.09118724,22.1999445 C3.11948906,22.4093779 3.20879701,22.6244717 3.33269607,22.8326473 C3.58867027,23.2483696 3.9848957,23.626985 4.4301776,23.9496257 C5.33269107,24.5911335 6.41193366,25.0452204 7.52010699,25.3628297 C8.63205389,25.6829547 9.79054156,25.866602 10.9553185,25.9194321 C13.2672624,26.0370418 15.7100236,25.6477346 17.6659936,24.2848449 C17.6942954,24.2647192 17.733289,24.2710085 17.7540437,24.2993103 C17.7729115,24.3263543 17.7672512,24.36409 17.742094,24.3848447" mask="url(#m)"/></g><circle cx="11.582" cy="11.582" r="11.582" stroke="gray" stroke-width="1.258" transform="matrix(0 -1 -1 0 84.627 23.17)"/><path stroke="gray" stroke-width="1.887" d="M67.021845,0 C71.4344126,13.6930475 66.2514067,32.2074667 52.6143339,46.7294429 C36.5923613,63.7897776 14.3389579,69.5488827 0,61.2665135" transform="translate(15.363 18.431)"/><circle cx="11.582" cy="11.582" r="11.582" stroke="gray" stroke-width="1.258" transform="matrix(0 -1 -1 0 23.287 80.019)"/></g></svg>