<svg clip-rule="evenodd" fill-rule="evenodd" stroke-linejoin="round" stroke-miterlimit="2" viewBox="0 0 46 11" xmlns="http://www.w3.org/2000/svg"><g fill-rule="nonzero"><path d="m-4.011-4.011c-2.216 0-4.012 1.796-4.012 4.011 0 2.217 1.796 4.011 4.012 4.011 2.215 0 4.011-1.794 4.011-4.011 0-2.215-1.796-4.011-4.011-4.011" fill="#db5852" transform="matrix(0 -1.33333 -1.33333 0 5.3492779 -.0092015)"/><path d="m-4.011-4.011c-2.216 0-4.012 1.796-4.012 4.011 0 2.217 1.796 4.011 4.012 4.011 2.215 0 4.011-1.794 4.011-4.011 0-2.215-1.796-4.011-4.011-4.011" fill="#fbb03b" transform="matrix(0 -1.33333 -1.33333 0 22.9759005 -.0092015)"/><path d="m-4.011-4.011c-2.216 0-4.012 1.796-4.012 4.011 0 2.217 1.796 4.011 4.012 4.011 2.215 0 4.011-1.794 4.011-4.011 0-2.215-1.796-4.011-4.011-4.011" fill="#72c174" transform="matrix(0 -1.33333 -1.33333 0 40.6158564 -.0092015)"/></g></svg>