<svg id="logo" xmlns="http://www.w3.org/2000/svg" viewBox="0 0 354.31 107.57"><defs><style>.cls-1{fill:#4b4f54;}.cls-2{fill:#5d7e95;}</style></defs><title>aquilio-logo-color</title><path class="cls-1" d="M354,46s-2.56,6.76-12.24,9.67c-12.67,3.81-36.6,4-58.56,4.38C247,60.78,204.3,61.6,175.59,73,152.3,60.58,111.82,60.35,75.46,60.15c-24.07-.13-50.74-.47-61.88-4.44C5.63,52.87.09,46.14.09,46.14S-1.52,55.58,8.93,61c6.11,15.69,39.53,16.31,78,17,12.91.24,26.26.41,39,1.21,3.71,2.26,26.44,15.93,27.64,15.93a52.57,52.57,0,0,1,11.53-9.64c13,4.23,22.75,11,26.69,22.08,4.91-7.51,2.23-16.37-2.23-22.81,36-7.43,67.15-7.59,92.41-7.71,31.18-.14,58-2.68,63.1-15.52C356.93,55.53,354,46,354,46Zm-333.35,18c14,2.42,33.19,2.53,54.79,2.64,33.27.18,70.07.39,92.41,9.79q-1.87,1-3.63,2c-10.65-3-23.22-4.66-36.5-5.62a3.26,3.26,0,0,0-.68,0c-13.05-.91-26.76-1.17-40-1.42C60.17,70.93,32.57,70.41,20.63,64.06ZM152.71,87.74c-3.43-1.86-8.1-4.64-12.41-7.27a153.09,153.09,0,0,1,17,2.88A44.56,44.56,0,0,0,152.71,87.74Zm19.89-6.37q1.24-.59,2.52-1.14A34.45,34.45,0,0,1,181,84.78a3.27,3.27,0,0,0,.56.53l0,0q.68.7,1.29,1.43A52,52,0,0,0,172.59,81.36Zm108-10.2c-26.4.12-72.86,2.72-94.69,8.45-.66-.6-2.7-1.67-3.41-2.23,28.48-10.71,67.11-10.1,100.84-10.74,20-.38,37.38-.72,50.26-2.6C323.72,70.3,304.69,71.05,280.57,71.16Z"/><path class="cls-2" d="M60.52,40.63q-1.65-3.41-3.63-7.47l-4-8.26q-2.06-4.19-4-8.29T45.23,9.14l-2.77-5.8L40.85,0,16.7,49.74h8.08l6.43-13.63H50.35q1,2.3,2.06,4.42l1.87,3.93q.86,1.8,1.53,3.18t1,2.1h8.07l-1.61-3.31ZM34,30.08l6-12.71q.07-.13.37-.92A11.15,11.15,0,0,0,40.85,15q.15.66.41,1.44a8.06,8.06,0,0,0,.34.92q.3.72.9,2t1.38,2.92l1.72,3.67q.93,2,2,4.16Z"/><path class="cls-2" d="M163.62,32.77a9.28,9.28,0,0,1-1,4.23A11.18,11.18,0,0,1,160,40.4a12.19,12.19,0,0,1-4,2.29,15.16,15.16,0,0,1-9.83,0,12.27,12.27,0,0,1-3.93-2.29A10.68,10.68,0,0,1,139.66,37a9.58,9.58,0,0,1-.93-4.23V2.23H130.5V33a15.52,15.52,0,0,0,1.61,7.11,16.46,16.46,0,0,0,4.41,5.44A20.75,20.75,0,0,0,143.06,49a25.42,25.42,0,0,0,8.08,1.25A25.77,25.77,0,0,0,159.25,49a20.69,20.69,0,0,0,6.58-3.51,16.47,16.47,0,0,0,4.41-5.44A15.53,15.53,0,0,0,171.85,33V2.23h-8.22Z"/><rect class="cls-2" x="184.56" y="2.23" width="8.15" height="47.52"/><polygon class="cls-2" points="214.24 2.23 206.01 2.23 206.01 49.74 241.16 49.74 241.16 42.93 214.24 42.93 214.24 2.23"/><path class="cls-2" d="M253.15,43.42a4.33,4.33,0,0,0-2.8-1.08,4.52,4.52,0,0,0-3,1.08,3.32,3.32,0,0,0-1.31,2.65,3.18,3.18,0,0,0,1.31,2.69,4.79,4.79,0,0,0,3,1,4.58,4.58,0,0,0,2.8-1,3.18,3.18,0,0,0,1.31-2.69A3.32,3.32,0,0,0,253.15,43.42Z"/><rect class="cls-2" x="264.56" y="2.23" width="8.15" height="47.52"/><path class="cls-2" d="M335.4,16.68a25.5,25.5,0,0,0-6-7.77,28.62,28.62,0,0,0-8.82-5.28,30.84,30.84,0,0,0-21.5,0,28.71,28.71,0,0,0-8.79,5.28,25,25,0,0,0-5.94,7.77,21.41,21.41,0,0,0,0,18.78,24.67,24.67,0,0,0,5.94,7.7,28.53,28.53,0,0,0,8.79,5.21,31.34,31.34,0,0,0,21.5,0,28.45,28.45,0,0,0,8.82-5.21,25.2,25.2,0,0,0,6-7.7,21.08,21.08,0,0,0,0-18.78ZM328,32.87a17.55,17.55,0,0,1-4.19,5.54,20.29,20.29,0,0,1-6.21,3.74A20.81,20.81,0,0,1,310,43.52a21.11,21.11,0,0,1-7.63-1.38,20.65,20.65,0,0,1-6.28-3.74,17.25,17.25,0,0,1-4.22-5.54,15.4,15.4,0,0,1-1.53-6.78,15.62,15.62,0,0,1,1.53-6.82,17.41,17.41,0,0,1,4.19-5.57A20.12,20.12,0,0,1,302.31,10a21.11,21.11,0,0,1,7.63-1.38,20.95,20.95,0,0,1,13.83,5.11A17.3,17.3,0,0,1,328,19.24a15.93,15.93,0,0,1,0,13.63Z"/><path class="cls-2" d="M122.09,26a20.67,20.67,0,0,0-2.21-9.34,25.5,25.5,0,0,0-6-7.77,28.62,28.62,0,0,0-8.82-5.28,30.84,30.84,0,0,0-21.5,0A28.71,28.71,0,0,0,74.8,8.91a25,25,0,0,0-5.94,7.77,21.41,21.41,0,0,0,0,18.78,24.67,24.67,0,0,0,5.94,7.7,28.53,28.53,0,0,0,8.79,5.21,31.34,31.34,0,0,0,21.5,0,29.13,29.13,0,0,0,7-3.78c2.79.32,5.64,1.72,7.47,5.68a10.88,10.88,0,0,0-1.23-12.2,25,25,0,0,0,1.54-2.62A20.74,20.74,0,0,0,122.09,26Zm-9.61,6.85a17.55,17.55,0,0,1-4.19,5.54,20.29,20.29,0,0,1-6.21,3.74,20.81,20.81,0,0,1-7.59,1.38,21.11,21.11,0,0,1-7.63-1.38,20.65,20.65,0,0,1-6.28-3.74,17.25,17.25,0,0,1-4.22-5.54,15.4,15.4,0,0,1-1.53-6.78,15.62,15.62,0,0,1,1.53-6.82,17.41,17.41,0,0,1,4.19-5.57A20.12,20.12,0,0,1,86.8,10a21.11,21.11,0,0,1,7.63-1.38,20.95,20.95,0,0,1,13.83,5.11,17.3,17.3,0,0,1,4.23,5.54,15.93,15.93,0,0,1,0,13.63Z"/></svg>